<?xml version="1.0" encoding="UTF-8" standalone="no"?>
<!DOCTYPE svg PUBLIC "-//W3C//DTD SVG 1.1//EN"
 "http://www.w3.org/Graphics/SVG/1.1/DTD/svg11.dtd">
<!-- Generated by graphviz version 12.2.1 (20241206.2353)
 -->
<!-- Title: CMakeDependencyGraph Pages: 1 -->
<svg width="590pt" height="478pt"
 viewBox="7.20 7.20 583.20 470.52" xmlns="http://www.w3.org/2000/svg" xmlns:xlink="http://www.w3.org/1999/xlink">
<g id="graph0" class="graph" transform="scale(0.296144 0.296144) rotate(0) translate(60.31 1552.81)">
<title>CMakeDependencyGraph</title>
<g id="clust1" class="cluster">
<title>cluster_legend</title>
<polygon fill="none" stroke="none" stroke-width="0" points="10.75,-8 10.75,-130 358.75,-130 358.75,-8 10.75,-8"/>
</g>
<!-- legend_anchor -->
<!-- top_anchor -->
<!-- key -->
<g id="node3" class="node">
<title>key</title>
<polygon fill="lightgrey" stroke="none" stroke-width="1.5" points="143.25,-130.12 10.75,-130.12 10.75,-7.88 143.25,-7.88 143.25,-130.12"/>
<polygon fill="none" stroke="none" points="10.75,-7.88 10.75,-130.12 143.25,-130.12 143.25,-7.88 10.75,-7.88"/>
<polygon fill="none" stroke="black" points="10.75,-89.38 10.75,-130.12 39.5,-130.12 39.5,-89.38 10.75,-89.38"/>
<text text-anchor="start" x="15.75" y="-101.97" font-family="Helvetica,Arial,sans-serif" font-size="22.00" fill="#ff6500">➔</text>
<polygon fill="none" stroke="black" points="39.5,-89.38 39.5,-130.12 143.25,-130.12 143.25,-89.38 39.5,-89.38"/>
<text text-anchor="start" x="59.88" y="-104.22" font-family="Helvetica,Arial,sans-serif" font-size="22.00" fill="#222831">Public</text>
<polygon fill="none" stroke="black" points="10.75,-48.62 10.75,-89.38 39.5,-89.38 39.5,-48.62 10.75,-48.62"/>
<text text-anchor="start" x="15.75" y="-61.23" font-family="Helvetica,Arial,sans-serif" font-size="22.00" fill="#1e3e62">➔</text>
<polygon fill="none" stroke="black" points="39.5,-48.62 39.5,-89.38 143.25,-89.38 143.25,-48.62 39.5,-48.62"/>
<text text-anchor="start" x="55" y="-63.48" font-family="Helvetica,Arial,sans-serif" font-size="22.00" fill="#222831">Private</text>
<polygon fill="none" stroke="black" points="10.75,-7.88 10.75,-48.62 39.5,-48.62 39.5,-7.88 10.75,-7.88"/>
<text text-anchor="start" x="15.75" y="-20.48" font-family="Helvetica,Arial,sans-serif" font-size="22.00" fill="#1f7d53">➔</text>
<polygon fill="none" stroke="black" points="39.5,-7.88 39.5,-48.62 143.25,-48.62 143.25,-7.88 39.5,-7.88"/>
<text text-anchor="start" x="44.5" y="-22.73" font-family="Helvetica,Arial,sans-serif" font-size="22.00" fill="#222831">Interface</text>
</g>
<!-- key&#45;&gt;legend_anchor -->
<!-- aphrodite::all -->
<g id="node4" class="node">
<title>aphrodite::all</title>
<path fill="#f1efec" stroke="black" stroke-width="1.5" d="M12,-741C12,-741 142,-741 142,-741 148,-741 154,-747 154,-753 154,-753 154,-801 154,-801 154,-807 148,-813 142,-813 142,-813 12,-813 12,-813 6,-813 0,-807 0,-801 0,-801 0,-753 0,-753 0,-747 6,-741 12,-741"/>
<text text-anchor="middle" x="77" y="-771.6" font-family="Helvetica,Arial,sans-serif" font-size="22.00" fill="#222831">aphrodite::all</text>
</g>
<!-- aphrodite::allocator -->
<g id="node5" class="node">
<title>aphrodite::allocator</title>
<path fill="#d4c9be" stroke="black" stroke-width="1.5" d="M1384.75,-802C1384.75,-802 1581.5,-802 1581.5,-802 1587.5,-802 1593.5,-808 1593.5,-814 1593.5,-814 1593.5,-862 1593.5,-862 1593.5,-868 1587.5,-874 1581.5,-874 1581.5,-874 1384.75,-874 1384.75,-874 1378.75,-874 1372.75,-868 1372.75,-862 1372.75,-862 1372.75,-814 1372.75,-814 1372.75,-808 1378.75,-802 1384.75,-802"/>
<text text-anchor="middle" x="1483.12" y="-832.6" font-family="Helvetica,Arial,sans-serif" font-size="22.00" fill="#222831">aphrodite::allocator</text>
</g>
<!-- aphrodite::all&#45;&gt;aphrodite::allocator -->
<g id="edge3" class="edge">
<title>aphrodite::all&#45;&gt;aphrodite::allocator</title>
<path fill="none" stroke="#ff6500" stroke-width="2" d="M154.49,-780.32C385.55,-790.36 1077.77,-820.43 1360.16,-832.7"/>
<polygon fill="#ff6500" stroke="#ff6500" stroke-width="2" points="1370.05,-833.13 1359.86,-837.19 1367.46,-833.52 1360.03,-833.2 1360.06,-832.7 1360.08,-832.2 1367.51,-832.52 1360.25,-828.2 1370.05,-833.13"/>
</g>
<!-- aphrodite::api -->
<g id="node6" class="node">
<title>aphrodite::api</title>
<path fill="#d4c9be" stroke="black" stroke-width="1.5" d="M860.62,-552C860.62,-552 998.12,-552 998.12,-552 1004.12,-552 1010.12,-558 1010.12,-564 1010.12,-564 1010.12,-612 1010.12,-612 1010.12,-618 1004.12,-624 998.12,-624 998.12,-624 860.62,-624 860.62,-624 854.62,-624 848.62,-618 848.62,-612 848.62,-612 848.62,-564 848.62,-564 848.62,-558 854.62,-552 860.62,-552"/>
<text text-anchor="middle" x="929.38" y="-582.6" font-family="Helvetica,Arial,sans-serif" font-size="22.00" fill="#222831">aphrodite::api</text>
</g>
<!-- aphrodite::all&#45;&gt;aphrodite::api -->
<g id="edge16" class="edge">
<title>aphrodite::all&#45;&gt;aphrodite::api</title>
<path fill="none" stroke="#ff6500" stroke-width="2" d="M102.41,-740.55C126.2,-708.41 165.52,-663.44 212,-642 267.29,-616.5 655.11,-598.48 835.94,-591.37"/>
<polygon fill="#ff6500" stroke="#ff6500" stroke-width="2" points="845.9,-590.98 836.08,-595.87 843.36,-591.58 835.93,-591.87 835.91,-591.37 835.89,-590.87 843.32,-590.58 835.73,-586.87 845.9,-590.98"/>
</g>
<!-- aphrodite::cli -->
<g id="node7" class="node">
<title>aphrodite::cli</title>
<path fill="#d4c9be" stroke="black" stroke-width="1.5" d="M258.5,-1420C258.5,-1420 387,-1420 387,-1420 393,-1420 399,-1426 399,-1432 399,-1432 399,-1480 399,-1480 399,-1486 393,-1492 387,-1492 387,-1492 258.5,-1492 258.5,-1492 252.5,-1492 246.5,-1486 246.5,-1480 246.5,-1480 246.5,-1432 246.5,-1432 246.5,-1426 252.5,-1420 258.5,-1420"/>
<text text-anchor="middle" x="322.75" y="-1450.6" font-family="Helvetica,Arial,sans-serif" font-size="22.00" fill="#222831">aphrodite::cli</text>
</g>
<!-- aphrodite::all&#45;&gt;aphrodite::cli -->
<g id="edge10" class="edge">
<title>aphrodite::all&#45;&gt;aphrodite::cli</title>
<path fill="none" stroke="#ff6500" stroke-width="2" d="M81.32,-813.27C92.97,-933.38 135.48,-1315.82 212,-1409 218.52,-1416.94 226.64,-1423.57 235.48,-1429.1"/>
<polygon fill="#ff6500" stroke="#ff6500" stroke-width="2" points="244.03,-1433.9 233.1,-1432.93 241.55,-1433.08 235.06,-1429.44 235.31,-1429 235.55,-1428.57 242.04,-1432.21 237.51,-1425.08 244.03,-1433.9"/>
</g>
<!-- aphrodite::event -->
<g id="node9" class="node">
<title>aphrodite::event</title>
<path fill="#d4c9be" stroke="black" stroke-width="1.5" d="M240.88,-1325C240.88,-1325 404.62,-1325 404.62,-1325 410.62,-1325 416.62,-1331 416.62,-1337 416.62,-1337 416.62,-1385 416.62,-1385 416.62,-1391 410.62,-1397 404.62,-1397 404.62,-1397 240.88,-1397 240.88,-1397 234.88,-1397 228.88,-1391 228.88,-1385 228.88,-1385 228.88,-1337 228.88,-1337 228.88,-1331 234.88,-1325 240.88,-1325"/>
<text text-anchor="middle" x="322.75" y="-1355.6" font-family="Helvetica,Arial,sans-serif" font-size="22.00" fill="#222831">aphrodite::event</text>
</g>
<!-- aphrodite::all&#45;&gt;aphrodite::event -->
<g id="edge12" class="edge">
<title>aphrodite::all&#45;&gt;aphrodite::event</title>
<path fill="none" stroke="#ff6500" stroke-width="2" d="M77.26,-813.38C77.26,-906.28 89.42,-1155.6 212,-1307 214.84,-1310.51 217.96,-1313.8 221.31,-1316.9"/>
<polygon fill="#ff6500" stroke="#ff6500" stroke-width="2" points="228.74,-1323.08 218.18,-1320.15 226.45,-1321.83 220.73,-1317.08 221.05,-1316.69 221.37,-1316.31 227.09,-1321.06 223.93,-1313.23 228.74,-1323.08"/>
</g>
<!-- aphrodite::filesystem -->
<g id="node10" class="node">
<title>aphrodite::filesystem</title>
<path fill="#d4c9be" stroke="black" stroke-width="1.5" d="M823.5,-1208C823.5,-1208 1035.25,-1208 1035.25,-1208 1041.25,-1208 1047.25,-1214 1047.25,-1220 1047.25,-1220 1047.25,-1268 1047.25,-1268 1047.25,-1274 1041.25,-1280 1035.25,-1280 1035.25,-1280 823.5,-1280 823.5,-1280 817.5,-1280 811.5,-1274 811.5,-1268 811.5,-1268 811.5,-1220 811.5,-1220 811.5,-1214 817.5,-1208 823.5,-1208"/>
<text text-anchor="middle" x="929.38" y="-1238.6" font-family="Helvetica,Arial,sans-serif" font-size="22.00" fill="#222831">aphrodite::filesystem</text>
</g>
<!-- aphrodite::all&#45;&gt;aphrodite::filesystem -->
<g id="edge5" class="edge">
<title>aphrodite::all&#45;&gt;aphrodite::filesystem</title>
<path fill="none" stroke="#ff6500" stroke-width="2" d="M78.31,-813.25C81.06,-895.14 99.59,-1095.63 212,-1203 367.45,-1351.47 638.82,-1318.42 799.21,-1281.09"/>
<polygon fill="#ff6500" stroke="#ff6500" stroke-width="2" points="808.67,-1278.85 799.98,-1285.54 806.29,-1279.93 799.05,-1281.64 798.94,-1281.16 798.82,-1280.67 806.06,-1278.95 797.9,-1276.78 808.67,-1278.85"/>
</g>
<!-- aphrodite::math -->
<g id="node11" class="node">
<title>aphrodite::math</title>
<path fill="#d4c9be" stroke="black" stroke-width="1.5" d="M849.38,-273C849.38,-273 1009.38,-273 1009.38,-273 1015.38,-273 1021.38,-279 1021.38,-285 1021.38,-285 1021.38,-333 1021.38,-333 1021.38,-339 1015.38,-345 1009.38,-345 1009.38,-345 849.38,-345 849.38,-345 843.38,-345 837.38,-339 837.38,-333 837.38,-333 837.38,-285 837.38,-285 837.38,-279 843.38,-273 849.38,-273"/>
<text text-anchor="middle" x="929.38" y="-303.6" font-family="Helvetica,Arial,sans-serif" font-size="22.00" fill="#222831">aphrodite::math</text>
</g>
<!-- aphrodite::all&#45;&gt;aphrodite::math -->
<g id="edge2" class="edge">
<title>aphrodite::all&#45;&gt;aphrodite::math</title>
<path fill="none" stroke="#ff6500" stroke-width="2" d="M89.25,-740.8C118.99,-645.48 198.39,-393.98 212,-381 388.06,-213.11 510.28,-295.44 753.5,-301 776.66,-301.53 801.53,-302.45 825.03,-303.49"/>
<polygon fill="#ff6500" stroke="#ff6500" stroke-width="2" points="834.75,-303.93 824.56,-307.97 832.17,-304.31 824.74,-303.98 824.76,-303.48 824.79,-302.98 832.22,-303.31 824.97,-298.98 834.75,-303.93"/>
</g>
<!-- aphrodite::module -->
<g id="node12" class="node">
<title>aphrodite::module</title>
<path fill="#d4c9be" stroke="black" stroke-width="1.5" d="M1117.25,-660C1117.25,-660 1302.75,-660 1302.75,-660 1308.75,-660 1314.75,-666 1314.75,-672 1314.75,-672 1314.75,-720 1314.75,-720 1314.75,-726 1308.75,-732 1302.75,-732 1302.75,-732 1117.25,-732 1117.25,-732 1111.25,-732 1105.25,-726 1105.25,-720 1105.25,-720 1105.25,-672 1105.25,-672 1105.25,-666 1111.25,-660 1117.25,-660"/>
<text text-anchor="middle" x="1210" y="-690.6" font-family="Helvetica,Arial,sans-serif" font-size="22.00" fill="#222831">aphrodite::module</text>
</g>
<!-- aphrodite::all&#45;&gt;aphrodite::module -->
<g id="edge7" class="edge">
<title>aphrodite::all&#45;&gt;aphrodite::module</title>
<path fill="none" stroke="#ff6500" stroke-width="2" d="M154.37,-756.38C173.17,-751.49 193.28,-746.42 212,-742 335.57,-712.84 365.23,-696.18 491.5,-683 607.32,-670.91 637.07,-681.34 753.5,-683 868.95,-684.65 1000.81,-688.64 1092.84,-691.77"/>
<polygon fill="#ff6500" stroke="#ff6500" stroke-width="2" points="1102.56,-692.1 1092.41,-696.26 1099.98,-692.52 1092.55,-692.26 1092.57,-691.76 1092.58,-691.26 1100.02,-691.52 1092.72,-687.26 1102.56,-692.1"/>
</g>
<!-- aphrodite::resource -->
<g id="node13" class="node">
<title>aphrodite::resource</title>
<path fill="#d4c9be" stroke="black" stroke-width="1.5" d="M224,-1070C224,-1070 421.5,-1070 421.5,-1070 427.5,-1070 433.5,-1076 433.5,-1082 433.5,-1082 433.5,-1130 433.5,-1130 433.5,-1136 427.5,-1142 421.5,-1142 421.5,-1142 224,-1142 224,-1142 218,-1142 212,-1136 212,-1130 212,-1130 212,-1082 212,-1082 212,-1076 218,-1070 224,-1070"/>
<text text-anchor="middle" x="322.75" y="-1100.6" font-family="Helvetica,Arial,sans-serif" font-size="22.00" fill="#222831">aphrodite::resource</text>
</g>
<!-- aphrodite::all&#45;&gt;aphrodite::resource -->
<g id="edge14" class="edge">
<title>aphrodite::all&#45;&gt;aphrodite::resource</title>
<path fill="none" stroke="#ff6500" stroke-width="2" d="M87.34,-813.13C103.77,-870.38 142.85,-982.58 212,-1052 215.67,-1055.68 219.64,-1059.15 223.82,-1062.42"/>
<polygon fill="#ff6500" stroke="#ff6500" stroke-width="2" points="231.93,-1068.25 221.18,-1066.07 229.55,-1067.16 223.52,-1062.82 223.81,-1062.41 224.1,-1062.01 230.14,-1066.35 226.44,-1058.76 231.93,-1068.25"/>
</g>
<!-- aphrodite::scene -->
<g id="node14" class="node">
<title>aphrodite::scene</title>
<path fill="#d4c9be" stroke="black" stroke-width="1.5" d="M539.5,-81C539.5,-81 705.5,-81 705.5,-81 711.5,-81 717.5,-87 717.5,-93 717.5,-93 717.5,-141 717.5,-141 717.5,-147 711.5,-153 705.5,-153 705.5,-153 539.5,-153 539.5,-153 533.5,-153 527.5,-147 527.5,-141 527.5,-141 527.5,-93 527.5,-93 527.5,-87 533.5,-81 539.5,-81"/>
<text text-anchor="middle" x="622.5" y="-111.6" font-family="Helvetica,Arial,sans-serif" font-size="22.00" fill="#222831">aphrodite::scene</text>
</g>
<!-- aphrodite::all&#45;&gt;aphrodite::scene -->
<g id="edge19" class="edge">
<title>aphrodite::all&#45;&gt;aphrodite::scene</title>
<path fill="none" stroke="#ff6500" stroke-width="2" d="M90.84,-740.59C107.33,-692.77 135.96,-605.95 154,-530 189.63,-380 103.19,-297.22 212,-188 253.5,-146.35 408.11,-128.95 515.01,-121.81"/>
<polygon fill="#ff6500" stroke="#ff6500" stroke-width="2" points="524.71,-121.19 515.02,-126.32 522.19,-121.85 514.77,-122.33 514.73,-121.83 514.7,-121.33 522.12,-120.85 514.45,-117.34 524.71,-121.19"/>
</g>
<!-- aphrodite::threads -->
<g id="node15" class="node">
<title>aphrodite::threads</title>
<path fill="#d4c9be" stroke="black" stroke-width="1.5" d="M1117.25,-848C1117.25,-848 1302.75,-848 1302.75,-848 1308.75,-848 1314.75,-854 1314.75,-860 1314.75,-860 1314.75,-908 1314.75,-908 1314.75,-914 1308.75,-920 1302.75,-920 1302.75,-920 1117.25,-920 1117.25,-920 1111.25,-920 1105.25,-914 1105.25,-908 1105.25,-908 1105.25,-860 1105.25,-860 1105.25,-854 1111.25,-848 1117.25,-848"/>
<text text-anchor="middle" x="1210" y="-878.6" font-family="Helvetica,Arial,sans-serif" font-size="22.00" fill="#222831">aphrodite::threads</text>
</g>
<!-- aphrodite::all&#45;&gt;aphrodite::threads -->
<g id="edge4" class="edge">
<title>aphrodite::all&#45;&gt;aphrodite::threads</title>
<path fill="none" stroke="#ff6500" stroke-width="2" d="M154.48,-803.72C173.1,-809.3 193.1,-814.53 212,-818 526.76,-875.77 905.62,-884.55 1092.73,-884.95"/>
<polygon fill="#ff6500" stroke="#ff6500" stroke-width="2" points="1102.61,-884.96 1092.61,-889.45 1100.05,-885.46 1092.61,-885.45 1092.61,-884.95 1092.62,-884.45 1100.05,-884.46 1092.62,-880.45 1102.61,-884.96"/>
</g>
<!-- aphrodite::ui -->
<g id="node16" class="node">
<title>aphrodite::ui</title>
<path fill="#d4c9be" stroke="black" stroke-width="1.5" d="M559.75,-364C559.75,-364 685.25,-364 685.25,-364 691.25,-364 697.25,-370 697.25,-376 697.25,-376 697.25,-424 697.25,-424 697.25,-430 691.25,-436 685.25,-436 685.25,-436 559.75,-436 559.75,-436 553.75,-436 547.75,-430 547.75,-424 547.75,-424 547.75,-376 547.75,-376 547.75,-370 553.75,-364 559.75,-364"/>
<text text-anchor="middle" x="622.5" y="-394.6" font-family="Helvetica,Arial,sans-serif" font-size="22.00" fill="#222831">aphrodite::ui</text>
</g>
<!-- aphrodite::all&#45;&gt;aphrodite::ui -->
<g id="edge9" class="edge">
<title>aphrodite::all&#45;&gt;aphrodite::ui</title>
<path fill="none" stroke="#ff6500" stroke-width="2" d="M88.09,-740.7C110.09,-664.23 164.25,-490.63 212,-454 304.65,-382.93 445.13,-380.43 535.09,-388.01"/>
<polygon fill="#ff6500" stroke="#ff6500" stroke-width="2" points="545.01,-388.92 534.65,-392.49 542.42,-389.19 535.01,-388.51 535.06,-388.01 535.1,-387.51 542.51,-388.19 535.47,-383.53 545.01,-388.92"/>
</g>
<!-- aphrodite::wsi -->
<g id="node17" class="node">
<title>aphrodite::wsi</title>
<path fill="#d4c9be" stroke="black" stroke-width="1.5" d="M1140.12,-472C1140.12,-472 1279.88,-472 1279.88,-472 1285.88,-472 1291.88,-478 1291.88,-484 1291.88,-484 1291.88,-532 1291.88,-532 1291.88,-538 1285.88,-544 1279.88,-544 1279.88,-544 1140.12,-544 1140.12,-544 1134.12,-544 1128.12,-538 1128.12,-532 1128.12,-532 1128.12,-484 1128.12,-484 1128.12,-478 1134.12,-472 1140.12,-472"/>
<text text-anchor="middle" x="1210" y="-502.6" font-family="Helvetica,Arial,sans-serif" font-size="22.00" fill="#222831">aphrodite::wsi</text>
</g>
<!-- aphrodite::all&#45;&gt;aphrodite::wsi -->
<g id="edge13" class="edge">
<title>aphrodite::all&#45;&gt;aphrodite::wsi</title>
<path fill="none" stroke="#ff6500" stroke-width="2" d="M86.62,-740.83C101.79,-685.81 138.82,-582.17 212,-532 356.62,-432.85 896.51,-475.57 1115.66,-497.73"/>
<polygon fill="#ff6500" stroke="#ff6500" stroke-width="2" points="1125.32,-498.72 1114.91,-502.18 1122.72,-498.96 1115.32,-498.2 1115.37,-497.7 1115.42,-497.21 1122.82,-497.96 1115.83,-493.23 1125.32,-498.72"/>
</g>
<!-- aphrodite::app -->
<g id="node18" class="node">
<title>aphrodite::app</title>
<path fill="#d4c9be" stroke="black" stroke-width="1.5" d="M550,-694C550,-694 695,-694 695,-694 701,-694 707,-700 707,-706 707,-706 707,-754 707,-754 707,-760 701,-766 695,-766 695,-766 550,-766 550,-766 544,-766 538,-760 538,-754 538,-754 538,-706 538,-706 538,-700 544,-694 550,-694"/>
<text text-anchor="middle" x="622.5" y="-724.6" font-family="Helvetica,Arial,sans-serif" font-size="22.00" fill="#222831">aphrodite::app</text>
</g>
<!-- aphrodite::all&#45;&gt;aphrodite::app -->
<g id="edge11" class="edge">
<title>aphrodite::all&#45;&gt;aphrodite::app</title>
<path fill="none" stroke="#ff6500" stroke-width="2" d="M154.43,-770.39C251.74,-761.98 419.9,-747.43 525.68,-738.29"/>
<polygon fill="#ff6500" stroke="#ff6500" stroke-width="2" points="535.52,-737.44 525.94,-742.78 533.01,-738.15 525.6,-738.8 525.56,-738.3 525.51,-737.8 532.92,-737.16 525.17,-733.81 535.52,-737.44"/>
</g>
<!-- aphrodite::global -->
<g id="node19" class="node">
<title>aphrodite::global</title>
<path fill="#d4c9be" stroke="black" stroke-width="1.5" d="M844.12,-996C844.12,-996 1014.62,-996 1014.62,-996 1020.62,-996 1026.62,-1002 1026.62,-1008 1026.62,-1008 1026.62,-1056 1026.62,-1056 1026.62,-1062 1020.62,-1068 1014.62,-1068 1014.62,-1068 844.12,-1068 844.12,-1068 838.12,-1068 832.12,-1062 832.12,-1056 832.12,-1056 832.12,-1008 832.12,-1008 832.12,-1002 838.12,-996 844.12,-996"/>
<text text-anchor="middle" x="929.38" y="-1026.6" font-family="Helvetica,Arial,sans-serif" font-size="22.00" fill="#222831">aphrodite::global</text>
</g>
<!-- aphrodite::all&#45;&gt;aphrodite::global -->
<g id="edge6" class="edge">
<title>aphrodite::all&#45;&gt;aphrodite::global</title>
<path fill="none" stroke="#ff6500" stroke-width="2" d="M105.18,-813.32C129.97,-844.2 169.19,-887.73 212,-915 400.16,-1034.83 670.65,-1044.88 819.63,-1039.68"/>
<polygon fill="#ff6500" stroke="#ff6500" stroke-width="2" points="829.46,-1039.3 819.65,-1044.18 826.92,-1039.9 819.49,-1040.18 819.47,-1039.69 819.45,-1039.19 826.88,-1038.9 819.3,-1035.19 829.46,-1039.3"/>
</g>
<!-- aphrodite::engine -->
<g id="node20" class="node">
<title>aphrodite::engine</title>
<path fill="#d4c9be" stroke="black" stroke-width="1.5" d="M533.5,-176C533.5,-176 711.5,-176 711.5,-176 717.5,-176 723.5,-182 723.5,-188 723.5,-188 723.5,-236 723.5,-236 723.5,-242 717.5,-248 711.5,-248 711.5,-248 533.5,-248 533.5,-248 527.5,-248 521.5,-242 521.5,-236 521.5,-236 521.5,-188 521.5,-188 521.5,-182 527.5,-176 533.5,-176"/>
<text text-anchor="middle" x="622.5" y="-206.6" font-family="Helvetica,Arial,sans-serif" font-size="22.00" fill="#222831">aphrodite::engine</text>
</g>
<!-- aphrodite::all&#45;&gt;aphrodite::engine -->
<g id="edge17" class="edge">
<title>aphrodite::all&#45;&gt;aphrodite::engine</title>
<path fill="none" stroke="#ff6500" stroke-width="2" d="M90.14,-740.86C106,-692.97 134.07,-605.71 154,-530 184.58,-413.83 123.52,-347.25 212,-266 290.9,-193.55 417.16,-187.26 508.64,-194.6"/>
<polygon fill="#ff6500" stroke="#ff6500" stroke-width="2" points="518.6,-195.47 508.24,-199.08 516,-195.75 508.59,-195.09 508.63,-194.6 508.68,-194.1 516.09,-194.75 509.03,-190.11 518.6,-195.47"/>
</g>
<!-- aphrodite::reflection -->
<g id="node21" class="node">
<title>aphrodite::reflection</title>
<path fill="#d4c9be" stroke="black" stroke-width="1.5" d="M519.62,-1162C519.62,-1162 725.38,-1162 725.38,-1162 731.38,-1162 737.38,-1168 737.38,-1174 737.38,-1174 737.38,-1222 737.38,-1222 737.38,-1228 731.38,-1234 725.38,-1234 725.38,-1234 519.62,-1234 519.62,-1234 513.62,-1234 507.62,-1228 507.62,-1222 507.62,-1222 507.62,-1174 507.62,-1174 507.62,-1168 513.62,-1162 519.62,-1162"/>
<text text-anchor="middle" x="622.5" y="-1192.6" font-family="Helvetica,Arial,sans-serif" font-size="22.00" fill="#222831">aphrodite::reflection</text>
</g>
<!-- aphrodite::all&#45;&gt;aphrodite::reflection -->
<g id="edge15" class="edge">
<title>aphrodite::all&#45;&gt;aphrodite::reflection</title>
<path fill="none" stroke="#ff6500" stroke-width="2" d="M78.91,-813.46C82.97,-890.32 104.18,-1068.9 212,-1154 290.93,-1216.3 406.73,-1223.43 495.06,-1217.2"/>
<polygon fill="#ff6500" stroke="#ff6500" stroke-width="2" points="504.9,-1216.43 495.29,-1221.7 502.39,-1217.13 494.97,-1217.71 494.94,-1217.21 494.9,-1216.71 502.31,-1216.13 494.58,-1212.73 504.9,-1216.43"/>
</g>
<!-- aphrodite::rendergraph -->
<g id="node22" class="node">
<title>aphrodite::rendergraph</title>
<path fill="#d4c9be" stroke="black" stroke-width="1.5" d="M503.5,-506C503.5,-506 741.5,-506 741.5,-506 747.5,-506 753.5,-512 753.5,-518 753.5,-518 753.5,-566 753.5,-566 753.5,-572 747.5,-578 741.5,-578 741.5,-578 503.5,-578 503.5,-578 497.5,-578 491.5,-572 491.5,-566 491.5,-566 491.5,-518 491.5,-518 491.5,-512 497.5,-506 503.5,-506"/>
<text text-anchor="middle" x="622.5" y="-536.6" font-family="Helvetica,Arial,sans-serif" font-size="22.00" fill="#222831">aphrodite::rendergraph</text>
</g>
<!-- aphrodite::all&#45;&gt;aphrodite::rendergraph -->
<g id="edge18" class="edge">
<title>aphrodite::all&#45;&gt;aphrodite::rendergraph</title>
<path fill="none" stroke="#ff6500" stroke-width="2" d="M93.82,-740.87C114.43,-698.48 154.73,-629.73 212,-596 292.01,-548.87 395.85,-535.6 478.95,-534"/>
<polygon fill="#ff6500" stroke="#ff6500" stroke-width="2" points="488.87,-533.88 478.93,-538.5 486.32,-534.41 478.88,-534.5 478.88,-534 478.87,-533.5 486.31,-533.41 478.82,-529.5 488.87,-533.88"/>
</g>
<!-- aphrodite::geometry -->
<g id="node23" class="node">
<title>aphrodite::geometry</title>
<path fill="#d4c9be" stroke="black" stroke-width="1.5" d="M518.88,-928C518.88,-928 726.12,-928 726.12,-928 732.12,-928 738.12,-934 738.12,-940 738.12,-940 738.12,-988 738.12,-988 738.12,-994 732.12,-1000 726.12,-1000 726.12,-1000 518.88,-1000 518.88,-1000 512.88,-1000 506.88,-994 506.88,-988 506.88,-988 506.88,-940 506.88,-940 506.88,-934 512.88,-928 518.88,-928"/>
<text text-anchor="middle" x="622.5" y="-958.6" font-family="Helvetica,Arial,sans-serif" font-size="22.00" fill="#222831">aphrodite::geometry</text>
</g>
<!-- aphrodite::all&#45;&gt;aphrodite::geometry -->
<g id="edge8" class="edge">
<title>aphrodite::all&#45;&gt;aphrodite::geometry</title>
<path fill="none" stroke="#ff6500" stroke-width="2" d="M125.4,-813.4C150.09,-830.86 181.44,-850.8 212,-864 302.77,-903.2 411.79,-928.88 494.51,-944.39"/>
<polygon fill="#ff6500" stroke="#ff6500" stroke-width="2" points="504.12,-946.16 493.47,-948.77 501.51,-946.19 494.2,-944.84 494.29,-944.35 494.38,-943.85 501.69,-945.2 495.11,-939.92 504.12,-946.16"/>
</g>
<!-- aphrodite::common -->
<g id="node8" class="node">
<title>aphrodite::common</title>
<path fill="#d4c9be" stroke="black" stroke-width="1.5" d="M1663.5,-837C1663.5,-837 1861,-837 1861,-837 1867,-837 1873,-843 1873,-849 1873,-849 1873,-897 1873,-897 1873,-903 1867,-909 1861,-909 1861,-909 1663.5,-909 1663.5,-909 1657.5,-909 1651.5,-903 1651.5,-897 1651.5,-897 1651.5,-849 1651.5,-849 1651.5,-843 1657.5,-837 1663.5,-837"/>
<text text-anchor="middle" x="1762.25" y="-867.6" font-family="Helvetica,Arial,sans-serif" font-size="22.00" fill="#222831">aphrodite::common</text>
</g>
<!-- aphrodite::allocator&#45;&gt;aphrodite::common -->
<g id="edge20" class="edge">
<title>aphrodite::allocator&#45;&gt;aphrodite::common</title>
<path fill="none" stroke="#1e3e62" stroke-width="2" d="M1593.65,-851.83C1608.57,-853.72 1623.97,-855.66 1639.1,-857.57"/>
<polygon fill="#1e3e62" stroke="#1e3e62" stroke-width="2" points="1648.74,-858.79 1638.25,-862 1646.13,-858.97 1638.76,-858.03 1638.82,-857.54 1638.88,-857.04 1646.26,-857.97 1639.38,-853.07 1648.74,-858.79"/>
</g>
<!-- aphrodite::api&#45;&gt;aphrodite::allocator -->
<g id="edge23" class="edge">
<title>aphrodite::api&#45;&gt;aphrodite::allocator</title>
<path fill="none" stroke="#1e3e62" stroke-width="2" d="M1010.49,-594.33C1107.35,-603.07 1263.73,-621.01 1314.75,-649 1375.76,-682.47 1425.48,-747.12 1454.44,-791.4"/>
<polygon fill="#1e3e62" stroke="#1e3e62" stroke-width="2" points="1459.68,-799.58 1450.5,-793.59 1457.88,-797.69 1453.86,-791.43 1454.28,-791.16 1454.71,-790.89 1458.72,-797.15 1458.07,-788.74 1459.68,-799.58"/>
</g>
<!-- aphrodite::api&#45;&gt;aphrodite::common -->
<g id="edge21" class="edge">
<title>aphrodite::api&#45;&gt;aphrodite::common</title>
<path fill="none" stroke="#1e3e62" stroke-width="2" d="M1010.33,-579.97C1089.17,-574.49 1212.39,-572.5 1314.75,-600 1474.75,-642.98 1633.34,-763.23 1711.36,-828.87"/>
<polygon fill="#1e3e62" stroke="#1e3e62" stroke-width="2" points="1718.61,-835.02 1708.08,-831.99 1716.33,-833.75 1710.66,-828.94 1710.99,-828.56 1711.31,-828.17 1716.98,-832.98 1713.9,-825.12 1718.61,-835.02"/>
</g>
<!-- aphrodite::api&#45;&gt;aphrodite::module -->
<g id="edge25" class="edge">
<title>aphrodite::api&#45;&gt;aphrodite::module</title>
<path fill="none" stroke="#1e3e62" stroke-width="2" d="M1010.59,-619.09C1039.59,-630.33 1072.77,-643.2 1103.6,-655.14"/>
<polygon fill="#1e3e62" stroke="#1e3e62" stroke-width="2" points="1112.57,-658.62 1101.62,-659.2 1109.99,-658.16 1103.06,-655.47 1103.24,-655.01 1103.42,-654.54 1110.36,-657.23 1104.87,-650.81 1112.57,-658.62"/>
</g>
<!-- aphrodite::api&#45;&gt;aphrodite::threads -->
<g id="edge24" class="edge">
<title>aphrodite::api&#45;&gt;aphrodite::threads</title>
<path fill="none" stroke="#1e3e62" stroke-width="2" d="M964.54,-624.3C1015.54,-678.48 1111.5,-780.42 1166.81,-839.18"/>
<polygon fill="#1e3e62" stroke="#1e3e62" stroke-width="2" points="1173.32,-846.1 1163.19,-841.9 1171.2,-844.57 1166.1,-839.16 1166.47,-838.82 1166.83,-838.47 1171.93,-843.89 1169.74,-835.73 1173.32,-846.1"/>
</g>
<!-- aphrodite::api&#45;&gt;aphrodite::wsi -->
<g id="edge22" class="edge">
<title>aphrodite::api&#45;&gt;aphrodite::wsi</title>
<path fill="none" stroke="#1e3e62" stroke-width="2" d="M1010.59,-557.42C1043.52,-547.13 1081.86,-536.03 1116.01,-526.87"/>
<polygon fill="#1e3e62" stroke="#1e3e62" stroke-width="2" points="1125.55,-524.34 1117.04,-531.25 1123.2,-525.48 1116.01,-527.39 1115.88,-526.9 1115.75,-526.42 1122.94,-524.51 1114.73,-522.55 1125.55,-524.34"/>
</g>
<!-- aphrodite::cli&#45;&gt;aphrodite::common -->
<g id="edge26" class="edge">
<title>aphrodite::cli&#45;&gt;aphrodite::common</title>
<path fill="none" stroke="#1e3e62" stroke-width="2" d="M399.12,-1451.09C513.48,-1444.06 737.71,-1432 928.38,-1432 928.38,-1432 928.38,-1432 1211,-1432 1388.39,-1432 1463.7,-1438.91 1593.5,-1318 1709.76,-1209.69 1746.02,-1012.74 1756.86,-921.63"/>
<polygon fill="#1e3e62" stroke="#1e3e62" stroke-width="2" points="1757.96,-911.92 1761.31,-922.36 1758.17,-914.52 1757.34,-921.91 1756.84,-921.86 1756.34,-921.8 1757.17,-914.41 1752.37,-921.35 1757.96,-911.92"/>
</g>
<!-- aphrodite::event&#45;&gt;aphrodite::common -->
<g id="edge27" class="edge">
<title>aphrodite::event&#45;&gt;aphrodite::common</title>
<path fill="none" stroke="#1e3e62" stroke-width="2" d="M416.97,-1361C535.73,-1361 747.3,-1361 928.38,-1361 928.38,-1361 928.38,-1361 1211,-1361 1388.52,-1361 1460.05,-1363.07 1593.5,-1246 1692.93,-1158.77 1736.48,-1000.98 1752.83,-921.51"/>
<polygon fill="#1e3e62" stroke="#1e3e62" stroke-width="2" points="1754.75,-911.84 1757.21,-922.53 1754.74,-914.46 1753.29,-921.75 1752.8,-921.65 1752.31,-921.56 1753.76,-914.26 1748.38,-920.78 1754.75,-911.84"/>
</g>
<!-- aphrodite::filesystem&#45;&gt;aphrodite::common -->
<g id="edge28" class="edge">
<title>aphrodite::filesystem&#45;&gt;aphrodite::common</title>
<path fill="none" stroke="#1e3e62" stroke-width="2" d="M1047.53,-1266.17C1189.16,-1286.32 1428.94,-1298.45 1593.5,-1190 1688.23,-1127.57 1733.09,-993.42 1751.08,-921.27"/>
<polygon fill="#1e3e62" stroke="#1e3e62" stroke-width="2" points="1753.37,-911.77 1755.41,-922.54 1753.26,-914.37 1751.52,-921.61 1751.03,-921.49 1750.55,-921.37 1752.29,-914.14 1746.66,-920.44 1753.37,-911.77"/>
</g>
<!-- aphrodite::resource&#45;&gt;aphrodite::api -->
<g id="edge31" class="edge">
<title>aphrodite::resource&#45;&gt;aphrodite::api</title>
<path fill="none" stroke="#1e3e62" stroke-width="2" d="M349.59,-1069.77C380.07,-1028.92 433.9,-962.29 491.5,-917 595.12,-835.52 649.15,-858.54 753.5,-778 808.37,-735.65 860.75,-675.16 893.63,-633.88"/>
<polygon fill="#1e3e62" stroke="#1e3e62" stroke-width="2" points="899.64,-626.25 896.98,-636.89 898.45,-628.57 893.84,-634.41 893.45,-634.1 893.06,-633.79 897.66,-627.96 889.92,-631.32 899.64,-626.25"/>
</g>
<!-- aphrodite::resource&#45;&gt;aphrodite::common -->
<g id="edge30" class="edge">
<title>aphrodite::resource&#45;&gt;aphrodite::common</title>
<path fill="none" stroke="#1e3e62" stroke-width="2" d="M433.76,-1112.12C554.91,-1118.32 755.46,-1127 928.38,-1127 928.38,-1127 928.38,-1127 1211,-1127 1387.77,-1127 1437.97,-1102 1593.5,-1018 1641.64,-992 1688.04,-950.17 1719.79,-918.11"/>
<polygon fill="#1e3e62" stroke="#1e3e62" stroke-width="2" points="1726.64,-911.09 1722.87,-921.39 1725.21,-913.27 1720.01,-918.59 1719.65,-918.24 1719.3,-917.89 1724.49,-912.57 1716.43,-915.1 1726.64,-911.09"/>
</g>
<!-- aphrodite::resource&#45;&gt;aphrodite::filesystem -->
<g id="edge29" class="edge">
<title>aphrodite::resource&#45;&gt;aphrodite::filesystem</title>
<path fill="none" stroke="#1e3e62" stroke-width="2" d="M353.33,-1142.22C383.82,-1176.42 434.8,-1225.45 491.5,-1246 590.18,-1281.77 709.84,-1278.28 798.96,-1267.53"/>
<polygon fill="#1e3e62" stroke="#1e3e62" stroke-width="2" points="808.63,-1266.31 799.27,-1272.02 806.15,-1267.12 798.77,-1268.05 798.71,-1267.56 798.65,-1267.06 806.02,-1266.13 798.15,-1263.09 808.63,-1266.31"/>
</g>
<!-- aphrodite::resource&#45;&gt;aphrodite::math -->
<g id="edge32" class="edge">
<title>aphrodite::resource&#45;&gt;aphrodite::math</title>
<path fill="none" stroke="#1e3e62" stroke-width="2" d="M326.34,-1069.93C336.93,-933.31 381.7,-450.47 491.5,-353 539.22,-310.64 711.33,-304.87 824.76,-305.94"/>
<polygon fill="#1e3e62" stroke="#1e3e62" stroke-width="2" points="834.48,-306.06 824.42,-310.44 831.91,-306.53 824.47,-306.44 824.48,-305.94 824.48,-305.44 831.92,-305.53 824.53,-301.44 834.48,-306.06"/>
</g>
<!-- aphrodite::resource&#45;&gt;aphrodite::global -->
<g id="edge33" class="edge">
<title>aphrodite::resource&#45;&gt;aphrodite::global</title>
<path fill="none" stroke="#1e3e62" stroke-width="2" d="M433.94,-1092.51C543.49,-1079.11 710.49,-1058.67 819.55,-1045.32"/>
<polygon fill="#1e3e62" stroke="#1e3e62" stroke-width="2" points="829.48,-1044.1 820.1,-1049.79 827,-1044.91 819.62,-1045.81 819.55,-1045.32 819.49,-1044.82 826.88,-1043.92 819.01,-1040.85 829.48,-1044.1"/>
</g>
<!-- aphrodite::resource&#45;&gt;aphrodite::reflection -->
<g id="edge35" class="edge">
<title>aphrodite::resource&#45;&gt;aphrodite::reflection</title>
<path fill="none" stroke="#1e3e62" stroke-width="2" d="M433.78,-1140C453.95,-1146.23 475.15,-1152.78 495.74,-1159.14"/>
<polygon fill="#1e3e62" stroke="#1e3e62" stroke-width="2" points="505.11,-1162.04 494.23,-1163.39 502.52,-1161.76 495.41,-1159.56 495.56,-1159.09 495.71,-1158.61 502.81,-1160.8 496.89,-1154.79 505.11,-1162.04"/>
</g>
<!-- aphrodite::resource&#45;&gt;aphrodite::geometry -->
<g id="edge34" class="edge">
<title>aphrodite::resource&#45;&gt;aphrodite::geometry</title>
<path fill="none" stroke="#1e3e62" stroke-width="2" d="M400.04,-1069.62C440.93,-1050.12 491.49,-1026.01 533.97,-1005.75"/>
<polygon fill="#1e3e62" stroke="#1e3e62" stroke-width="2" points="542.95,-1001.46 535.86,-1009.83 540.85,-1003.02 534.14,-1006.22 533.92,-1005.77 533.71,-1005.32 540.42,-1002.11 531.99,-1001.7 542.95,-1001.46"/>
</g>
<!-- aphrodite::scene&#45;&gt;aphrodite::common -->
<g id="edge37" class="edge">
<title>aphrodite::scene&#45;&gt;aphrodite::common</title>
<path fill="none" stroke="#1e3e62" stroke-width="2" d="M717.88,-98.01C910.68,-65.22 1351.92,-21.83 1593.5,-252 1677.7,-332.22 1735.93,-692.97 1754.71,-824.68"/>
<polygon fill="#1e3e62" stroke="#1e3e62" stroke-width="2" points="1756.07,-834.28 1750.22,-825 1755.21,-831.81 1754.18,-824.44 1754.67,-824.37 1755.17,-824.3 1756.21,-831.67 1759.13,-823.75 1756.07,-834.28"/>
</g>
<!-- aphrodite::scene&#45;&gt;aphrodite::math -->
<g id="edge36" class="edge">
<title>aphrodite::scene&#45;&gt;aphrodite::math</title>
<path fill="none" stroke="#1e3e62" stroke-width="2" d="M717.89,-147.55C730.16,-152.76 742.34,-158.59 753.5,-165 801.35,-192.48 849.28,-233.09 882.83,-264.19"/>
<polygon fill="#1e3e62" stroke="#1e3e62" stroke-width="2" points="890.12,-271.02 879.75,-267.47 887.91,-269.64 882.48,-264.55 882.82,-264.19 883.17,-263.82 888.59,-268.91 885.9,-260.9 890.12,-271.02"/>
</g>
<!-- aphrodite::threads&#45;&gt;aphrodite::allocator -->
<g id="edge39" class="edge">
<title>aphrodite::threads&#45;&gt;aphrodite::allocator</title>
<path fill="none" stroke="#1e3e62" stroke-width="2" d="M1315.05,-866.35C1329.9,-863.83 1345.28,-861.22 1360.42,-858.65"/>
<polygon fill="#1e3e62" stroke="#1e3e62" stroke-width="2" points="1370.11,-857.01 1361,-863.12 1367.66,-857.93 1360.33,-859.17 1360.25,-858.68 1360.16,-858.19 1367.49,-856.94 1359.49,-854.24 1370.11,-857.01"/>
</g>
<!-- aphrodite::threads&#45;&gt;aphrodite::common -->
<g id="edge38" class="edge">
<title>aphrodite::threads&#45;&gt;aphrodite::common</title>
<path fill="none" stroke="#1e3e62" stroke-width="2" d="M1314.98,-885.48C1334.19,-885.69 1354.07,-885.88 1372.75,-886 1470.86,-886.61 1495.46,-889.79 1593.5,-886 1608.24,-885.43 1623.69,-884.58 1639,-883.58"/>
<polygon fill="#1e3e62" stroke="#1e3e62" stroke-width="2" points="1648.8,-882.91 1639.13,-888.08 1646.28,-883.59 1638.86,-884.09 1638.83,-883.59 1638.79,-883.09 1646.21,-882.59 1638.52,-879.1 1648.8,-882.91"/>
</g>
<!-- aphrodite::ui&#45;&gt;aphrodite::api -->
<g id="edge42" class="edge">
<title>aphrodite::ui&#45;&gt;aphrodite::api</title>
<path fill="none" stroke="#1e3e62" stroke-width="2" d="M682.64,-436.47C733.13,-467.6 805.8,-512.42 859.02,-545.23"/>
<polygon fill="#1e3e62" stroke="#1e3e62" stroke-width="2" points="867.32,-550.35 856.45,-548.93 864.88,-549.43 858.55,-545.53 858.81,-545.1 859.07,-544.68 865.4,-548.58 861.17,-541.27 867.32,-550.35"/>
</g>
<!-- aphrodite::ui&#45;&gt;aphrodite::common -->
<g id="edge41" class="edge">
<title>aphrodite::ui&#45;&gt;aphrodite::common</title>
<path fill="none" stroke="#1e3e62" stroke-width="2" d="M697.62,-393.59C899.05,-377.7 1450.91,-344.77 1593.5,-447 1718.13,-536.36 1750.18,-732.97 1758.41,-824.44"/>
<polygon fill="#1e3e62" stroke="#1e3e62" stroke-width="2" points="1759.22,-834.19 1753.91,-824.6 1758.51,-831.68 1757.9,-824.27 1758.4,-824.23 1758.9,-824.19 1759.51,-831.6 1762.88,-823.85 1759.22,-834.19"/>
</g>
<!-- aphrodite::ui&#45;&gt;aphrodite::math -->
<g id="edge40" class="edge">
<title>aphrodite::ui&#45;&gt;aphrodite::math</title>
<path fill="none" stroke="#1e3e62" stroke-width="2" d="M697.69,-377.86C735.95,-366.43 783.24,-352.32 825.02,-339.85"/>
<polygon fill="#1e3e62" stroke="#1e3e62" stroke-width="2" points="834.59,-336.99 826.3,-344.16 832.28,-338.2 825.16,-340.33 825.01,-339.85 824.87,-339.37 832,-337.25 823.73,-335.54 834.59,-336.99"/>
</g>
<!-- aphrodite::wsi&#45;&gt;aphrodite::api -->
<g id="edge44" class="edge">
<title>aphrodite::wsi&#45;&gt;aphrodite::api</title>
<path fill="none" stroke="#1e3e62" stroke-width="2" d="M1127.9,-538.86C1094.87,-549.16 1056.52,-560.25 1022.45,-569.38"/>
<polygon fill="#1e3e62" stroke="#1e3e62" stroke-width="2" points="1012.95,-571.89 1021.46,-564.98 1015.3,-570.75 1022.48,-568.85 1022.61,-569.33 1022.74,-569.82 1015.55,-571.72 1023.77,-573.68 1012.95,-571.89"/>
</g>
<!-- aphrodite::wsi&#45;&gt;aphrodite::common -->
<g id="edge43" class="edge">
<title>aphrodite::wsi&#45;&gt;aphrodite::common</title>
<path fill="none" stroke="#1e3e62" stroke-width="2" d="M1292.16,-499.36C1375.25,-494.8 1504.47,-500.02 1593.5,-562 1684.45,-625.32 1730.57,-754.15 1749.85,-824.49"/>
<polygon fill="#1e3e62" stroke="#1e3e62" stroke-width="2" points="1752.41,-834.15 1745.49,-825.64 1751.27,-831.8 1749.36,-824.61 1749.84,-824.48 1750.33,-824.35 1752.23,-831.54 1754.19,-823.33 1752.41,-834.15"/>
</g>
<!-- aphrodite::app&#45;&gt;aphrodite::common -->
<g id="edge45" class="edge">
<title>aphrodite::app&#45;&gt;aphrodite::common</title>
<path fill="none" stroke="#1e3e62" stroke-width="2" d="M707.23,-733.39C926.98,-742.56 1509.09,-768.66 1593.5,-791 1626.85,-799.83 1661.45,-815.48 1690.51,-830.76"/>
<polygon fill="#1e3e62" stroke="#1e3e62" stroke-width="2" points="1699.21,-835.44 1688.28,-834.67 1696.72,-834.66 1690.17,-831.15 1690.4,-830.71 1690.64,-830.27 1697.19,-833.78 1692.53,-826.74 1699.21,-835.44"/>
</g>
<!-- aphrodite::app&#45;&gt;aphrodite::global -->
<g id="edge46" class="edge">
<title>aphrodite::app&#45;&gt;aphrodite::global</title>
<path fill="none" stroke="#1e3e62" stroke-width="2" d="M660.28,-766.43C716.28,-821.9 822.81,-927.43 883.36,-987.41"/>
<polygon fill="#1e3e62" stroke="#1e3e62" stroke-width="2" points="890.21,-994.2 879.94,-990.36 888.04,-992.75 882.76,-987.52 883.11,-987.16 883.46,-986.8 888.74,-992.04 886.28,-983.96 890.21,-994.2"/>
</g>
<!-- aphrodite::global&#45;&gt;aphrodite::common -->
<g id="edge48" class="edge">
<title>aphrodite::global&#45;&gt;aphrodite::common</title>
<path fill="none" stroke="#1e3e62" stroke-width="2" d="M1027.08,-1038.2C1158.79,-1043.53 1400.27,-1042.09 1593.5,-978 1634.4,-964.43 1675.49,-938.96 1706.77,-916.5"/>
<polygon fill="#1e3e62" stroke="#1e3e62" stroke-width="2" points="1714.6,-910.77 1709.18,-920.3 1712.83,-912.68 1706.82,-917.07 1706.53,-916.67 1706.23,-916.27 1712.23,-911.88 1703.87,-913.04 1714.6,-910.77"/>
</g>
<!-- aphrodite::global&#45;&gt;aphrodite::threads -->
<g id="edge47" class="edge">
<title>aphrodite::global&#45;&gt;aphrodite::threads</title>
<path fill="none" stroke="#1e3e62" stroke-width="2" d="M998.89,-995.61C1038.53,-974.55 1088.59,-947.96 1129.9,-926.02"/>
<polygon fill="#1e3e62" stroke="#1e3e62" stroke-width="2" points="1138.6,-921.4 1131.88,-930.06 1136.57,-923.04 1130,-926.53 1129.77,-926.09 1129.53,-925.65 1136.1,-922.16 1127.65,-922.11 1138.6,-921.4"/>
</g>
<!-- aphrodite::engine&#45;&gt;aphrodite::api -->
<g id="edge50" class="edge">
<title>aphrodite::engine&#45;&gt;aphrodite::api</title>
<path fill="none" stroke="#1e3e62" stroke-width="2" d="M659.08,-248.45C685.85,-276.37 723,-316.22 753.5,-353 805.97,-416.28 861.9,-493.34 896,-541.55"/>
<polygon fill="#1e3e62" stroke="#1e3e62" stroke-width="2" points="901.74,-549.68 892.3,-544.1 899.85,-547.88 895.57,-541.8 895.97,-541.51 896.38,-541.22 900.67,-547.3 899.65,-538.92 901.74,-549.68"/>
</g>
<!-- aphrodite::engine&#45;&gt;aphrodite::common -->
<g id="edge49" class="edge">
<title>aphrodite::engine&#45;&gt;aphrodite::common</title>
<path fill="none" stroke="#1e3e62" stroke-width="2" d="M723.84,-198.13C917.72,-177.32 1346.42,-161.37 1593.5,-382 1725.3,-499.69 1753.61,-725.29 1759.64,-824.34"/>
<polygon fill="#1e3e62" stroke="#1e3e62" stroke-width="2" points="1760.18,-834.18 1755.14,-824.44 1759.54,-831.65 1759.13,-824.22 1759.63,-824.2 1760.13,-824.17 1760.54,-831.59 1764.13,-823.95 1760.18,-834.18"/>
</g>
<!-- aphrodite::engine&#45;&gt;aphrodite::math -->
<g id="edge51" class="edge">
<title>aphrodite::engine&#45;&gt;aphrodite::math</title>
<path fill="none" stroke="#1e3e62" stroke-width="2" d="M723.75,-243.9C756.43,-254.29 792.75,-265.85 825.61,-276.3"/>
<polygon fill="#1e3e62" stroke="#1e3e62" stroke-width="2" points="834.76,-279.21 823.86,-280.47 832.16,-278.91 825.07,-276.66 825.23,-276.18 825.38,-275.71 832.46,-277.96 826.59,-271.89 834.76,-279.21"/>
</g>
<!-- aphrodite::reflection&#45;&gt;aphrodite::api -->
<g id="edge54" class="edge">
<title>aphrodite::reflection&#45;&gt;aphrodite::api</title>
<path fill="none" stroke="#1e3e62" stroke-width="2" d="M652.4,-1161.79C680.57,-1125.4 723.44,-1066.96 753.5,-1012 824.75,-881.77 884.97,-716.35 912.43,-636.07"/>
<polygon fill="#1e3e62" stroke="#1e3e62" stroke-width="2" points="915.62,-626.7 916.66,-637.62 915.27,-629.29 912.87,-636.33 912.4,-636.17 911.93,-636.01 914.32,-628.97 908.14,-634.72 915.62,-626.7"/>
</g>
<!-- aphrodite::reflection&#45;&gt;aphrodite::common -->
<g id="edge53" class="edge">
<title>aphrodite::reflection&#45;&gt;aphrodite::common</title>
<path fill="none" stroke="#1e3e62" stroke-width="2" d="M737.43,-1197.52C977.98,-1195.67 1521.54,-1186.75 1593.5,-1144 1677.3,-1094.22 1725.2,-984.64 1746.93,-921.12"/>
<polygon fill="#1e3e62" stroke="#1e3e62" stroke-width="2" points="1750.04,-911.76 1751.16,-922.66 1749.7,-914.35 1747.36,-921.4 1746.89,-921.25 1746.41,-921.09 1748.75,-914.03 1742.61,-919.83 1750.04,-911.76"/>
</g>
<!-- aphrodite::reflection&#45;&gt;aphrodite::filesystem -->
<g id="edge52" class="edge">
<title>aphrodite::reflection&#45;&gt;aphrodite::filesystem</title>
<path fill="none" stroke="#1e3e62" stroke-width="2" d="M737.46,-1215.19C757.51,-1218.22 778.51,-1221.39 798.95,-1224.47"/>
<polygon fill="#1e3e62" stroke="#1e3e62" stroke-width="2" points="808.84,-1225.96 798.28,-1228.92 806.23,-1226.08 798.88,-1224.97 798.95,-1224.47 799.03,-1223.98 806.38,-1225.09 799.62,-1220.02 808.84,-1225.96"/>
</g>
<!-- aphrodite::reflection&#45;&gt;aphrodite::global -->
<g id="edge55" class="edge">
<title>aphrodite::reflection&#45;&gt;aphrodite::global</title>
<path fill="none" stroke="#1e3e62" stroke-width="2" d="M690.41,-1161.57C737.68,-1135.83 801.18,-1101.25 850.7,-1074.29"/>
<polygon fill="#1e3e62" stroke="#1e3e62" stroke-width="2" points="859.22,-1069.65 852.59,-1078.39 857.21,-1071.32 850.68,-1074.87 850.44,-1074.43 850.2,-1074 856.73,-1070.44 848.29,-1070.48 859.22,-1069.65"/>
</g>
<!-- aphrodite::rendergraph&#45;&gt;aphrodite::api -->
<g id="edge57" class="edge">
<title>aphrodite::rendergraph&#45;&gt;aphrodite::api</title>
<path fill="none" stroke="#1e3e62" stroke-width="2" d="M753.68,-561.64C781.48,-565.84 810.3,-570.18 836.31,-574.11"/>
<polygon fill="#1e3e62" stroke="#1e3e62" stroke-width="2" points="846.04,-575.58 835.48,-578.53 843.43,-575.69 836.07,-574.58 836.15,-574.08 836.22,-573.59 843.58,-574.7 836.82,-569.63 846.04,-575.58"/>
</g>
<!-- aphrodite::rendergraph&#45;&gt;aphrodite::common -->
<g id="edge56" class="edge">
<title>aphrodite::rendergraph&#45;&gt;aphrodite::common</title>
<path fill="none" stroke="#1e3e62" stroke-width="2" d="M753.87,-514.03C850.38,-494.8 985.34,-471.01 1105.25,-461 1198.04,-453.25 1221.8,-455.52 1314.75,-461 1439.29,-468.35 1493.14,-419.9 1593.5,-494 1702.55,-574.51 1741.94,-741.75 1755.15,-824.49"/>
<polygon fill="#1e3e62" stroke="#1e3e62" stroke-width="2" points="1756.65,-834.37 1750.7,-825.16 1755.77,-831.91 1754.65,-824.56 1755.14,-824.48 1755.64,-824.41 1756.76,-831.76 1759.59,-823.8 1756.65,-834.37"/>
</g>
<!-- aphrodite::geometry&#45;&gt;aphrodite::api -->
<g id="edge60" class="edge">
<title>aphrodite::geometry&#45;&gt;aphrodite::api</title>
<path fill="none" stroke="#1e3e62" stroke-width="2" d="M729.46,-927.52C738.07,-922.36 746.24,-916.54 753.5,-910 838.71,-833.21 890.64,-704.84 913.9,-635.65"/>
<polygon fill="#1e3e62" stroke="#1e3e62" stroke-width="2" points="916.89,-626.57 918.04,-637.48 916.56,-629.17 914.24,-636.23 913.76,-636.07 913.29,-635.92 915.61,-628.85 909.49,-634.67 916.89,-626.57"/>
</g>
<!-- aphrodite::geometry&#45;&gt;aphrodite::common -->
<g id="edge59" class="edge">
<title>aphrodite::geometry&#45;&gt;aphrodite::common</title>
<path fill="none" stroke="#1e3e62" stroke-width="2" d="M738.33,-962.8C920.51,-959.58 1286.56,-947.7 1593.5,-904 1608.31,-901.89 1623.8,-899.41 1639.13,-896.78"/>
<polygon fill="#1e3e62" stroke="#1e3e62" stroke-width="2" points="1648.98,-895.07 1639.9,-901.22 1646.54,-896 1639.21,-897.28 1639.13,-896.78 1639.04,-896.29 1646.37,-895.01 1638.35,-892.35 1648.98,-895.07"/>
</g>
<!-- aphrodite::geometry&#45;&gt;aphrodite::filesystem -->
<g id="edge58" class="edge">
<title>aphrodite::geometry&#45;&gt;aphrodite::filesystem</title>
<path fill="none" stroke="#1e3e62" stroke-width="2" d="M663.04,-1000.32C718.67,-1051.41 819.94,-1144.41 879.99,-1199.56"/>
<polygon fill="#1e3e62" stroke="#1e3e62" stroke-width="2" points="887.11,-1206.1 876.7,-1202.65 884.88,-1204.73 879.4,-1199.7 879.74,-1199.33 880.08,-1198.97 885.56,-1204 882.78,-1196.02 887.11,-1206.1"/>
</g>
<!-- aphrodite::geometry&#45;&gt;aphrodite::math -->
<g id="edge61" class="edge">
<title>aphrodite::geometry&#45;&gt;aphrodite::math</title>
<path fill="none" stroke="#1e3e62" stroke-width="2" d="M655.06,-927.69C684.6,-891.91 727.91,-834.53 753.5,-778 798.21,-679.21 773.98,-642.74 811.5,-541 836.08,-474.35 874.66,-401.89 900.7,-356"/>
<polygon fill="#1e3e62" stroke="#1e3e62" stroke-width="2" points="905.67,-347.32 904.61,-358.24 904.83,-349.8 901.14,-356.25 900.7,-356 900.27,-355.75 903.96,-349.3 896.8,-353.77 905.67,-347.32"/>
</g>
</g>
</svg>
