<?xml version="1.0" encoding="UTF-8" standalone="no"?>
<!DOCTYPE svg PUBLIC "-//W3C//DTD SVG 1.1//EN"
 "http://www.w3.org/Graphics/SVG/1.1/DTD/svg11.dtd">
<!-- Generated by graphviz version 12.2.1 (20241206.2353)
 -->
<!-- Title: CMakeDependencyGraph Pages: 1 -->
<svg width="590pt" height="448pt"
 viewBox="7.20 7.20 583.20 441.20" xmlns="http://www.w3.org/2000/svg" xmlns:xlink="http://www.w3.org/1999/xlink">
<g id="graph0" class="graph" transform="scale(0.296144 0.296144) rotate(0) translate(60.31 1453.81)">
<title>CMakeDependencyGraph</title>
<g id="clust1" class="cluster">
<title>cluster_legend</title>
<polygon fill="none" stroke="none" stroke-width="0" points="10.75,-8 10.75,-130 358.75,-130 358.75,-8 10.75,-8"/>
</g>
<!-- legend_anchor -->
<!-- top_anchor -->
<!-- key -->
<g id="node3" class="node">
<title>key</title>
<polygon fill="lightgrey" stroke="none" stroke-width="1.5" points="143.25,-130.12 10.75,-130.12 10.75,-7.88 143.25,-7.88 143.25,-130.12"/>
<polygon fill="none" stroke="none" points="10.75,-7.88 10.75,-130.12 143.25,-130.12 143.25,-7.88 10.75,-7.88"/>
<polygon fill="none" stroke="black" points="10.75,-89.38 10.75,-130.12 39.5,-130.12 39.5,-89.38 10.75,-89.38"/>
<text text-anchor="start" x="15.75" y="-101.97" font-family="Helvetica,Arial,sans-serif" font-size="22.00" fill="#ff6500">➔</text>
<polygon fill="none" stroke="black" points="39.5,-89.38 39.5,-130.12 143.25,-130.12 143.25,-89.38 39.5,-89.38"/>
<text text-anchor="start" x="59.88" y="-104.22" font-family="Helvetica,Arial,sans-serif" font-size="22.00" fill="#222831">Public</text>
<polygon fill="none" stroke="black" points="10.75,-48.62 10.75,-89.38 39.5,-89.38 39.5,-48.62 10.75,-48.62"/>
<text text-anchor="start" x="15.75" y="-61.23" font-family="Helvetica,Arial,sans-serif" font-size="22.00" fill="#1e3e62">➔</text>
<polygon fill="none" stroke="black" points="39.5,-48.62 39.5,-89.38 143.25,-89.38 143.25,-48.62 39.5,-48.62"/>
<text text-anchor="start" x="55" y="-63.48" font-family="Helvetica,Arial,sans-serif" font-size="22.00" fill="#222831">Private</text>
<polygon fill="none" stroke="black" points="10.75,-7.88 10.75,-48.62 39.5,-48.62 39.5,-7.88 10.75,-7.88"/>
<text text-anchor="start" x="15.75" y="-20.48" font-family="Helvetica,Arial,sans-serif" font-size="22.00" fill="#1f7d53">➔</text>
<polygon fill="none" stroke="black" points="39.5,-7.88 39.5,-48.62 143.25,-48.62 143.25,-7.88 39.5,-7.88"/>
<text text-anchor="start" x="44.5" y="-22.73" font-family="Helvetica,Arial,sans-serif" font-size="22.00" fill="#222831">Interface</text>
</g>
<!-- key&#45;&gt;legend_anchor -->
<!-- aphrodite::all -->
<g id="node4" class="node">
<title>aphrodite::all</title>
<path fill="#f1efec" stroke="black" stroke-width="1.5" d="M12,-697C12,-697 142,-697 142,-697 148,-697 154,-703 154,-709 154,-709 154,-757 154,-757 154,-763 148,-769 142,-769 142,-769 12,-769 12,-769 6,-769 0,-763 0,-757 0,-757 0,-709 0,-709 0,-703 6,-697 12,-697"/>
<text text-anchor="middle" x="77" y="-727.6" font-family="Helvetica,Arial,sans-serif" font-size="22.00" fill="#222831">aphrodite::all</text>
</g>
<!-- aphrodite::allocator -->
<g id="node5" class="node">
<title>aphrodite::allocator</title>
<path fill="#d4c9be" stroke="black" stroke-width="1.5" d="M1384.75,-875C1384.75,-875 1581.5,-875 1581.5,-875 1587.5,-875 1593.5,-881 1593.5,-887 1593.5,-887 1593.5,-935 1593.5,-935 1593.5,-941 1587.5,-947 1581.5,-947 1581.5,-947 1384.75,-947 1384.75,-947 1378.75,-947 1372.75,-941 1372.75,-935 1372.75,-935 1372.75,-887 1372.75,-887 1372.75,-881 1378.75,-875 1384.75,-875"/>
<text text-anchor="middle" x="1483.12" y="-905.6" font-family="Helvetica,Arial,sans-serif" font-size="22.00" fill="#222831">aphrodite::allocator</text>
</g>
<!-- aphrodite::all&#45;&gt;aphrodite::allocator -->
<g id="edge3" class="edge">
<title>aphrodite::all&#45;&gt;aphrodite::allocator</title>
<path fill="none" stroke="#ff6500" stroke-width="2" d="M92.75,-769.35C112.89,-814.32 153.34,-889.95 212,-931 316.92,-1004.43 364.56,-984.14 491.5,-1001 854.21,-1049.18 972.88,-1135.39 1314.75,-1005 1346.82,-992.77 1343.45,-971.88 1372.75,-954 1373.1,-953.79 1373.45,-953.57 1373.81,-953.36"/>
<polygon fill="#ff6500" stroke="#ff6500" stroke-width="2" points="1382.24,-948.59 1375.75,-957.43 1380.26,-950.29 1373.78,-953.95 1373.54,-953.51 1373.29,-953.08 1379.76,-949.42 1371.32,-949.6 1382.24,-948.59"/>
</g>
<!-- aphrodite::api -->
<g id="node6" class="node">
<title>aphrodite::api</title>
<path fill="#d4c9be" stroke="black" stroke-width="1.5" d="M860.62,-756C860.62,-756 998.12,-756 998.12,-756 1004.12,-756 1010.12,-762 1010.12,-768 1010.12,-768 1010.12,-816 1010.12,-816 1010.12,-822 1004.12,-828 998.12,-828 998.12,-828 860.62,-828 860.62,-828 854.62,-828 848.62,-822 848.62,-816 848.62,-816 848.62,-768 848.62,-768 848.62,-762 854.62,-756 860.62,-756"/>
<text text-anchor="middle" x="929.38" y="-786.6" font-family="Helvetica,Arial,sans-serif" font-size="22.00" fill="#222831">aphrodite::api</text>
</g>
<!-- aphrodite::all&#45;&gt;aphrodite::api -->
<g id="edge15" class="edge">
<title>aphrodite::all&#45;&gt;aphrodite::api</title>
<path fill="none" stroke="#ff6500" stroke-width="2" d="M154.4,-765.23C172.93,-771.68 192.91,-777.53 212,-781 433.11,-821.16 698.94,-810.11 836.23,-800.13"/>
<polygon fill="#ff6500" stroke="#ff6500" stroke-width="2" points="845.88,-799.42 836.24,-804.65 843.36,-800.11 835.94,-800.66 835.91,-800.16 835.87,-799.66 843.29,-799.11 835.57,-795.67 845.88,-799.42"/>
</g>
<!-- aphrodite::cli -->
<g id="node7" class="node">
<title>aphrodite::cli</title>
<path fill="#d4c9be" stroke="black" stroke-width="1.5" d="M258.5,-1321C258.5,-1321 387,-1321 387,-1321 393,-1321 399,-1327 399,-1333 399,-1333 399,-1381 399,-1381 399,-1387 393,-1393 387,-1393 387,-1393 258.5,-1393 258.5,-1393 252.5,-1393 246.5,-1387 246.5,-1381 246.5,-1381 246.5,-1333 246.5,-1333 246.5,-1327 252.5,-1321 258.5,-1321"/>
<text text-anchor="middle" x="322.75" y="-1351.6" font-family="Helvetica,Arial,sans-serif" font-size="22.00" fill="#222831">aphrodite::cli</text>
</g>
<!-- aphrodite::all&#45;&gt;aphrodite::cli -->
<g id="edge9" class="edge">
<title>aphrodite::all&#45;&gt;aphrodite::cli</title>
<path fill="none" stroke="#ff6500" stroke-width="2" d="M82.12,-769.26C95.61,-882.35 141.68,-1226.03 212,-1310 218.55,-1317.82 226.64,-1324.38 235.44,-1329.86"/>
<polygon fill="#ff6500" stroke="#ff6500" stroke-width="2" points="243.91,-1334.62 232.99,-1333.64 241.44,-1333.8 234.95,-1330.16 235.2,-1329.72 235.44,-1329.29 241.93,-1332.93 237.4,-1325.8 243.91,-1334.62"/>
</g>
<!-- aphrodite::event -->
<g id="node9" class="node">
<title>aphrodite::event</title>
<path fill="#d4c9be" stroke="black" stroke-width="1.5" d="M240.88,-1226C240.88,-1226 404.62,-1226 404.62,-1226 410.62,-1226 416.62,-1232 416.62,-1238 416.62,-1238 416.62,-1286 416.62,-1286 416.62,-1292 410.62,-1298 404.62,-1298 404.62,-1298 240.88,-1298 240.88,-1298 234.88,-1298 228.88,-1292 228.88,-1286 228.88,-1286 228.88,-1238 228.88,-1238 228.88,-1232 234.88,-1226 240.88,-1226"/>
<text text-anchor="middle" x="322.75" y="-1256.6" font-family="Helvetica,Arial,sans-serif" font-size="22.00" fill="#222831">aphrodite::event</text>
</g>
<!-- aphrodite::all&#45;&gt;aphrodite::event -->
<g id="edge11" class="edge">
<title>aphrodite::all&#45;&gt;aphrodite::event</title>
<path fill="none" stroke="#ff6500" stroke-width="2" d="M78.58,-769.41C81.8,-855.6 101.12,-1074.82 212,-1208 214.92,-1211.51 218.13,-1214.81 221.55,-1217.92"/>
<polygon fill="#ff6500" stroke="#ff6500" stroke-width="2" points="229.18,-1224.14 218.59,-1221.31 226.88,-1222.91 221.11,-1218.21 221.43,-1217.82 221.75,-1217.43 227.51,-1222.13 224.27,-1214.33 229.18,-1224.14"/>
</g>
<!-- aphrodite::filesystem -->
<g id="node10" class="node">
<title>aphrodite::filesystem</title>
<path fill="#d4c9be" stroke="black" stroke-width="1.5" d="M823.5,-1109C823.5,-1109 1035.25,-1109 1035.25,-1109 1041.25,-1109 1047.25,-1115 1047.25,-1121 1047.25,-1121 1047.25,-1169 1047.25,-1169 1047.25,-1175 1041.25,-1181 1035.25,-1181 1035.25,-1181 823.5,-1181 823.5,-1181 817.5,-1181 811.5,-1175 811.5,-1169 811.5,-1169 811.5,-1121 811.5,-1121 811.5,-1115 817.5,-1109 823.5,-1109"/>
<text text-anchor="middle" x="929.38" y="-1139.6" font-family="Helvetica,Arial,sans-serif" font-size="22.00" fill="#222831">aphrodite::filesystem</text>
</g>
<!-- aphrodite::all&#45;&gt;aphrodite::filesystem -->
<g id="edge5" class="edge">
<title>aphrodite::all&#45;&gt;aphrodite::filesystem</title>
<path fill="none" stroke="#ff6500" stroke-width="2" d="M79.18,-769.5C83.76,-846.56 105.91,-1026.22 212,-1117 374.5,-1256.04 641.59,-1221.05 799.66,-1183.01"/>
<polygon fill="#ff6500" stroke="#ff6500" stroke-width="2" points="808.95,-1180.73 800.31,-1187.48 806.58,-1181.82 799.36,-1183.59 799.24,-1183.11 799.12,-1182.62 806.34,-1180.85 798.17,-1178.74 808.95,-1180.73"/>
</g>
<!-- aphrodite::math -->
<g id="node11" class="node">
<title>aphrodite::math</title>
<path fill="#d4c9be" stroke="black" stroke-width="1.5" d="M542.5,-386C542.5,-386 702.5,-386 702.5,-386 708.5,-386 714.5,-392 714.5,-398 714.5,-398 714.5,-446 714.5,-446 714.5,-452 708.5,-458 702.5,-458 702.5,-458 542.5,-458 542.5,-458 536.5,-458 530.5,-452 530.5,-446 530.5,-446 530.5,-398 530.5,-398 530.5,-392 536.5,-386 542.5,-386"/>
<text text-anchor="middle" x="622.5" y="-416.6" font-family="Helvetica,Arial,sans-serif" font-size="22.00" fill="#222831">aphrodite::math</text>
</g>
<!-- aphrodite::all&#45;&gt;aphrodite::math -->
<g id="edge2" class="edge">
<title>aphrodite::all&#45;&gt;aphrodite::math</title>
<path fill="none" stroke="#ff6500" stroke-width="2" d="M84.63,-696.68C97.58,-637.24 132.25,-520.25 212,-465 259.97,-431.76 413.35,-423.43 518.15,-421.76"/>
<polygon fill="#ff6500" stroke="#ff6500" stroke-width="2" points="527.92,-421.62 517.98,-426.26 525.36,-422.16 517.93,-422.26 517.92,-421.76 517.91,-421.26 525.35,-421.16 517.86,-417.26 527.92,-421.62"/>
</g>
<!-- aphrodite::module -->
<g id="node12" class="node">
<title>aphrodite::module</title>
<path fill="#d4c9be" stroke="black" stroke-width="1.5" d="M1117.25,-921C1117.25,-921 1302.75,-921 1302.75,-921 1308.75,-921 1314.75,-927 1314.75,-933 1314.75,-933 1314.75,-981 1314.75,-981 1314.75,-987 1308.75,-993 1302.75,-993 1302.75,-993 1117.25,-993 1117.25,-993 1111.25,-993 1105.25,-987 1105.25,-981 1105.25,-981 1105.25,-933 1105.25,-933 1105.25,-927 1111.25,-921 1117.25,-921"/>
<text text-anchor="middle" x="1210" y="-951.6" font-family="Helvetica,Arial,sans-serif" font-size="22.00" fill="#222831">aphrodite::module</text>
</g>
<!-- aphrodite::all&#45;&gt;aphrodite::module -->
<g id="edge7" class="edge">
<title>aphrodite::all&#45;&gt;aphrodite::module</title>
<path fill="none" stroke="#ff6500" stroke-width="2" d="M102.88,-769.27C126.99,-801.55 166.51,-847.49 212,-873 495.3,-1031.87 896.67,-1003.47 1092.47,-976.61"/>
<polygon fill="#ff6500" stroke="#ff6500" stroke-width="2" points="1102.37,-975.23 1093.09,-981.07 1099.9,-976.08 1092.53,-977.11 1092.47,-976.61 1092.4,-976.12 1099.76,-975.09 1091.84,-972.16 1102.37,-975.23"/>
</g>
<!-- aphrodite::rendergraph -->
<g id="node13" class="node">
<title>aphrodite::rendergraph</title>
<path fill="#d4c9be" stroke="black" stroke-width="1.5" d="M503.5,-1084C503.5,-1084 741.5,-1084 741.5,-1084 747.5,-1084 753.5,-1090 753.5,-1096 753.5,-1096 753.5,-1144 753.5,-1144 753.5,-1150 747.5,-1156 741.5,-1156 741.5,-1156 503.5,-1156 503.5,-1156 497.5,-1156 491.5,-1150 491.5,-1144 491.5,-1144 491.5,-1096 491.5,-1096 491.5,-1090 497.5,-1084 503.5,-1084"/>
<text text-anchor="middle" x="622.5" y="-1114.6" font-family="Helvetica,Arial,sans-serif" font-size="22.00" fill="#222831">aphrodite::rendergraph</text>
</g>
<!-- aphrodite::all&#45;&gt;aphrodite::rendergraph -->
<g id="edge17" class="edge">
<title>aphrodite::all&#45;&gt;aphrodite::rendergraph</title>
<path fill="none" stroke="#ff6500" stroke-width="2" d="M80.99,-769.37C88.84,-839.27 116.59,-992 212,-1066 286.74,-1123.97 393.18,-1136.54 478.81,-1135.1"/>
<polygon fill="#ff6500" stroke="#ff6500" stroke-width="2" points="488.58,-1134.86 478.69,-1139.6 486.03,-1135.42 478.59,-1135.6 478.58,-1135.11 478.57,-1134.61 486,-1134.42 478.47,-1130.61 488.58,-1134.86"/>
</g>
<!-- aphrodite::resource -->
<g id="node14" class="node">
<title>aphrodite::resource</title>
<path fill="#d4c9be" stroke="black" stroke-width="1.5" d="M224,-697C224,-697 421.5,-697 421.5,-697 427.5,-697 433.5,-703 433.5,-709 433.5,-709 433.5,-757 433.5,-757 433.5,-763 427.5,-769 421.5,-769 421.5,-769 224,-769 224,-769 218,-769 212,-763 212,-757 212,-757 212,-709 212,-709 212,-703 218,-697 224,-697"/>
<text text-anchor="middle" x="322.75" y="-727.6" font-family="Helvetica,Arial,sans-serif" font-size="22.00" fill="#222831">aphrodite::resource</text>
</g>
<!-- aphrodite::all&#45;&gt;aphrodite::resource -->
<g id="edge13" class="edge">
<title>aphrodite::all&#45;&gt;aphrodite::resource</title>
<path fill="none" stroke="#ff6500" stroke-width="2" d="M154.46,-733C168.78,-733 184.08,-733 199.38,-733"/>
<polygon fill="#ff6500" stroke="#ff6500" stroke-width="2" points="209.21,-733 199.21,-737.5 206.64,-733.5 199.21,-733.5 199.21,-733 199.21,-732.5 206.64,-732.5 199.21,-728.5 209.21,-733"/>
</g>
<!-- aphrodite::scene -->
<g id="node15" class="node">
<title>aphrodite::scene</title>
<path fill="#d4c9be" stroke="black" stroke-width="1.5" d="M239.75,-177C239.75,-177 405.75,-177 405.75,-177 411.75,-177 417.75,-183 417.75,-189 417.75,-189 417.75,-237 417.75,-237 417.75,-243 411.75,-249 405.75,-249 405.75,-249 239.75,-249 239.75,-249 233.75,-249 227.75,-243 227.75,-237 227.75,-237 227.75,-189 227.75,-189 227.75,-183 233.75,-177 239.75,-177"/>
<text text-anchor="middle" x="322.75" y="-207.6" font-family="Helvetica,Arial,sans-serif" font-size="22.00" fill="#222831">aphrodite::scene</text>
</g>
<!-- aphrodite::all&#45;&gt;aphrodite::scene -->
<g id="edge18" class="edge">
<title>aphrodite::all&#45;&gt;aphrodite::scene</title>
<path fill="none" stroke="#ff6500" stroke-width="2" d="M88.36,-696.62C119.49,-587.31 210.21,-269.14 212,-267 214.93,-263.5 218.15,-260.2 221.58,-257.1"/>
<polygon fill="#ff6500" stroke="#ff6500" stroke-width="2" points="229.21,-250.89 224.29,-260.69 227.54,-252.89 221.77,-257.59 221.46,-257.2 221.14,-256.81 226.91,-252.12 218.62,-253.71 229.21,-250.89"/>
</g>
<!-- aphrodite::threads -->
<g id="node16" class="node">
<title>aphrodite::threads</title>
<path fill="#d4c9be" stroke="black" stroke-width="1.5" d="M1117.25,-733C1117.25,-733 1302.75,-733 1302.75,-733 1308.75,-733 1314.75,-739 1314.75,-745 1314.75,-745 1314.75,-793 1314.75,-793 1314.75,-799 1308.75,-805 1302.75,-805 1302.75,-805 1117.25,-805 1117.25,-805 1111.25,-805 1105.25,-799 1105.25,-793 1105.25,-793 1105.25,-745 1105.25,-745 1105.25,-739 1111.25,-733 1117.25,-733"/>
<text text-anchor="middle" x="1210" y="-763.6" font-family="Helvetica,Arial,sans-serif" font-size="22.00" fill="#222831">aphrodite::threads</text>
</g>
<!-- aphrodite::all&#45;&gt;aphrodite::threads -->
<g id="edge4" class="edge">
<title>aphrodite::all&#45;&gt;aphrodite::threads</title>
<path fill="none" stroke="#ff6500" stroke-width="2" d="M154.41,-701.23C172.94,-694.92 192.92,-689.25 212,-686 309.05,-669.47 335.17,-681.28 433.5,-686 707.22,-699.13 775.24,-711.77 1047.25,-745 1062.04,-746.81 1077.56,-748.88 1092.89,-751.04"/>
<polygon fill="#ff6500" stroke="#ff6500" stroke-width="2" points="1102.72,-752.44 1092.18,-755.48 1100.11,-752.57 1092.74,-751.52 1092.82,-751.03 1092.89,-750.53 1100.25,-751.58 1093.45,-746.57 1102.72,-752.44"/>
</g>
<!-- aphrodite::ui -->
<g id="node17" class="node">
<title>aphrodite::ui</title>
<path fill="#d4c9be" stroke="black" stroke-width="1.5" d="M260,-476C260,-476 385.5,-476 385.5,-476 391.5,-476 397.5,-482 397.5,-488 397.5,-488 397.5,-536 397.5,-536 397.5,-542 391.5,-548 385.5,-548 385.5,-548 260,-548 260,-548 254,-548 248,-542 248,-536 248,-536 248,-488 248,-488 248,-482 254,-476 260,-476"/>
<text text-anchor="middle" x="322.75" y="-506.6" font-family="Helvetica,Arial,sans-serif" font-size="22.00" fill="#222831">aphrodite::ui</text>
</g>
<!-- aphrodite::all&#45;&gt;aphrodite::ui -->
<g id="edge8" class="edge">
<title>aphrodite::all&#45;&gt;aphrodite::ui</title>
<path fill="none" stroke="#ff6500" stroke-width="2" d="M100.81,-696.8C124.97,-660.65 165.96,-605.25 212,-568 219.77,-561.71 228.36,-555.86 237.21,-550.48"/>
<polygon fill="#ff6500" stroke="#ff6500" stroke-width="2" points="245.58,-545.62 239.19,-554.54 243.61,-547.34 237.18,-551.08 236.93,-550.64 236.68,-550.21 243.11,-546.48 234.67,-546.75 245.58,-545.62"/>
</g>
<!-- aphrodite::wsi -->
<g id="node18" class="node">
<title>aphrodite::wsi</title>
<path fill="#d4c9be" stroke="black" stroke-width="1.5" d="M1140.12,-638C1140.12,-638 1279.88,-638 1279.88,-638 1285.88,-638 1291.88,-644 1291.88,-650 1291.88,-650 1291.88,-698 1291.88,-698 1291.88,-704 1285.88,-710 1279.88,-710 1279.88,-710 1140.12,-710 1140.12,-710 1134.12,-710 1128.12,-704 1128.12,-698 1128.12,-698 1128.12,-650 1128.12,-650 1128.12,-644 1134.12,-638 1140.12,-638"/>
<text text-anchor="middle" x="1210" y="-668.6" font-family="Helvetica,Arial,sans-serif" font-size="22.00" fill="#222831">aphrodite::wsi</text>
</g>
<!-- aphrodite::all&#45;&gt;aphrodite::wsi -->
<g id="edge12" class="edge">
<title>aphrodite::all&#45;&gt;aphrodite::wsi</title>
<path fill="none" stroke="#ff6500" stroke-width="2" d="M88.25,-696.75C116.74,-596.63 195.79,-322.86 212,-311 291.45,-252.87 335.14,-306.86 433.5,-311 576.1,-317.01 617.83,-293.68 753.5,-338 898.83,-385.47 926.37,-423.4 1047.25,-517 1091.23,-551.06 1136.24,-595.69 1167.57,-628.66"/>
<polygon fill="#ff6500" stroke="#ff6500" stroke-width="2" points="1174.36,-635.86 1164.23,-631.68 1172.24,-634.34 1167.14,-628.93 1167.5,-628.59 1167.86,-628.24 1172.97,-633.65 1170.77,-625.5 1174.36,-635.86"/>
</g>
<!-- aphrodite::app -->
<g id="node19" class="node">
<title>aphrodite::app</title>
<path fill="#d4c9be" stroke="black" stroke-width="1.5" d="M550,-106C550,-106 695,-106 695,-106 701,-106 707,-112 707,-118 707,-118 707,-166 707,-166 707,-172 701,-178 695,-178 695,-178 550,-178 550,-178 544,-178 538,-172 538,-166 538,-166 538,-118 538,-118 538,-112 544,-106 550,-106"/>
<text text-anchor="middle" x="622.5" y="-136.6" font-family="Helvetica,Arial,sans-serif" font-size="22.00" fill="#222831">aphrodite::app</text>
</g>
<!-- aphrodite::all&#45;&gt;aphrodite::app -->
<g id="edge10" class="edge">
<title>aphrodite::all&#45;&gt;aphrodite::app</title>
<path fill="none" stroke="#ff6500" stroke-width="2" d="M89.31,-696.84C105.1,-645.6 134.04,-548.74 154,-465 185.38,-333.32 110.13,-255.14 212,-166 256.98,-126.64 419.03,-128.58 525.28,-134.58"/>
<polygon fill="#ff6500" stroke="#ff6500" stroke-width="2" points="535.2,-135.16 524.95,-139.07 532.61,-135.51 525.19,-135.07 525.22,-134.57 525.25,-134.07 532.67,-134.51 525.48,-130.08 535.2,-135.16"/>
</g>
<!-- aphrodite::global -->
<g id="node20" class="node">
<title>aphrodite::global</title>
<path fill="#d4c9be" stroke="black" stroke-width="1.5" d="M844.12,-528C844.12,-528 1014.62,-528 1014.62,-528 1020.62,-528 1026.62,-534 1026.62,-540 1026.62,-540 1026.62,-588 1026.62,-588 1026.62,-594 1020.62,-600 1014.62,-600 1014.62,-600 844.12,-600 844.12,-600 838.12,-600 832.12,-594 832.12,-588 832.12,-588 832.12,-540 832.12,-540 832.12,-534 838.12,-528 844.12,-528"/>
<text text-anchor="middle" x="929.38" y="-558.6" font-family="Helvetica,Arial,sans-serif" font-size="22.00" fill="#222831">aphrodite::global</text>
</g>
<!-- aphrodite::all&#45;&gt;aphrodite::global -->
<g id="edge6" class="edge">
<title>aphrodite::all&#45;&gt;aphrodite::global</title>
<path fill="none" stroke="#ff6500" stroke-width="2" d="M107.01,-696.57C131.65,-668.58 169.69,-631.78 212,-614 318.57,-569.2 646.69,-563.07 819.43,-563.09"/>
<polygon fill="#ff6500" stroke="#ff6500" stroke-width="2" points="829.42,-563.1 819.41,-567.59 826.85,-563.6 819.41,-563.59 819.42,-563.09 819.42,-562.59 826.85,-562.6 819.42,-558.59 829.42,-563.1"/>
</g>
<!-- aphrodite::engine -->
<g id="node21" class="node">
<title>aphrodite::engine</title>
<path fill="#d4c9be" stroke="black" stroke-width="1.5" d="M233.75,-322C233.75,-322 411.75,-322 411.75,-322 417.75,-322 423.75,-328 423.75,-334 423.75,-334 423.75,-382 423.75,-382 423.75,-388 417.75,-394 411.75,-394 411.75,-394 233.75,-394 233.75,-394 227.75,-394 221.75,-388 221.75,-382 221.75,-382 221.75,-334 221.75,-334 221.75,-328 227.75,-322 233.75,-322"/>
<text text-anchor="middle" x="322.75" y="-352.6" font-family="Helvetica,Arial,sans-serif" font-size="22.00" fill="#222831">aphrodite::engine</text>
</g>
<!-- aphrodite::all&#45;&gt;aphrodite::engine -->
<g id="edge16" class="edge">
<title>aphrodite::all&#45;&gt;aphrodite::engine</title>
<path fill="none" stroke="#ff6500" stroke-width="2" d="M85.53,-696.5C100.14,-633.47 137.65,-502.99 212,-420 218.04,-413.26 225,-407.07 232.41,-401.45"/>
<polygon fill="#ff6500" stroke="#ff6500" stroke-width="2" points="240.4,-395.78 234.85,-405.23 238.6,-397.67 232.53,-401.97 232.24,-401.56 231.96,-401.16 238.02,-396.85 229.64,-397.89 240.4,-395.78"/>
</g>
<!-- aphrodite::reflection -->
<g id="node22" class="node">
<title>aphrodite::reflection</title>
<path fill="#d4c9be" stroke="black" stroke-width="1.5" d="M519.62,-850C519.62,-850 725.38,-850 725.38,-850 731.38,-850 737.38,-856 737.38,-862 737.38,-862 737.38,-910 737.38,-910 737.38,-916 731.38,-922 725.38,-922 725.38,-922 519.62,-922 519.62,-922 513.62,-922 507.62,-916 507.62,-910 507.62,-910 507.62,-862 507.62,-862 507.62,-856 513.62,-850 519.62,-850"/>
<text text-anchor="middle" x="622.5" y="-880.6" font-family="Helvetica,Arial,sans-serif" font-size="22.00" fill="#222831">aphrodite::reflection</text>
</g>
<!-- aphrodite::all&#45;&gt;aphrodite::reflection -->
<g id="edge14" class="edge">
<title>aphrodite::all&#45;&gt;aphrodite::reflection</title>
<path fill="none" stroke="#ff6500" stroke-width="2" d="M116.09,-769.38C141.29,-791.24 176.19,-817.54 212,-832 302.22,-868.42 411.84,-881.41 494.95,-885.56"/>
<polygon fill="#ff6500" stroke="#ff6500" stroke-width="2" points="504.84,-886.02 494.64,-890.06 502.25,-886.4 494.82,-886.06 494.85,-885.56 494.87,-885.06 502.3,-885.4 495.05,-881.06 504.84,-886.02"/>
</g>
<!-- aphrodite::common -->
<g id="node8" class="node">
<title>aphrodite::common</title>
<path fill="#d4c9be" stroke="black" stroke-width="1.5" d="M1663.5,-733C1663.5,-733 1861,-733 1861,-733 1867,-733 1873,-739 1873,-745 1873,-745 1873,-793 1873,-793 1873,-799 1867,-805 1861,-805 1861,-805 1663.5,-805 1663.5,-805 1657.5,-805 1651.5,-799 1651.5,-793 1651.5,-793 1651.5,-745 1651.5,-745 1651.5,-739 1657.5,-733 1663.5,-733"/>
<text text-anchor="middle" x="1762.25" y="-763.6" font-family="Helvetica,Arial,sans-serif" font-size="22.00" fill="#222831">aphrodite::common</text>
</g>
<!-- aphrodite::allocator&#45;&gt;aphrodite::common -->
<g id="edge19" class="edge">
<title>aphrodite::allocator&#45;&gt;aphrodite::common</title>
<path fill="none" stroke="#1e3e62" stroke-width="2" d="M1558.38,-874.65C1570.15,-868.79 1582.18,-862.76 1593.5,-857 1622.48,-842.25 1654.1,-825.76 1681.99,-811.09"/>
<polygon fill="#1e3e62" stroke="#1e3e62" stroke-width="2" points="1690.73,-806.48 1683.98,-815.12 1688.7,-808.12 1682.12,-811.59 1681.89,-811.14 1681.65,-810.7 1688.23,-807.23 1679.79,-807.16 1690.73,-806.48"/>
</g>
<!-- aphrodite::api&#45;&gt;aphrodite::allocator -->
<g id="edge22" class="edge">
<title>aphrodite::api&#45;&gt;aphrodite::allocator</title>
<path fill="none" stroke="#1e3e62" stroke-width="2" d="M1010.2,-825.76C1039.64,-837.12 1073.55,-848.94 1105.25,-857 1189.14,-878.34 1285.83,-891.98 1360.26,-900.21"/>
<polygon fill="#1e3e62" stroke="#1e3e62" stroke-width="2" points="1370.06,-901.27 1359.63,-904.67 1367.46,-901.49 1360.06,-900.69 1360.12,-900.19 1360.17,-899.7 1367.57,-900.5 1360.6,-895.72 1370.06,-901.27"/>
</g>
<!-- aphrodite::api&#45;&gt;aphrodite::common -->
<g id="edge20" class="edge">
<title>aphrodite::api&#45;&gt;aphrodite::common</title>
<path fill="none" stroke="#1e3e62" stroke-width="2" d="M1010.21,-805.85C1039.95,-810.36 1074.05,-814.78 1105.25,-817 1291.51,-830.25 1507.47,-806.99 1639.2,-788.45"/>
<polygon fill="#1e3e62" stroke="#1e3e62" stroke-width="2" points="1648.87,-787.08 1639.61,-792.94 1646.4,-787.93 1639.04,-788.98 1638.97,-788.48 1638.9,-787.99 1646.26,-786.94 1638.34,-784.03 1648.87,-787.08"/>
</g>
<!-- aphrodite::api&#45;&gt;aphrodite::module -->
<g id="edge24" class="edge">
<title>aphrodite::api&#45;&gt;aphrodite::module</title>
<path fill="none" stroke="#1e3e62" stroke-width="2" d="M985.16,-828.47C1019.26,-850.75 1064.28,-879.39 1105.25,-903 1112.03,-906.9 1119.11,-910.86 1126.26,-914.75"/>
<polygon fill="#1e3e62" stroke="#1e3e62" stroke-width="2" points="1134.98,-919.46 1124.04,-918.67 1132.49,-918.68 1125.94,-915.15 1126.18,-914.71 1126.42,-914.27 1132.96,-917.8 1128.32,-910.75 1134.98,-919.46"/>
</g>
<!-- aphrodite::api&#45;&gt;aphrodite::threads -->
<g id="edge23" class="edge">
<title>aphrodite::api&#45;&gt;aphrodite::threads</title>
<path fill="none" stroke="#1e3e62" stroke-width="2" d="M1010.59,-785.38C1036.22,-783.26 1065.12,-780.88 1092.78,-778.59"/>
<polygon fill="#1e3e62" stroke="#1e3e62" stroke-width="2" points="1102.53,-777.79 1092.93,-783.1 1100.01,-778.5 1092.6,-779.11 1092.56,-778.61 1092.52,-778.11 1099.93,-777.5 1092.19,-774.13 1102.53,-777.79"/>
</g>
<!-- aphrodite::api&#45;&gt;aphrodite::wsi -->
<g id="edge21" class="edge">
<title>aphrodite::api&#45;&gt;aphrodite::wsi</title>
<path fill="none" stroke="#1e3e62" stroke-width="2" d="M999.25,-755.6C1034.67,-739.48 1078.34,-720.79 1116.64,-705.3"/>
<polygon fill="#1e3e62" stroke="#1e3e62" stroke-width="2" points="1125.55,-701.72 1117.95,-709.62 1123.36,-703.14 1116.46,-705.91 1116.27,-705.44 1116.09,-704.98 1122.99,-702.21 1114.59,-701.27 1125.55,-701.72"/>
</g>
<!-- aphrodite::cli&#45;&gt;aphrodite::common -->
<g id="edge25" class="edge">
<title>aphrodite::cli&#45;&gt;aphrodite::common</title>
<path fill="none" stroke="#1e3e62" stroke-width="2" d="M399.12,-1352.09C513.48,-1345.06 737.71,-1333 928.38,-1333 928.38,-1333 928.38,-1333 1211,-1333 1384.86,-1333 1463.19,-1366.1 1593.5,-1251 1723.44,-1136.22 1752.74,-915.31 1759.34,-817.56"/>
<polygon fill="#1e3e62" stroke="#1e3e62" stroke-width="2" points="1759.94,-807.87 1763.81,-818.13 1760.28,-810.46 1759.82,-817.88 1759.32,-817.85 1758.82,-817.82 1759.28,-810.4 1754.83,-817.58 1759.94,-807.87"/>
</g>
<!-- aphrodite::event&#45;&gt;aphrodite::common -->
<g id="edge26" class="edge">
<title>aphrodite::event&#45;&gt;aphrodite::common</title>
<path fill="none" stroke="#1e3e62" stroke-width="2" d="M416.97,-1262C535.73,-1262 747.3,-1262 928.38,-1262 928.38,-1262 928.38,-1262 1211,-1262 1383.44,-1262 1459.72,-1305.8 1593.5,-1197 1712.39,-1100.31 1747.3,-907.88 1757.33,-817.73"/>
<polygon fill="#1e3e62" stroke="#1e3e62" stroke-width="2" points="1758.36,-807.87 1761.8,-818.29 1758.59,-810.47 1757.82,-817.87 1757.32,-817.82 1756.82,-817.77 1757.6,-810.37 1752.85,-817.35 1758.36,-807.87"/>
</g>
<!-- aphrodite::filesystem&#45;&gt;aphrodite::common -->
<g id="edge27" class="edge">
<title>aphrodite::filesystem&#45;&gt;aphrodite::common</title>
<path fill="none" stroke="#1e3e62" stroke-width="2" d="M1047.65,-1167.35C1189.39,-1187.67 1429.29,-1199.98 1593.5,-1091 1689.45,-1027.33 1733.88,-890.56 1751.46,-817.44"/>
<polygon fill="#1e3e62" stroke="#1e3e62" stroke-width="2" points="1753.7,-807.79 1755.83,-818.55 1753.61,-810.4 1751.93,-817.64 1751.44,-817.53 1750.95,-817.42 1752.63,-810.17 1747.06,-816.51 1753.7,-807.79"/>
</g>
<!-- aphrodite::rendergraph&#45;&gt;aphrodite::api -->
<g id="edge29" class="edge">
<title>aphrodite::rendergraph&#45;&gt;aphrodite::api</title>
<path fill="none" stroke="#1e3e62" stroke-width="2" d="M657.29,-1083.65C713.41,-1023.27 825.67,-902.49 886.64,-836.9"/>
<polygon fill="#1e3e62" stroke="#1e3e62" stroke-width="2" points="893.24,-829.8 889.73,-840.19 891.86,-832.02 886.8,-837.47 886.43,-837.13 886.06,-836.79 891.13,-831.34 883.13,-834.06 893.24,-829.8"/>
</g>
<!-- aphrodite::rendergraph&#45;&gt;aphrodite::common -->
<g id="edge28" class="edge">
<title>aphrodite::rendergraph&#45;&gt;aphrodite::common</title>
<path fill="none" stroke="#1e3e62" stroke-width="2" d="M698.47,-1156.33C732.18,-1170.76 772.98,-1185.65 811.5,-1193 982.49,-1225.64 1456.17,-1253.98 1593.5,-1147 1699.92,-1064.09 1740.49,-899.25 1754.55,-817.41"/>
<polygon fill="#1e3e62" stroke="#1e3e62" stroke-width="2" points="1756.15,-807.66 1758.97,-818.25 1756.23,-810.27 1755.02,-817.61 1754.53,-817.53 1754.03,-817.44 1755.24,-810.11 1750.09,-816.8 1756.15,-807.66"/>
</g>
<!-- aphrodite::resource&#45;&gt;aphrodite::api -->
<g id="edge32" class="edge">
<title>aphrodite::resource&#45;&gt;aphrodite::api</title>
<path fill="none" stroke="#1e3e62" stroke-width="2" d="M433.94,-743.75C549.23,-755 728.15,-772.46 836.2,-783.01"/>
<polygon fill="#1e3e62" stroke="#1e3e62" stroke-width="2" points="845.95,-783.96 835.56,-787.46 843.35,-784.21 835.95,-783.48 835.99,-782.99 836.04,-782.49 843.44,-783.21 836.43,-778.51 845.95,-783.96"/>
</g>
<!-- aphrodite::resource&#45;&gt;aphrodite::common -->
<g id="edge31" class="edge">
<title>aphrodite::resource&#45;&gt;aphrodite::common</title>
<path fill="none" stroke="#1e3e62" stroke-width="2" d="M433.79,-716.21C617,-688.56 977.09,-635.65 1105.25,-627 1198.15,-620.73 1222.34,-615.57 1314.75,-627 1441.52,-642.67 1472.48,-656.12 1593.5,-697 1619.54,-705.79 1647.18,-716.89 1672.36,-727.73"/>
<polygon fill="#1e3e62" stroke="#1e3e62" stroke-width="2" points="1681.51,-731.7 1670.54,-731.84 1678.96,-731.14 1672.14,-728.17 1672.34,-727.71 1672.54,-727.26 1679.36,-730.22 1674.13,-723.59 1681.51,-731.7"/>
</g>
<!-- aphrodite::resource&#45;&gt;aphrodite::filesystem -->
<g id="edge30" class="edge">
<title>aphrodite::resource&#45;&gt;aphrodite::filesystem</title>
<path fill="none" stroke="#1e3e62" stroke-width="2" d="M346.99,-769.27C376.38,-812.87 430.55,-886.14 491.5,-934 547.54,-978.01 720.33,-1056.01 831.07,-1103.85"/>
<polygon fill="#1e3e62" stroke="#1e3e62" stroke-width="2" points="840.01,-1107.7 829.05,-1107.88 837.46,-1107.15 830.63,-1104.2 830.83,-1103.74 831.03,-1103.29 837.86,-1106.23 832.61,-1099.61 840.01,-1107.7"/>
</g>
<!-- aphrodite::resource&#45;&gt;aphrodite::math -->
<g id="edge33" class="edge">
<title>aphrodite::resource&#45;&gt;aphrodite::math</title>
<path fill="none" stroke="#1e3e62" stroke-width="2" d="M358.49,-696.72C413.17,-639.6 519.2,-528.85 578.57,-466.84"/>
<polygon fill="#1e3e62" stroke="#1e3e62" stroke-width="2" points="585.3,-459.81 581.63,-470.15 583.89,-462.01 578.74,-467.38 578.38,-467.04 578.02,-466.69 583.16,-461.32 575.13,-463.92 585.3,-459.81"/>
</g>
<!-- aphrodite::resource&#45;&gt;aphrodite::global -->
<g id="edge34" class="edge">
<title>aphrodite::resource&#45;&gt;aphrodite::global</title>
<path fill="none" stroke="#1e3e62" stroke-width="2" d="M433.94,-702.2C543.71,-671.52 711.17,-624.71 820.22,-594.23"/>
<polygon fill="#1e3e62" stroke="#1e3e62" stroke-width="2" points="829.55,-591.62 821.13,-598.65 827.22,-592.79 820.06,-594.8 819.92,-594.31 819.79,-593.83 826.95,-591.83 818.71,-589.98 829.55,-591.62"/>
</g>
<!-- aphrodite::resource&#45;&gt;aphrodite::reflection -->
<g id="edge35" class="edge">
<title>aphrodite::resource&#45;&gt;aphrodite::reflection</title>
<path fill="none" stroke="#1e3e62" stroke-width="2" d="M394.69,-769.45C438.23,-791.83 494.16,-820.56 539.58,-843.9"/>
<polygon fill="#1e3e62" stroke="#1e3e62" stroke-width="2" points="548.42,-848.45 537.47,-847.88 545.91,-847.72 539.3,-844.32 539.53,-843.88 539.75,-843.43 546.37,-846.83 541.58,-839.87 548.42,-848.45"/>
</g>
<!-- aphrodite::scene&#45;&gt;aphrodite::common -->
<g id="edge37" class="edge">
<title>aphrodite::scene&#45;&gt;aphrodite::common</title>
<path fill="none" stroke="#1e3e62" stroke-width="2" d="M418.01,-213C536.95,-213 747.83,-213 928.38,-213 928.38,-213 928.38,-213 1211,-213 1387.65,-213 1463.51,-201.39 1593.5,-321 1711.41,-429.49 1746.87,-628.9 1757.19,-720.57"/>
<polygon fill="#1e3e62" stroke="#1e3e62" stroke-width="2" points="1758.23,-730.35 1752.7,-720.88 1757.46,-727.85 1756.68,-720.46 1757.17,-720.4 1757.67,-720.35 1758.46,-727.75 1761.65,-719.93 1758.23,-730.35"/>
</g>
<!-- aphrodite::scene&#45;&gt;aphrodite::math -->
<g id="edge36" class="edge">
<title>aphrodite::scene&#45;&gt;aphrodite::math</title>
<path fill="none" stroke="#1e3e62" stroke-width="2" d="M375.61,-249.41C426.91,-285.41 505.41,-340.51 559.86,-378.73"/>
<polygon fill="#1e3e62" stroke="#1e3e62" stroke-width="2" points="567.74,-384.26 556.97,-382.2 565.35,-383.2 559.26,-378.93 559.55,-378.52 559.84,-378.11 565.93,-382.38 562.14,-374.83 567.74,-384.26"/>
</g>
<!-- aphrodite::threads&#45;&gt;aphrodite::allocator -->
<g id="edge39" class="edge">
<title>aphrodite::threads&#45;&gt;aphrodite::allocator</title>
<path fill="none" stroke="#1e3e62" stroke-width="2" d="M1280.47,-805.38C1317.61,-824.84 1363.52,-848.88 1402.15,-869.11"/>
<polygon fill="#1e3e62" stroke="#1e3e62" stroke-width="2" points="1410.68,-873.58 1399.73,-872.93 1408.18,-872.83 1401.59,-869.38 1401.82,-868.94 1402.05,-868.5 1408.64,-871.95 1403.91,-864.95 1410.68,-873.58"/>
</g>
<!-- aphrodite::threads&#45;&gt;aphrodite::common -->
<g id="edge38" class="edge">
<title>aphrodite::threads&#45;&gt;aphrodite::common</title>
<path fill="none" stroke="#1e3e62" stroke-width="2" d="M1315.14,-769C1407.32,-769 1541.92,-769 1639.14,-769"/>
<polygon fill="#1e3e62" stroke="#1e3e62" stroke-width="2" points="1648.97,-769 1638.97,-773.5 1646.4,-769.5 1638.97,-769.5 1638.97,-769 1638.97,-768.5 1646.4,-768.5 1638.97,-764.5 1648.97,-769"/>
</g>
<!-- aphrodite::ui&#45;&gt;aphrodite::api -->
<g id="edge42" class="edge">
<title>aphrodite::ui&#45;&gt;aphrodite::api</title>
<path fill="none" stroke="#1e3e62" stroke-width="2" d="M397.89,-546.33C509.2,-597.88 719.17,-695.12 838.86,-750.54"/>
<polygon fill="#1e3e62" stroke="#1e3e62" stroke-width="2" points="847.58,-754.59 836.62,-754.47 845.05,-753.96 838.3,-750.84 838.51,-750.38 838.72,-749.93 845.47,-753.06 840.4,-746.3 847.58,-754.59"/>
</g>
<!-- aphrodite::ui&#45;&gt;aphrodite::common -->
<g id="edge41" class="edge">
<title>aphrodite::ui&#45;&gt;aphrodite::common</title>
<path fill="none" stroke="#1e3e62" stroke-width="2" d="M397.72,-508.18C511.66,-502.63 736.97,-493 928.38,-493 928.38,-493 928.38,-493 1211,-493 1381.63,-493 1445.96,-440.28 1593.5,-526 1669.59,-570.21 1719.07,-664.4 1743.41,-721.66"/>
<polygon fill="#1e3e62" stroke="#1e3e62" stroke-width="2" points="1747.15,-730.69 1739.16,-723.17 1745.7,-728.51 1742.86,-721.64 1743.32,-721.45 1743.78,-721.26 1746.63,-728.13 1747.48,-719.73 1747.15,-730.69"/>
</g>
<!-- aphrodite::ui&#45;&gt;aphrodite::math -->
<g id="edge40" class="edge">
<title>aphrodite::ui&#45;&gt;aphrodite::math</title>
<path fill="none" stroke="#1e3e62" stroke-width="2" d="M397.73,-489.64C434.1,-478.64 478.53,-465.21 518.19,-453.23"/>
<polygon fill="#1e3e62" stroke="#1e3e62" stroke-width="2" points="527.72,-450.35 519.45,-457.55 525.41,-451.57 518.29,-453.72 518.15,-453.24 518,-452.76 525.12,-450.61 516.85,-448.93 527.72,-450.35"/>
</g>
<!-- aphrodite::wsi&#45;&gt;aphrodite::api -->
<g id="edge44" class="edge">
<title>aphrodite::wsi&#45;&gt;aphrodite::api</title>
<path fill="none" stroke="#1e3e62" stroke-width="2" d="M1140.2,-710.36C1104.49,-726.62 1060.38,-745.5 1021.83,-761.07"/>
<polygon fill="#1e3e62" stroke="#1e3e62" stroke-width="2" points="1012.85,-764.67 1020.46,-756.77 1015.05,-763.25 1021.95,-760.48 1022.13,-760.95 1022.32,-761.41 1015.42,-764.18 1023.81,-765.12 1012.85,-764.67"/>
</g>
<!-- aphrodite::wsi&#45;&gt;aphrodite::common -->
<g id="edge43" class="edge">
<title>aphrodite::wsi&#45;&gt;aphrodite::common</title>
<path fill="none" stroke="#1e3e62" stroke-width="2" d="M1292.19,-688.02C1383.73,-703.82 1533.54,-729.69 1639.19,-747.93"/>
<polygon fill="#1e3e62" stroke="#1e3e62" stroke-width="2" points="1648.8,-749.59 1638.18,-752.32 1646.19,-749.64 1638.86,-748.38 1638.95,-747.88 1639.03,-747.39 1646.36,-748.66 1639.71,-743.45 1648.8,-749.59"/>
</g>
<!-- aphrodite::app&#45;&gt;aphrodite::common -->
<g id="edge45" class="edge">
<title>aphrodite::app&#45;&gt;aphrodite::common</title>
<path fill="none" stroke="#1e3e62" stroke-width="2" d="M707.25,-117.81C890.29,-70.46 1330.59,12.64 1593.5,-196 1677.3,-262.5 1735.02,-594.28 1754.24,-720.31"/>
<polygon fill="#1e3e62" stroke="#1e3e62" stroke-width="2" points="1755.72,-730.14 1749.78,-720.93 1754.84,-727.68 1753.73,-720.33 1754.23,-720.25 1754.72,-720.18 1755.83,-727.53 1758.68,-719.58 1755.72,-730.14"/>
</g>
<!-- aphrodite::app&#45;&gt;aphrodite::global -->
<g id="edge46" class="edge">
<title>aphrodite::app&#45;&gt;aphrodite::global</title>
<path fill="none" stroke="#1e3e62" stroke-width="2" d="M649.76,-178.34C705.14,-255 833.82,-433.12 894.96,-517.75"/>
<polygon fill="#1e3e62" stroke="#1e3e62" stroke-width="2" points="900.65,-525.62 891.14,-520.15 898.74,-523.83 894.38,-517.8 894.79,-517.51 895.19,-517.22 899.55,-523.25 898.44,-514.88 900.65,-525.62"/>
</g>
<!-- aphrodite::global&#45;&gt;aphrodite::common -->
<g id="edge48" class="edge">
<title>aphrodite::global&#45;&gt;aphrodite::common</title>
<path fill="none" stroke="#1e3e62" stroke-width="2" d="M1027.08,-544.8C1161.13,-523.01 1407.87,-500.64 1593.5,-586 1655.72,-614.61 1705.33,-678.21 1734.01,-722.34"/>
<polygon fill="#1e3e62" stroke="#1e3e62" stroke-width="2" points="1739.37,-730.77 1730.21,-724.74 1737.57,-728.87 1733.58,-722.6 1734,-722.33 1734.43,-722.06 1738.41,-728.34 1737.8,-719.91 1739.37,-730.77"/>
</g>
<!-- aphrodite::global&#45;&gt;aphrodite::threads -->
<g id="edge47" class="edge">
<title>aphrodite::global&#45;&gt;aphrodite::threads</title>
<path fill="none" stroke="#1e3e62" stroke-width="2" d="M974.65,-600.49C996.8,-619.1 1023.83,-642.33 1047.25,-664 1074.01,-688.76 1075.27,-701.25 1105.25,-722 1107.35,-723.45 1109.49,-724.87 1111.68,-726.27"/>
<polygon fill="#1e3e62" stroke="#1e3e62" stroke-width="2" points="1120.1,-731.34 1109.22,-730.04 1117.65,-730.45 1111.28,-726.61 1111.54,-726.18 1111.79,-725.75 1118.17,-729.59 1113.86,-722.33 1120.1,-731.34"/>
</g>
<!-- aphrodite::engine&#45;&gt;aphrodite::api -->
<g id="edge50" class="edge">
<title>aphrodite::engine&#45;&gt;aphrodite::api</title>
<path fill="none" stroke="#1e3e62" stroke-width="2" d="M423.96,-348.58C535.03,-340.39 704.93,-335.31 753.5,-375 837.47,-443.62 768.48,-512.46 811.5,-612 832.56,-660.72 866.36,-710.95 892.21,-745.92"/>
<polygon fill="#1e3e62" stroke="#1e3e62" stroke-width="2" points="898.16,-753.87 888.56,-748.56 896.22,-752.12 891.77,-746.16 892.17,-745.86 892.57,-745.56 897.02,-751.52 895.77,-743.17 898.16,-753.87"/>
</g>
<!-- aphrodite::engine&#45;&gt;aphrodite::common -->
<g id="edge49" class="edge">
<title>aphrodite::engine&#45;&gt;aphrodite::common</title>
<path fill="none" stroke="#1e3e62" stroke-width="2" d="M424.08,-343.8C543.84,-328.1 750.3,-305 928.38,-305 928.38,-305 928.38,-305 1211,-305 1396.5,-305 1455.79,-347.73 1593.5,-472 1671.1,-542.03 1721.44,-656.69 1745.22,-721.14"/>
<polygon fill="#1e3e62" stroke="#1e3e62" stroke-width="2" points="1748.52,-730.27 1740.89,-722.4 1747.18,-728.03 1744.65,-721.04 1745.12,-720.87 1745.59,-720.7 1748.12,-727.69 1749.36,-719.34 1748.52,-730.27"/>
</g>
<!-- aphrodite::engine&#45;&gt;aphrodite::math -->
<g id="edge51" class="edge">
<title>aphrodite::engine&#45;&gt;aphrodite::math</title>
<path fill="none" stroke="#1e3e62" stroke-width="2" d="M424.14,-379.58C454.4,-386.08 487.65,-393.23 518.1,-399.77"/>
<polygon fill="#1e3e62" stroke="#1e3e62" stroke-width="2" points="527.68,-401.83 516.96,-404.13 525.07,-401.78 517.8,-400.22 517.9,-399.73 518.01,-399.24 525.28,-400.81 518.85,-395.33 527.68,-401.83"/>
</g>
<!-- aphrodite::reflection&#45;&gt;aphrodite::api -->
<g id="edge54" class="edge">
<title>aphrodite::reflection&#45;&gt;aphrodite::api</title>
<path fill="none" stroke="#1e3e62" stroke-width="2" d="M737.46,-850.86C770.15,-840.78 805.37,-829.92 836.55,-820.31"/>
<polygon fill="#1e3e62" stroke="#1e3e62" stroke-width="2" points="845.96,-817.41 837.73,-824.66 843.66,-818.64 836.55,-820.83 836.41,-820.36 836.26,-819.88 843.36,-817.69 835.08,-816.06 845.96,-817.41"/>
</g>
<!-- aphrodite::reflection&#45;&gt;aphrodite::common -->
<g id="edge53" class="edge">
<title>aphrodite::reflection&#45;&gt;aphrodite::common</title>
<path fill="none" stroke="#1e3e62" stroke-width="2" d="M737.39,-922.43C834.1,-951.35 977.18,-989.42 1105.25,-1005 1197.68,-1016.25 1221.95,-1012.61 1314.75,-1005 1439.89,-994.74 1483.64,-1019.81 1593.5,-959 1654.63,-925.17 1704.46,-860.22 1733.49,-815.76"/>
<polygon fill="#1e3e62" stroke="#1e3e62" stroke-width="2" points="1738.75,-807.54 1737.15,-818.39 1737.79,-809.97 1733.78,-816.23 1733.36,-815.96 1732.94,-815.7 1736.95,-809.43 1729.57,-813.54 1738.75,-807.54"/>
</g>
<!-- aphrodite::reflection&#45;&gt;aphrodite::filesystem -->
<g id="edge52" class="edge">
<title>aphrodite::reflection&#45;&gt;aphrodite::filesystem</title>
<path fill="none" stroke="#1e3e62" stroke-width="2" d="M680.89,-922.37C705.23,-939.65 732.71,-961.81 753.5,-986 788.25,-1026.43 772.47,-1054.68 811.5,-1091 815.68,-1094.89 820.18,-1098.54 824.91,-1101.96"/>
<polygon fill="#1e3e62" stroke="#1e3e62" stroke-width="2" points="832.87,-1107.3 822.06,-1105.46 830.47,-1106.29 824.29,-1102.14 824.57,-1101.73 824.85,-1101.31 831.02,-1105.46 827.08,-1097.99 832.87,-1107.3"/>
</g>
<!-- aphrodite::reflection&#45;&gt;aphrodite::global -->
<g id="edge55" class="edge">
<title>aphrodite::reflection&#45;&gt;aphrodite::global</title>
<path fill="none" stroke="#1e3e62" stroke-width="2" d="M657.88,-849.69C713.95,-790.47 824.94,-673.25 885.87,-608.9"/>
<polygon fill="#1e3e62" stroke="#1e3e62" stroke-width="2" points="892.44,-601.95 888.84,-612.3 891.05,-604.15 885.93,-609.55 885.57,-609.21 885.21,-608.87 890.32,-603.47 882.3,-606.12 892.44,-601.95"/>
</g>
</g>
</svg>
