<?xml version="1.0" encoding="UTF-8" standalone="no"?>
<!DOCTYPE svg PUBLIC "-//W3C//DTD SVG 1.1//EN"
 "http://www.w3.org/Graphics/SVG/1.1/DTD/svg11.dtd">
<!-- Generated by graphviz version 12.2.1 (20241206.2353)
 -->
<!-- Title: CMakeDependencyGraph Pages: 1 -->
<svg width="1206pt" height="916pt"
 viewBox="0.00 0.00 1206.25 915.84" xmlns="http://www.w3.org/2000/svg" xmlns:xlink="http://www.w3.org/1999/xlink">
<g id="graph0" class="graph" transform="scale(1 1) rotate(0) translate(4 911.84)">
<title>CMakeDependencyGraph</title>
<g id="clust1" class="cluster">
<title>cluster_legend</title>
<polygon fill="none" stroke="none" stroke-width="0" points="8,-287.92 8,-397.92 119.75,-397.92 119.75,-287.92 8,-287.92"/>
</g>
<!-- key -->
<g id="node1" class="node">
<title>key</title>
<polygon fill="lightgrey" stroke="none" stroke-width="1.5" points="111.75,-389.42 16,-389.42 16,-296.42 111.75,-296.42 111.75,-389.42"/>
<polygon fill="none" stroke="none" points="16,-296.42 16,-389.42 111.75,-389.42 111.75,-296.42 16,-296.42"/>
<polygon fill="none" stroke="black" points="16,-358.42 16,-389.42 38.75,-389.42 38.75,-358.42 16,-358.42"/>
<text text-anchor="start" x="21" y="-368.67" font-family="Helvetica,Arial,sans-serif" font-size="15.00" fill="#ff6500">➔</text>
<polygon fill="none" stroke="black" points="38.75,-358.42 38.75,-389.42 111.75,-389.42 111.75,-358.42 38.75,-358.42"/>
<text text-anchor="start" x="54.25" y="-370.17" font-family="Helvetica,Arial,sans-serif" font-size="15.00" fill="#222831">Public</text>
<polygon fill="none" stroke="black" points="16,-327.42 16,-358.42 38.75,-358.42 38.75,-327.42 16,-327.42"/>
<text text-anchor="start" x="21" y="-337.67" font-family="Helvetica,Arial,sans-serif" font-size="15.00" fill="#1e3e62">➔</text>
<polygon fill="none" stroke="black" points="38.75,-327.42 38.75,-358.42 111.75,-358.42 111.75,-327.42 38.75,-327.42"/>
<text text-anchor="start" x="51.25" y="-339.17" font-family="Helvetica,Arial,sans-serif" font-size="15.00" fill="#222831">Private</text>
<polygon fill="none" stroke="black" points="16,-296.42 16,-327.42 38.75,-327.42 38.75,-296.42 16,-296.42"/>
<text text-anchor="start" x="21" y="-306.67" font-family="Helvetica,Arial,sans-serif" font-size="15.00" fill="#1f7d53">➔</text>
<polygon fill="none" stroke="black" points="38.75,-296.42 38.75,-327.42 111.75,-327.42 111.75,-296.42 38.75,-296.42"/>
<text text-anchor="start" x="43.75" y="-308.17" font-family="Helvetica,Arial,sans-serif" font-size="15.00" fill="#222831">Interface</text>
</g>
<!-- aphrodite::all -->
<g id="node2" class="node">
<title>aphrodite::all</title>
<path fill="#f1efec" stroke="black" stroke-width="1.5" d="M22.5,-411.92C22.5,-411.92 105.25,-411.92 105.25,-411.92 111.25,-411.92 117.25,-417.92 117.25,-423.92 117.25,-423.92 117.25,-435.92 117.25,-435.92 117.25,-441.92 111.25,-447.92 105.25,-447.92 105.25,-447.92 22.5,-447.92 22.5,-447.92 16.5,-447.92 10.5,-441.92 10.5,-435.92 10.5,-435.92 10.5,-423.92 10.5,-423.92 10.5,-417.92 16.5,-411.92 22.5,-411.92"/>
<text text-anchor="middle" x="63.88" y="-426.17" font-family="Helvetica,Arial,sans-serif" font-size="15.00" fill="#222831">aphrodite::all</text>
</g>
<!-- aphrodite::allocator -->
<g id="node3" class="node">
<title>aphrodite::allocator</title>
<path fill="#d4c9be" stroke="black" stroke-width="1.5" d="M846.5,-829.92C846.5,-829.92 974.25,-829.92 974.25,-829.92 980.25,-829.92 986.25,-835.92 986.25,-841.92 986.25,-841.92 986.25,-853.92 986.25,-853.92 986.25,-859.92 980.25,-865.92 974.25,-865.92 974.25,-865.92 846.5,-865.92 846.5,-865.92 840.5,-865.92 834.5,-859.92 834.5,-853.92 834.5,-853.92 834.5,-841.92 834.5,-841.92 834.5,-835.92 840.5,-829.92 846.5,-829.92"/>
<text text-anchor="middle" x="910.38" y="-844.17" font-family="Helvetica,Arial,sans-serif" font-size="15.00" fill="#222831">aphrodite::allocator</text>
</g>
<!-- aphrodite::all&#45;&gt;aphrodite::allocator -->
<g id="edge2" class="edge">
<title>aphrodite::all&#45;&gt;aphrodite::allocator</title>
<path fill="none" stroke="#ff6500" d="M64.33,-448.05C63.6,-507.67 69.9,-699.23 175.25,-793.92 359.78,-959.76 686.64,-905.12 833.82,-869.03"/>
<polygon fill="#ff6500" stroke="#ff6500" points="843.35,-866.65 834.73,-873.44 839.68,-867.57 833.64,-869.07 833.64,-869.07 833.64,-869.07 839.68,-867.57 832.56,-864.71 843.35,-866.65"/>
</g>
<!-- aphrodite::api -->
<g id="node4" class="node">
<title>aphrodite::api</title>
<path fill="#d4c9be" stroke="black" stroke-width="1.5" d="M449.12,-493.92C449.12,-493.92 537.12,-493.92 537.12,-493.92 543.12,-493.92 549.12,-499.92 549.12,-505.92 549.12,-505.92 549.12,-517.92 549.12,-517.92 549.12,-523.92 543.12,-529.92 537.12,-529.92 537.12,-529.92 449.12,-529.92 449.12,-529.92 443.12,-529.92 437.12,-523.92 437.12,-517.92 437.12,-517.92 437.12,-505.92 437.12,-505.92 437.12,-499.92 443.12,-493.92 449.12,-493.92"/>
<text text-anchor="middle" x="493.12" y="-508.17" font-family="Helvetica,Arial,sans-serif" font-size="15.00" fill="#222831">aphrodite::api</text>
</g>
<!-- aphrodite::all&#45;&gt;aphrodite::api -->
<g id="edge13" class="edge">
<title>aphrodite::all&#45;&gt;aphrodite::api</title>
<path fill="none" stroke="#ff6500" d="M117.73,-444.23C135.89,-448.91 156.39,-453.92 175.25,-457.92 261.31,-476.13 361.53,-492.39 425.84,-502.19"/>
<polygon fill="#ff6500" stroke="#ff6500" points="435.43,-503.65 424.87,-506.6 431.69,-503.08 425.54,-502.15 425.54,-502.15 425.54,-502.15 431.69,-503.08 426.21,-497.7 435.43,-503.65"/>
</g>
<!-- aphrodite::cli -->
<g id="node5" class="node">
<title>aphrodite::cli</title>
<path fill="#d4c9be" stroke="black" stroke-width="1.5" d="M223.62,-230.92C223.62,-230.92 305.62,-230.92 305.62,-230.92 311.62,-230.92 317.62,-236.92 317.62,-242.92 317.62,-242.92 317.62,-254.92 317.62,-254.92 317.62,-260.92 311.62,-266.92 305.62,-266.92 305.62,-266.92 223.62,-266.92 223.62,-266.92 217.62,-266.92 211.62,-260.92 211.62,-254.92 211.62,-254.92 211.62,-242.92 211.62,-242.92 211.62,-236.92 217.62,-230.92 223.62,-230.92"/>
<text text-anchor="middle" x="264.62" y="-245.17" font-family="Helvetica,Arial,sans-serif" font-size="15.00" fill="#222831">aphrodite::cli</text>
</g>
<!-- aphrodite::all&#45;&gt;aphrodite::cli -->
<g id="edge8" class="edge">
<title>aphrodite::all&#45;&gt;aphrodite::cli</title>
<path fill="none" stroke="#ff6500" d="M109.31,-411.59C113.1,-409.01 116.65,-406.13 119.75,-402.92 161.66,-359.45 130.6,-319.57 175.25,-278.92 182.64,-272.19 191.6,-266.96 200.95,-262.9"/>
<polygon fill="#ff6500" stroke="#ff6500" points="210.04,-259.38 202.34,-267.18 206.52,-260.74 200.72,-262.99 200.72,-262.99 200.72,-262.99 206.52,-260.74 199.09,-258.79 210.04,-259.38"/>
</g>
<!-- aphrodite::event -->
<g id="node7" class="node">
<title>aphrodite::event</title>
<path fill="#d4c9be" stroke="black" stroke-width="1.5" d="M212,-6.92C212,-6.92 317.25,-6.92 317.25,-6.92 323.25,-6.92 329.25,-12.92 329.25,-18.92 329.25,-18.92 329.25,-30.92 329.25,-30.92 329.25,-36.92 323.25,-42.92 317.25,-42.92 317.25,-42.92 212,-42.92 212,-42.92 206,-42.92 200,-36.92 200,-30.92 200,-30.92 200,-18.92 200,-18.92 200,-12.92 206,-6.92 212,-6.92"/>
<text text-anchor="middle" x="264.62" y="-21.17" font-family="Helvetica,Arial,sans-serif" font-size="15.00" fill="#222831">aphrodite::event</text>
</g>
<!-- aphrodite::all&#45;&gt;aphrodite::event -->
<g id="edge10" class="edge">
<title>aphrodite::all&#45;&gt;aphrodite::event</title>
<path fill="none" stroke="#ff6500" d="M111.27,-411.59C114.46,-409.04 117.35,-406.16 119.75,-402.92 212.99,-276.53 73.38,-173.46 175.25,-53.92 179.48,-48.95 184.57,-44.84 190.14,-41.42"/>
<polygon fill="#ff6500" stroke="#ff6500" points="198.84,-36.87 192.07,-45.49 195.49,-38.62 189.98,-41.51 189.98,-41.51 189.98,-41.51 195.49,-38.62 187.9,-37.52 198.84,-36.87"/>
</g>
<!-- aphrodite::filesystem -->
<g id="node8" class="node">
<title>aphrodite::filesystem</title>
<path fill="#d4c9be" stroke="black" stroke-width="1.5" d="M424,-434.92C424,-434.92 562.25,-434.92 562.25,-434.92 568.25,-434.92 574.25,-440.92 574.25,-446.92 574.25,-446.92 574.25,-458.92 574.25,-458.92 574.25,-464.92 568.25,-470.92 562.25,-470.92 562.25,-470.92 424,-470.92 424,-470.92 418,-470.92 412,-464.92 412,-458.92 412,-458.92 412,-446.92 412,-446.92 412,-440.92 418,-434.92 424,-434.92"/>
<text text-anchor="middle" x="493.12" y="-449.17" font-family="Helvetica,Arial,sans-serif" font-size="15.00" fill="#222831">aphrodite::filesystem</text>
</g>
<!-- aphrodite::all&#45;&gt;aphrodite::filesystem -->
<g id="edge4" class="edge">
<title>aphrodite::all&#45;&gt;aphrodite::filesystem</title>
<path fill="none" stroke="#ff6500" d="M117.69,-432.76C188.28,-436.56 314.45,-443.35 400.66,-447.99"/>
<polygon fill="#ff6500" stroke="#ff6500" points="410.54,-448.52 400.31,-452.48 406.76,-448.32 400.55,-447.99 400.55,-447.99 400.55,-447.99 406.76,-448.32 400.79,-443.49 410.54,-448.52"/>
</g>
<!-- aphrodite::math -->
<g id="node9" class="node">
<title>aphrodite::math</title>
<path fill="#d4c9be" stroke="black" stroke-width="1.5" d="M441.25,-143.92C441.25,-143.92 545,-143.92 545,-143.92 551,-143.92 557,-149.92 557,-155.92 557,-155.92 557,-167.92 557,-167.92 557,-173.92 551,-179.92 545,-179.92 545,-179.92 441.25,-179.92 441.25,-179.92 435.25,-179.92 429.25,-173.92 429.25,-167.92 429.25,-167.92 429.25,-155.92 429.25,-155.92 429.25,-149.92 435.25,-143.92 441.25,-143.92"/>
<text text-anchor="middle" x="493.12" y="-158.17" font-family="Helvetica,Arial,sans-serif" font-size="15.00" fill="#222831">aphrodite::math</text>
</g>
<!-- aphrodite::all&#45;&gt;aphrodite::math -->
<g id="edge1" class="edge">
<title>aphrodite::all&#45;&gt;aphrodite::math</title>
<path fill="none" stroke="#ff6500" d="M110.78,-411.61C114.12,-409.05 117.18,-406.16 119.75,-402.92 188.46,-316.02 88.63,-228.98 175.25,-159.92 246.95,-102.74 359.63,-120.87 429.52,-140.48"/>
<polygon fill="#ff6500" stroke="#ff6500" points="438.76,-143.16 427.9,-144.7 435.13,-142.11 429.16,-140.38 429.16,-140.38 429.16,-140.38 435.13,-142.11 430.41,-136.06 438.76,-143.16"/>
</g>
<!-- aphrodite::module -->
<g id="node10" class="node">
<title>aphrodite::module</title>
<path fill="#d4c9be" stroke="black" stroke-width="1.5" d="M644.25,-341.92C644.25,-341.92 764.5,-341.92 764.5,-341.92 770.5,-341.92 776.5,-347.92 776.5,-353.92 776.5,-353.92 776.5,-365.92 776.5,-365.92 776.5,-371.92 770.5,-377.92 764.5,-377.92 764.5,-377.92 644.25,-377.92 644.25,-377.92 638.25,-377.92 632.25,-371.92 632.25,-365.92 632.25,-365.92 632.25,-353.92 632.25,-353.92 632.25,-347.92 638.25,-341.92 644.25,-341.92"/>
<text text-anchor="middle" x="704.38" y="-356.17" font-family="Helvetica,Arial,sans-serif" font-size="15.00" fill="#222831">aphrodite::module</text>
</g>
<!-- aphrodite::all&#45;&gt;aphrodite::module -->
<g id="edge6" class="edge">
<title>aphrodite::all&#45;&gt;aphrodite::module</title>
<path fill="none" stroke="#ff6500" d="M117.64,-416.41C135.8,-412.18 156.32,-407.85 175.25,-404.92 331.86,-380.63 516.78,-368.65 621.03,-363.42"/>
<polygon fill="#ff6500" stroke="#ff6500" points="630.89,-362.93 621.12,-367.92 627.11,-363.12 620.9,-363.42 620.9,-363.42 620.9,-363.42 627.11,-363.12 620.68,-358.93 630.89,-362.93"/>
</g>
<!-- aphrodite::rendergraph -->
<g id="node11" class="node">
<title>aphrodite::rendergraph</title>
<path fill="#d4c9be" stroke="black" stroke-width="1.5" d="M187.25,-592.92C187.25,-592.92 342,-592.92 342,-592.92 348,-592.92 354,-598.92 354,-604.92 354,-604.92 354,-616.92 354,-616.92 354,-622.92 348,-628.92 342,-628.92 342,-628.92 187.25,-628.92 187.25,-628.92 181.25,-628.92 175.25,-622.92 175.25,-616.92 175.25,-616.92 175.25,-604.92 175.25,-604.92 175.25,-598.92 181.25,-592.92 187.25,-592.92"/>
<text text-anchor="middle" x="264.62" y="-607.17" font-family="Helvetica,Arial,sans-serif" font-size="15.00" fill="#222831">aphrodite::rendergraph</text>
</g>
<!-- aphrodite::all&#45;&gt;aphrodite::rendergraph -->
<g id="edge15" class="edge">
<title>aphrodite::all&#45;&gt;aphrodite::rendergraph</title>
<path fill="none" stroke="#ff6500" d="M73.36,-448.24C89.02,-480.06 125.44,-545.61 175.25,-581.92 177.97,-583.9 180.83,-585.75 183.79,-587.48"/>
<polygon fill="#ff6500" stroke="#ff6500" points="192.47,-592.02 181.52,-591.37 189.12,-590.27 183.61,-587.38 183.61,-587.38 183.61,-587.38 189.12,-590.27 185.7,-583.4 192.47,-592.02"/>
</g>
<!-- aphrodite::resource -->
<g id="node12" class="node">
<title>aphrodite::resource</title>
<path fill="#d4c9be" stroke="black" stroke-width="1.5" d="M200.38,-533.92C200.38,-533.92 328.88,-533.92 328.88,-533.92 334.88,-533.92 340.88,-539.92 340.88,-545.92 340.88,-545.92 340.88,-557.92 340.88,-557.92 340.88,-563.92 334.88,-569.92 328.88,-569.92 328.88,-569.92 200.38,-569.92 200.38,-569.92 194.38,-569.92 188.38,-563.92 188.38,-557.92 188.38,-557.92 188.38,-545.92 188.38,-545.92 188.38,-539.92 194.38,-533.92 200.38,-533.92"/>
<text text-anchor="middle" x="264.62" y="-548.17" font-family="Helvetica,Arial,sans-serif" font-size="15.00" fill="#222831">aphrodite::resource</text>
</g>
<!-- aphrodite::all&#45;&gt;aphrodite::resource -->
<g id="edge12" class="edge">
<title>aphrodite::all&#45;&gt;aphrodite::resource</title>
<path fill="none" stroke="#ff6500" d="M84.81,-448.22C106.03,-467.01 141.18,-496.21 175.25,-515.92 183.48,-520.68 192.46,-525.11 201.45,-529.13"/>
<polygon fill="#ff6500" stroke="#ff6500" points="210.43,-533 199.47,-533.18 206.96,-531.5 201.25,-529.04 201.25,-529.04 201.25,-529.04 206.96,-531.5 203.03,-524.91 210.43,-533"/>
</g>
<!-- aphrodite::scene -->
<g id="node13" class="node">
<title>aphrodite::scene</title>
<path fill="#d4c9be" stroke="black" stroke-width="1.5" d="M210.88,-65.92C210.88,-65.92 318.38,-65.92 318.38,-65.92 324.38,-65.92 330.38,-71.92 330.38,-77.92 330.38,-77.92 330.38,-89.92 330.38,-89.92 330.38,-95.92 324.38,-101.92 318.38,-101.92 318.38,-101.92 210.88,-101.92 210.88,-101.92 204.88,-101.92 198.88,-95.92 198.88,-89.92 198.88,-89.92 198.88,-77.92 198.88,-77.92 198.88,-71.92 204.88,-65.92 210.88,-65.92"/>
<text text-anchor="middle" x="264.62" y="-80.17" font-family="Helvetica,Arial,sans-serif" font-size="15.00" fill="#222831">aphrodite::scene</text>
</g>
<!-- aphrodite::all&#45;&gt;aphrodite::scene -->
<g id="edge16" class="edge">
<title>aphrodite::all&#45;&gt;aphrodite::scene</title>
<path fill="none" stroke="#ff6500" d="M111.14,-411.49C114.36,-408.97 117.3,-406.12 119.75,-402.92 197.69,-301.16 93.78,-218.87 175.25,-119.92 179.3,-115 184.12,-110.75 189.4,-107.07"/>
<polygon fill="#ff6500" stroke="#ff6500" points="197.61,-102.05 191.43,-111.11 194.38,-104.02 189.08,-107.27 189.08,-107.27 189.08,-107.27 194.38,-104.02 186.73,-103.43 197.61,-102.05"/>
</g>
<!-- aphrodite::threads -->
<g id="node14" class="node">
<title>aphrodite::threads</title>
<path fill="#d4c9be" stroke="black" stroke-width="1.5" d="M644.25,-783.92C644.25,-783.92 764.5,-783.92 764.5,-783.92 770.5,-783.92 776.5,-789.92 776.5,-795.92 776.5,-795.92 776.5,-807.92 776.5,-807.92 776.5,-813.92 770.5,-819.92 764.5,-819.92 764.5,-819.92 644.25,-819.92 644.25,-819.92 638.25,-819.92 632.25,-813.92 632.25,-807.92 632.25,-807.92 632.25,-795.92 632.25,-795.92 632.25,-789.92 638.25,-783.92 644.25,-783.92"/>
<text text-anchor="middle" x="704.38" y="-798.17" font-family="Helvetica,Arial,sans-serif" font-size="15.00" fill="#222831">aphrodite::threads</text>
</g>
<!-- aphrodite::all&#45;&gt;aphrodite::threads -->
<g id="edge3" class="edge">
<title>aphrodite::all&#45;&gt;aphrodite::threads</title>
<path fill="none" stroke="#ff6500" d="M65.2,-448.26C67.23,-502.65 81.28,-663.97 175.25,-738.92 303.45,-841.16 507.93,-831.87 621.17,-816.58"/>
<polygon fill="#ff6500" stroke="#ff6500" points="630.96,-815.21 621.68,-821.05 627.22,-815.73 621.06,-816.6 621.06,-816.6 621.06,-816.6 627.22,-815.73 620.43,-812.14 630.96,-815.21"/>
</g>
<!-- aphrodite::ui -->
<g id="node15" class="node">
<title>aphrodite::ui</title>
<path fill="#d4c9be" stroke="black" stroke-width="1.5" d="M224.75,-289.92C224.75,-289.92 304.5,-289.92 304.5,-289.92 310.5,-289.92 316.5,-295.92 316.5,-301.92 316.5,-301.92 316.5,-313.92 316.5,-313.92 316.5,-319.92 310.5,-325.92 304.5,-325.92 304.5,-325.92 224.75,-325.92 224.75,-325.92 218.75,-325.92 212.75,-319.92 212.75,-313.92 212.75,-313.92 212.75,-301.92 212.75,-301.92 212.75,-295.92 218.75,-289.92 224.75,-289.92"/>
<text text-anchor="middle" x="264.62" y="-304.17" font-family="Helvetica,Arial,sans-serif" font-size="15.00" fill="#222831">aphrodite::ui</text>
</g>
<!-- aphrodite::all&#45;&gt;aphrodite::ui -->
<g id="edge7" class="edge">
<title>aphrodite::all&#45;&gt;aphrodite::ui</title>
<path fill="none" stroke="#ff6500" d="M106.28,-411.57C110.97,-408.91 115.57,-406.01 119.75,-402.92 148.7,-381.51 145.57,-364.28 175.25,-343.92 183.58,-338.2 192.95,-333.17 202.39,-328.81"/>
<polygon fill="#ff6500" stroke="#ff6500" points="211.51,-324.84 204.14,-332.96 208.04,-326.35 202.34,-328.84 202.34,-328.84 202.34,-328.84 208.04,-326.35 200.55,-324.71 211.51,-324.84"/>
</g>
<!-- aphrodite::wsi -->
<g id="node16" class="node">
<title>aphrodite::wsi</title>
<path fill="#d4c9be" stroke="black" stroke-width="1.5" d="M659.25,-447.92C659.25,-447.92 749.5,-447.92 749.5,-447.92 755.5,-447.92 761.5,-453.92 761.5,-459.92 761.5,-459.92 761.5,-471.92 761.5,-471.92 761.5,-477.92 755.5,-483.92 749.5,-483.92 749.5,-483.92 659.25,-483.92 659.25,-483.92 653.25,-483.92 647.25,-477.92 647.25,-471.92 647.25,-471.92 647.25,-459.92 647.25,-459.92 647.25,-453.92 653.25,-447.92 659.25,-447.92"/>
<text text-anchor="middle" x="704.38" y="-462.17" font-family="Helvetica,Arial,sans-serif" font-size="15.00" fill="#222831">aphrodite::wsi</text>
</g>
<!-- aphrodite::all&#45;&gt;aphrodite::wsi -->
<g id="edge11" class="edge">
<title>aphrodite::all&#45;&gt;aphrodite::wsi</title>
<path fill="none" stroke="#ff6500" d="M117.73,-423.48C210.72,-413.44 409.38,-397.78 574.25,-423.92 599.07,-427.85 625.62,-435.79 648.14,-443.72"/>
<polygon fill="#ff6500" stroke="#ff6500" points="657.37,-447.06 646.44,-447.89 653.82,-445.77 647.97,-443.66 647.97,-443.66 647.97,-443.66 653.82,-445.77 649.5,-439.43 657.37,-447.06"/>
</g>
<!-- aphrodite::app -->
<g id="node17" class="node">
<title>aphrodite::app</title>
<path fill="#d4c9be" stroke="black" stroke-width="1.5" d="M218,-651.92C218,-651.92 311.25,-651.92 311.25,-651.92 317.25,-651.92 323.25,-657.92 323.25,-663.92 323.25,-663.92 323.25,-675.92 323.25,-675.92 323.25,-681.92 317.25,-687.92 311.25,-687.92 311.25,-687.92 218,-687.92 218,-687.92 212,-687.92 206,-681.92 206,-675.92 206,-675.92 206,-663.92 206,-663.92 206,-657.92 212,-651.92 218,-651.92"/>
<text text-anchor="middle" x="264.62" y="-666.17" font-family="Helvetica,Arial,sans-serif" font-size="15.00" fill="#222831">aphrodite::app</text>
</g>
<!-- aphrodite::all&#45;&gt;aphrodite::app -->
<g id="edge9" class="edge">
<title>aphrodite::all&#45;&gt;aphrodite::app</title>
<path fill="none" stroke="#ff6500" d="M69.35,-448.11C80.28,-488.75 112.17,-587.46 175.25,-640.92 181.26,-646.01 188.2,-650.22 195.48,-653.69"/>
<polygon fill="#ff6500" stroke="#ff6500" points="204.46,-657.51 193.49,-657.73 200.98,-656.03 195.25,-653.59 195.25,-653.59 195.25,-653.59 200.98,-656.03 197.01,-649.45 204.46,-657.51"/>
</g>
<!-- aphrodite::global -->
<g id="node18" class="node">
<title>aphrodite::global</title>
<path fill="#d4c9be" stroke="black" stroke-width="1.5" d="M438.25,-704.92C438.25,-704.92 548,-704.92 548,-704.92 554,-704.92 560,-710.92 560,-716.92 560,-716.92 560,-728.92 560,-728.92 560,-734.92 554,-740.92 548,-740.92 548,-740.92 438.25,-740.92 438.25,-740.92 432.25,-740.92 426.25,-734.92 426.25,-728.92 426.25,-728.92 426.25,-716.92 426.25,-716.92 426.25,-710.92 432.25,-704.92 438.25,-704.92"/>
<text text-anchor="middle" x="493.12" y="-719.17" font-family="Helvetica,Arial,sans-serif" font-size="15.00" fill="#222831">aphrodite::global</text>
</g>
<!-- aphrodite::all&#45;&gt;aphrodite::global -->
<g id="edge5" class="edge">
<title>aphrodite::all&#45;&gt;aphrodite::global</title>
<path fill="none" stroke="#ff6500" d="M66.07,-448.31C70.41,-498.48 89.99,-638.06 175.25,-699.92 244.33,-750.03 345.66,-747.97 415.02,-738.49"/>
<polygon fill="#ff6500" stroke="#ff6500" points="424.66,-737.09 415.41,-742.98 420.92,-737.64 414.76,-738.53 414.76,-738.53 414.76,-738.53 420.92,-737.64 414.12,-734.08 424.66,-737.09"/>
</g>
<!-- aphrodite::engine -->
<g id="node19" class="node">
<title>aphrodite::engine</title>
<path fill="#d4c9be" stroke="black" stroke-width="1.5" d="M207.5,-171.92C207.5,-171.92 321.75,-171.92 321.75,-171.92 327.75,-171.92 333.75,-177.92 333.75,-183.92 333.75,-183.92 333.75,-195.92 333.75,-195.92 333.75,-201.92 327.75,-207.92 321.75,-207.92 321.75,-207.92 207.5,-207.92 207.5,-207.92 201.5,-207.92 195.5,-201.92 195.5,-195.92 195.5,-195.92 195.5,-183.92 195.5,-183.92 195.5,-177.92 201.5,-171.92 207.5,-171.92"/>
<text text-anchor="middle" x="264.62" y="-186.17" font-family="Helvetica,Arial,sans-serif" font-size="15.00" fill="#222831">aphrodite::engine</text>
</g>
<!-- aphrodite::all&#45;&gt;aphrodite::engine -->
<g id="edge14" class="edge">
<title>aphrodite::all&#45;&gt;aphrodite::engine</title>
<path fill="none" stroke="#ff6500" d="M110.28,-411.61C113.78,-409.04 117,-406.15 119.75,-402.92 174.99,-337.76 115.58,-280.04 175.25,-218.92 178.33,-215.76 181.77,-212.94 185.44,-210.43"/>
<polygon fill="#ff6500" stroke="#ff6500" points="193.95,-205.42 187.62,-214.37 190.69,-207.34 185.33,-210.49 185.33,-210.49 185.33,-210.49 190.69,-207.34 183.05,-206.62 193.95,-205.42"/>
</g>
<!-- aphrodite::common -->
<g id="node6" class="node">
<title>aphrodite::common</title>
<path fill="#d4c9be" stroke="black" stroke-width="1.5" d="M1056.25,-476.92C1056.25,-476.92 1186.25,-476.92 1186.25,-476.92 1192.25,-476.92 1198.25,-482.92 1198.25,-488.92 1198.25,-488.92 1198.25,-500.92 1198.25,-500.92 1198.25,-506.92 1192.25,-512.92 1186.25,-512.92 1186.25,-512.92 1056.25,-512.92 1056.25,-512.92 1050.25,-512.92 1044.25,-506.92 1044.25,-500.92 1044.25,-500.92 1044.25,-488.92 1044.25,-488.92 1044.25,-482.92 1050.25,-476.92 1056.25,-476.92"/>
<text text-anchor="middle" x="1121.25" y="-491.17" font-family="Helvetica,Arial,sans-serif" font-size="15.00" fill="#222831">aphrodite::common</text>
</g>
<!-- aphrodite::allocator&#45;&gt;aphrodite::common -->
<g id="edge17" class="edge">
<title>aphrodite::allocator&#45;&gt;aphrodite::common</title>
<path fill="none" stroke="#1e3e62" d="M962.65,-829.46C971.28,-824.71 979.58,-818.91 986.25,-811.92 1067.57,-726.58 1103.13,-584.51 1115.17,-523.83"/>
<polygon fill="#1e3e62" stroke="#1e3e62" points="1116.98,-514.34 1119.52,-525.01 1116.27,-518.06 1115.1,-524.16 1115.1,-524.16 1115.1,-524.16 1116.27,-518.06 1110.68,-523.32 1116.98,-514.34"/>
</g>
<!-- aphrodite::api&#45;&gt;aphrodite::allocator -->
<g id="edge20" class="edge">
<title>aphrodite::api&#45;&gt;aphrodite::allocator</title>
<path fill="none" stroke="#1e3e62" d="M516.75,-530.22C586.41,-586.59 797.85,-757.67 878.06,-822.58"/>
<polygon fill="#1e3e62" stroke="#1e3e62" points="885.79,-828.83 875.18,-826.04 882.85,-826.45 878.01,-822.54 878.01,-822.54 878.01,-822.54 882.85,-826.45 880.84,-819.04 885.79,-828.83"/>
</g>
<!-- aphrodite::api&#45;&gt;aphrodite::common -->
<g id="edge18" class="edge">
<title>aphrodite::api&#45;&gt;aphrodite::common</title>
<path fill="none" stroke="#1e3e62" d="M549.41,-510.41C658.38,-507.46 901.65,-500.85 1032.67,-497.29"/>
<polygon fill="#1e3e62" stroke="#1e3e62" points="1042.62,-497.02 1032.75,-501.79 1038.84,-497.13 1032.62,-497.29 1032.62,-497.29 1032.62,-497.29 1038.84,-497.13 1032.5,-492.8 1042.62,-497.02"/>
</g>
<!-- aphrodite::api&#45;&gt;aphrodite::module -->
<g id="edge22" class="edge">
<title>aphrodite::api&#45;&gt;aphrodite::module</title>
<path fill="none" stroke="#1e3e62" d="M549.41,-495.34C558.01,-491.8 566.58,-487.66 574.25,-482.92 596.97,-468.86 647.74,-417.85 678.41,-386.11"/>
<polygon fill="#1e3e62" stroke="#1e3e62" points="685.28,-378.98 681.58,-389.3 682.65,-381.7 678.34,-386.18 678.34,-386.18 678.34,-386.18 682.65,-381.7 675.1,-383.06 685.28,-378.98"/>
</g>
<!-- aphrodite::api&#45;&gt;aphrodite::threads -->
<g id="edge21" class="edge">
<title>aphrodite::api&#45;&gt;aphrodite::threads</title>
<path fill="none" stroke="#1e3e62" d="M505.2,-530.26C527.72,-567.17 581.07,-652.64 632.25,-719.92 646.88,-739.15 664.71,-759.69 678.85,-775.41"/>
<polygon fill="#1e3e62" stroke="#1e3e62" points="685.47,-782.7 675.41,-778.32 682.92,-779.9 678.75,-775.29 678.75,-775.29 678.75,-775.29 682.92,-779.9 682.08,-772.27 685.47,-782.7"/>
</g>
<!-- aphrodite::api&#45;&gt;aphrodite::wsi -->
<g id="edge19" class="edge">
<title>aphrodite::api&#45;&gt;aphrodite::wsi</title>
<path fill="none" stroke="#1e3e62" d="M545.31,-493.46C572.56,-486.3 606.43,-478.67 635.81,-473"/>
<polygon fill="#1e3e62" stroke="#1e3e62" points="645.63,-471.15 636.63,-477.42 641.91,-471.85 635.8,-473 635.8,-473 635.8,-473 641.91,-471.85 634.97,-468.58 645.63,-471.15"/>
</g>
<!-- aphrodite::cli&#45;&gt;aphrodite::common -->
<g id="edge23" class="edge">
<title>aphrodite::cli&#45;&gt;aphrodite::common</title>
<path fill="none" stroke="#1e3e62" d="M317.86,-242.95C442.73,-231.28 764.66,-216.66 986.25,-343.92 1039.04,-374.23 1081.87,-432.91 1103.97,-467.52"/>
<polygon fill="#1e3e62" stroke="#1e3e62" points="1108.99,-475.56 1099.88,-469.46 1106.99,-472.35 1103.69,-467.08 1103.69,-467.08 1103.69,-467.08 1106.99,-472.35 1107.51,-464.7 1108.99,-475.56"/>
</g>
<!-- aphrodite::event&#45;&gt;aphrodite::common -->
<g id="edge24" class="edge">
<title>aphrodite::event&#45;&gt;aphrodite::common</title>
<path fill="none" stroke="#1e3e62" d="M329.74,-14.13C468.4,5.26 798.75,29.75 986.25,-137.92 1085.85,-226.98 1111.69,-397.5 1118.17,-465.68"/>
<polygon fill="#1e3e62" stroke="#1e3e62" points="1119,-475.24 1113.65,-465.67 1118.67,-471.47 1118.13,-465.28 1118.13,-465.28 1118.13,-465.28 1118.67,-471.47 1122.62,-464.89 1119,-475.24"/>
</g>
<!-- aphrodite::filesystem&#45;&gt;aphrodite::common -->
<g id="edge25" class="edge">
<title>aphrodite::filesystem&#45;&gt;aphrodite::common</title>
<path fill="none" stroke="#1e3e62" d="M574.7,-442C593.54,-439.89 613.57,-437.99 632.25,-436.92 790,-427.81 830.52,-443.14 986.25,-469.92 1001.41,-472.52 1017.51,-475.42 1033.1,-478.28"/>
<polygon fill="#1e3e62" stroke="#1e3e62" points="1042.59,-480.04 1031.94,-482.65 1038.87,-479.35 1032.76,-478.22 1032.76,-478.22 1032.76,-478.22 1038.87,-479.35 1033.57,-473.8 1042.59,-480.04"/>
</g>
<!-- aphrodite::rendergraph&#45;&gt;aphrodite::api -->
<g id="edge27" class="edge">
<title>aphrodite::rendergraph&#45;&gt;aphrodite::api</title>
<path fill="none" stroke="#1e3e62" d="M325.97,-592.47C335.44,-589.19 345.05,-585.63 354,-581.92 386.81,-568.31 422.54,-550.1 449.45,-535.67"/>
<polygon fill="#1e3e62" stroke="#1e3e62" points="458.23,-530.92 451.57,-539.63 454.9,-532.72 449.43,-535.68 449.43,-535.68 449.43,-535.68 454.9,-532.72 447.29,-531.72 458.23,-530.92"/>
</g>
<!-- aphrodite::rendergraph&#45;&gt;aphrodite::common -->
<g id="edge26" class="edge">
<title>aphrodite::rendergraph&#45;&gt;aphrodite::common</title>
<path fill="none" stroke="#1e3e62" d="M354.32,-609.3C491.38,-605.26 762.23,-591.16 986.25,-541.92 1013.1,-536.01 1041.98,-526.34 1066.03,-517.29"/>
<polygon fill="#1e3e62" stroke="#1e3e62" points="1075.23,-513.77 1067.5,-521.55 1071.7,-515.12 1065.89,-517.35 1065.89,-517.35 1065.89,-517.35 1071.7,-515.12 1064.28,-513.14 1075.23,-513.77"/>
</g>
<!-- aphrodite::resource&#45;&gt;aphrodite::api -->
<g id="edge30" class="edge">
<title>aphrodite::resource&#45;&gt;aphrodite::api</title>
<path fill="none" stroke="#1e3e62" d="M341.36,-538.54C368.83,-533.69 399.61,-528.25 426.17,-523.56"/>
<polygon fill="#1e3e62" stroke="#1e3e62" points="435.69,-521.88 426.62,-528.05 431.96,-522.54 425.84,-523.62 425.84,-523.62 425.84,-523.62 431.96,-522.54 425.05,-519.19 435.69,-521.88"/>
</g>
<!-- aphrodite::resource&#45;&gt;aphrodite::common -->
<g id="edge29" class="edge">
<title>aphrodite::resource&#45;&gt;aphrodite::common</title>
<path fill="none" stroke="#1e3e62" d="M341.37,-551.67C472.96,-550.5 752.16,-544.74 986.25,-517.92 1001.49,-516.17 1017.63,-513.83 1033.23,-511.3"/>
<polygon fill="#1e3e62" stroke="#1e3e62" points="1042.73,-509.73 1033.6,-515.8 1039,-510.35 1032.86,-511.36 1032.86,-511.36 1032.86,-511.36 1039,-510.35 1032.13,-506.93 1042.73,-509.73"/>
</g>
<!-- aphrodite::resource&#45;&gt;aphrodite::filesystem -->
<g id="edge28" class="edge">
<title>aphrodite::resource&#45;&gt;aphrodite::filesystem</title>
<path fill="none" stroke="#1e3e62" d="M302.54,-533.48C331.92,-519.06 374.21,-498.87 412,-482.92 418.11,-480.34 424.52,-477.75 430.95,-475.23"/>
<polygon fill="#1e3e62" stroke="#1e3e62" points="439.88,-471.77 432.17,-479.58 436.35,-473.14 430.55,-475.38 430.55,-475.38 430.55,-475.38 436.35,-473.14 428.93,-471.18 439.88,-471.77"/>
</g>
<!-- aphrodite::resource&#45;&gt;aphrodite::math -->
<g id="edge31" class="edge">
<title>aphrodite::resource&#45;&gt;aphrodite::math</title>
<path fill="none" stroke="#1e3e62" d="M276.25,-533.63C312.66,-470.93 432.58,-264.44 476.14,-189.44"/>
<polygon fill="#1e3e62" stroke="#1e3e62" points="480.92,-181.22 479.78,-192.12 479.02,-184.49 475.89,-189.86 475.89,-189.86 475.89,-189.86 479.02,-184.49 472,-187.6 480.92,-181.22"/>
</g>
<!-- aphrodite::resource&#45;&gt;aphrodite::global -->
<g id="edge32" class="edge">
<title>aphrodite::resource&#45;&gt;aphrodite::global</title>
<path fill="none" stroke="#1e3e62" d="M331.42,-570.35C339.29,-573.68 347.01,-577.52 354,-581.92 403.1,-612.8 447.67,-664.5 472.22,-695.98"/>
<polygon fill="#1e3e62" stroke="#1e3e62" points="478.15,-703.7 468.49,-698.51 475.85,-700.7 472.06,-695.77 472.06,-695.77 472.06,-695.77 475.85,-700.7 475.63,-693.03 478.15,-703.7"/>
</g>
<!-- aphrodite::scene&#45;&gt;aphrodite::common -->
<g id="edge34" class="edge">
<title>aphrodite::scene&#45;&gt;aphrodite::common</title>
<path fill="none" stroke="#1e3e62" d="M330.82,-78.01C467.67,-69.19 788.51,-67.79 986.25,-222.92 1066.48,-285.86 1102.02,-409.3 1114.56,-465.63"/>
<polygon fill="#1e3e62" stroke="#1e3e62" points="1116.64,-475.39 1110.16,-466.55 1115.86,-471.7 1114.56,-465.61 1114.56,-465.61 1114.56,-465.61 1115.86,-471.7 1118.96,-464.68 1116.64,-475.39"/>
</g>
<!-- aphrodite::scene&#45;&gt;aphrodite::math -->
<g id="edge33" class="edge">
<title>aphrodite::scene&#45;&gt;aphrodite::math</title>
<path fill="none" stroke="#1e3e62" d="M319.3,-102.4C351.9,-113.63 393.72,-128.03 428.05,-139.85"/>
<polygon fill="#1e3e62" stroke="#1e3e62" points="437.29,-143.03 426.37,-144.03 433.71,-141.8 427.83,-139.78 427.83,-139.78 427.83,-139.78 433.71,-141.8 429.3,-135.52 437.29,-143.03"/>
</g>
<!-- aphrodite::threads&#45;&gt;aphrodite::allocator -->
<g id="edge36" class="edge">
<title>aphrodite::threads&#45;&gt;aphrodite::allocator</title>
<path fill="none" stroke="#1e3e62" d="M776.72,-818C791.85,-821.41 807.96,-825.05 823.56,-828.56"/>
<polygon fill="#1e3e62" stroke="#1e3e62" points="833.07,-830.71 822.32,-832.9 829.38,-829.88 823.31,-828.51 823.31,-828.51 823.31,-828.51 829.38,-829.88 824.3,-824.12 833.07,-830.71"/>
</g>
<!-- aphrodite::threads&#45;&gt;aphrodite::common -->
<g id="edge35" class="edge">
<title>aphrodite::threads&#45;&gt;aphrodite::common</title>
<path fill="none" stroke="#1e3e62" d="M776.96,-810.42C838.09,-813.85 925.51,-809.23 986.25,-765.92 1069.4,-706.61 1103.57,-580.88 1115.17,-523.98"/>
<polygon fill="#1e3e62" stroke="#1e3e62" points="1117.03,-514.44 1119.54,-525.11 1116.3,-518.15 1115.12,-524.25 1115.12,-524.25 1115.12,-524.25 1116.3,-518.15 1110.7,-523.39 1117.03,-514.44"/>
</g>
<!-- aphrodite::ui&#45;&gt;aphrodite::api -->
<g id="edge39" class="edge">
<title>aphrodite::ui&#45;&gt;aphrodite::api</title>
<path fill="none" stroke="#1e3e62" d="M276.31,-326.26C297.71,-361.47 349.21,-438.96 412,-482.92 416.58,-486.12 421.55,-489.01 426.7,-491.61"/>
<polygon fill="#1e3e62" stroke="#1e3e62" points="435.66,-495.75 424.7,-495.64 432.23,-494.16 426.58,-491.56 426.58,-491.56 426.58,-491.56 432.23,-494.16 428.47,-487.47 435.66,-495.75"/>
</g>
<!-- aphrodite::ui&#45;&gt;aphrodite::common -->
<g id="edge38" class="edge">
<title>aphrodite::ui&#45;&gt;aphrodite::common</title>
<path fill="none" stroke="#1e3e62" d="M316.99,-303.58C410.18,-297.16 612.64,-289.93 776.5,-330.92 894.93,-360.53 1021.33,-432.73 1082.6,-470.69"/>
<polygon fill="#1e3e62" stroke="#1e3e62" points="1090.83,-475.83 1079.97,-474.35 1087.63,-473.82 1082.35,-470.53 1082.35,-470.53 1082.35,-470.53 1087.63,-473.82 1084.74,-466.71 1090.83,-475.83"/>
</g>
<!-- aphrodite::ui&#45;&gt;aphrodite::math -->
<g id="edge37" class="edge">
<title>aphrodite::ui&#45;&gt;aphrodite::math</title>
<path fill="none" stroke="#1e3e62" d="M316.59,-294.89C329.22,-290.68 342.44,-285.38 354,-278.92 398.06,-254.28 441.2,-214.5 467.24,-188.28"/>
<polygon fill="#1e3e62" stroke="#1e3e62" points="474.22,-181.15 470.44,-191.44 471.57,-183.85 467.22,-188.29 467.22,-188.29 467.22,-188.29 471.57,-183.85 464,-185.15 474.22,-181.15"/>
</g>
<!-- aphrodite::wsi&#45;&gt;aphrodite::api -->
<g id="edge41" class="edge">
<title>aphrodite::wsi&#45;&gt;aphrodite::api</title>
<path fill="none" stroke="#1e3e62" d="M652.13,-484.39C624.39,-491.67 589.82,-499.45 560.09,-505.14"/>
<polygon fill="#1e3e62" stroke="#1e3e62" points="550.57,-506.92 559.58,-500.66 554.29,-506.22 560.4,-505.08 560.4,-505.08 560.4,-505.08 554.29,-506.22 561.23,-509.51 550.57,-506.92"/>
</g>
<!-- aphrodite::wsi&#45;&gt;aphrodite::common -->
<g id="edge40" class="edge">
<title>aphrodite::wsi&#45;&gt;aphrodite::common</title>
<path fill="none" stroke="#1e3e62" d="M761.76,-469.86C831.55,-474.74 951.17,-483.1 1032.88,-488.81"/>
<polygon fill="#1e3e62" stroke="#1e3e62" points="1042.69,-489.49 1032.4,-493.29 1038.92,-489.23 1032.71,-488.8 1032.71,-488.8 1032.71,-488.8 1038.92,-489.23 1033.03,-484.31 1042.69,-489.49"/>
</g>
<!-- aphrodite::app&#45;&gt;aphrodite::common -->
<g id="edge42" class="edge">
<title>aphrodite::app&#45;&gt;aphrodite::common</title>
<path fill="none" stroke="#1e3e62" d="M323.48,-669.87C448.19,-668.13 750.16,-655 986.25,-572.92 1022.71,-560.24 1060.36,-537.29 1086.44,-519.56"/>
<polygon fill="#1e3e62" stroke="#1e3e62" points="1094.5,-513.98 1088.83,-523.37 1091.39,-516.13 1086.27,-519.67 1086.27,-519.67 1086.27,-519.67 1091.39,-516.13 1083.71,-515.97 1094.5,-513.98"/>
</g>
<!-- aphrodite::app&#45;&gt;aphrodite::global -->
<g id="edge43" class="edge">
<title>aphrodite::app&#45;&gt;aphrodite::global</title>
<path fill="none" stroke="#1e3e62" d="M323.66,-683.5C351.44,-690 385.1,-697.87 415,-704.87"/>
<polygon fill="#1e3e62" stroke="#1e3e62" points="424.64,-707.12 413.88,-709.23 420.96,-706.26 414.9,-704.85 414.9,-704.85 414.9,-704.85 420.96,-706.26 415.93,-700.46 424.64,-707.12"/>
</g>
<!-- aphrodite::global&#45;&gt;aphrodite::common -->
<g id="edge45" class="edge">
<title>aphrodite::global&#45;&gt;aphrodite::common</title>
<path fill="none" stroke="#1e3e62" d="M560.42,-732.34C659.88,-743.12 850.53,-750.5 986.25,-673.92 1047.23,-639.51 1088.81,-564.72 1108.04,-523.54"/>
<polygon fill="#1e3e62" stroke="#1e3e62" points="1112.16,-514.46 1112.13,-525.43 1110.6,-517.91 1108.03,-523.57 1108.03,-523.57 1108.03,-523.57 1110.6,-517.91 1103.93,-521.71 1112.16,-514.46"/>
</g>
<!-- aphrodite::global&#45;&gt;aphrodite::threads -->
<g id="edge44" class="edge">
<title>aphrodite::global&#45;&gt;aphrodite::threads</title>
<path fill="none" stroke="#1e3e62" d="M542.92,-741.34C573.21,-752.77 612.34,-767.55 644.37,-779.64"/>
<polygon fill="#1e3e62" stroke="#1e3e62" points="653.36,-783.03 642.42,-783.71 649.82,-781.7 644.01,-779.5 644.01,-779.5 644.01,-779.5 649.82,-781.7 645.6,-775.29 653.36,-783.03"/>
</g>
<!-- aphrodite::engine&#45;&gt;aphrodite::api -->
<g id="edge47" class="edge">
<title>aphrodite::engine&#45;&gt;aphrodite::api</title>
<path fill="none" stroke="#1e3e62" d="M333.82,-203.95C341.38,-207.79 348.37,-212.69 354,-218.92 434.56,-308.03 332.8,-392.59 412,-482.92 416.25,-487.76 421.37,-491.8 426.95,-495.16"/>
<polygon fill="#1e3e62" stroke="#1e3e62" points="435.61,-499.64 424.66,-499.04 432.25,-497.9 426.73,-495.04 426.73,-495.04 426.73,-495.04 432.25,-497.9 428.8,-491.05 435.61,-499.64"/>
</g>
<!-- aphrodite::engine&#45;&gt;aphrodite::common -->
<g id="edge46" class="edge">
<title>aphrodite::engine&#45;&gt;aphrodite::common</title>
<path fill="none" stroke="#1e3e62" d="M333.98,-190.18C492.8,-192.02 881.19,-203.97 986.25,-275.92 1055.02,-323.01 1094.83,-418.17 1111.28,-466.03"/>
<polygon fill="#1e3e62" stroke="#1e3e62" points="1114.41,-475.43 1106.98,-467.36 1113.22,-471.84 1111.25,-465.94 1111.25,-465.94 1111.25,-465.94 1113.22,-471.84 1115.52,-464.52 1114.41,-475.43"/>
</g>
<!-- aphrodite::engine&#45;&gt;aphrodite::math -->
<g id="edge48" class="edge">
<title>aphrodite::engine&#45;&gt;aphrodite::math</title>
<path fill="none" stroke="#1e3e62" d="M334.2,-181.44C360.63,-178.17 390.94,-174.42 417.88,-171.09"/>
<polygon fill="#1e3e62" stroke="#1e3e62" points="427.6,-169.89 418.23,-175.58 423.85,-170.36 417.68,-171.12 417.68,-171.12 417.68,-171.12 423.85,-170.36 417.12,-166.65 427.6,-169.89"/>
</g>
</g>
</svg>
