<?xml version="1.0" encoding="UTF-8" standalone="no"?>
<!DOCTYPE svg PUBLIC "-//W3C//DTD SVG 1.1//EN"
 "http://www.w3.org/Graphics/SVG/1.1/DTD/svg11.dtd">
<!-- Generated by graphviz version 12.2.1 (20241206.2353)
 -->
<!-- Title: CMakeDependencyGraph Pages: 1 -->
<svg width="1136pt" height="1023pt"
 viewBox="0.00 0.00 1135.75 1023.00" xmlns="http://www.w3.org/2000/svg" xmlns:xlink="http://www.w3.org/1999/xlink">
<g id="graph0" class="graph" transform="scale(1 1) rotate(0) translate(4 1019)">
<title>CMakeDependencyGraph</title>
<polygon fill="white" stroke="none" points="-4,4 -4,-1019 1131.75,-1019 1131.75,4 -4,4"/>
<!-- aphrodite::all -->
<g id="node1" class="node">
<title>aphrodite::all</title>
<polygon fill="gold" stroke="black" stroke-width="2" points="80.75,-618 4,-618 4,-582 80.75,-582 80.75,-618"/>
<polygon fill="none" stroke="black" stroke-width="2" points="84.75,-622 0,-622 0,-578 84.75,-578 84.75,-622"/>
<text text-anchor="middle" x="42.38" y="-597.62" font-family="Arial" font-size="10.00">aphrodite::all</text>
</g>
<!-- aphrodite::allocator -->
<g id="node2" class="node">
<title>aphrodite::allocator</title>
<polygon fill="lightblue" stroke="black" points="931.5,-675 824.75,-675 824.75,-639 931.5,-639 931.5,-675"/>
<text text-anchor="middle" x="878.12" y="-654.62" font-family="Arial" font-size="10.00">aphrodite::allocator</text>
</g>
<!-- aphrodite::all&#45;&gt;aphrodite::allocator -->
<g id="edge2" class="edge">
<title>aphrodite::all&#45;&gt;aphrodite::allocator</title>
<path fill="none" stroke="forestgreen" d="M63,-622.09C86.17,-646.47 127.15,-684.56 171.25,-702 363.01,-777.83 427.7,-730.77 633.75,-739 679.16,-740.81 692.12,-750.82 736,-739 741.56,-737.5 797.07,-704.78 836.78,-681.13"/>
<polygon fill="forestgreen" stroke="forestgreen" points="838.4,-684.24 845.19,-676.12 834.81,-678.23 838.4,-684.24"/>
<text text-anchor="middle" x="487.88" y="-748.92" font-family="Arial" font-size="8.00">PUBLIC</text>
</g>
<!-- aphrodite::api -->
<g id="node3" class="node">
<title>aphrodite::api</title>
<polygon fill="lightblue" stroke="black" points="528.12,-657 447.62,-657 447.62,-621 528.12,-621 528.12,-657"/>
<text text-anchor="middle" x="487.88" y="-636.62" font-family="Arial" font-size="10.00">aphrodite::api</text>
</g>
<!-- aphrodite::all&#45;&gt;aphrodite::api -->
<g id="edge12" class="edge">
<title>aphrodite::all&#45;&gt;aphrodite::api</title>
<path fill="none" stroke="forestgreen" d="M84.95,-617.94C139.15,-640.26 237.47,-677.13 325.75,-691 359.12,-696.24 369.23,-700.15 401.75,-691 421.08,-685.56 440.36,-674.39 455.67,-663.78"/>
<polygon fill="forestgreen" stroke="forestgreen" points="457.36,-666.88 463.43,-658.2 453.27,-661.2 457.36,-666.88"/>
<text text-anchor="middle" x="234" y="-689.77" font-family="Arial" font-size="8.00">PUBLIC</text>
</g>
<!-- aphrodite::cli -->
<g id="node4" class="node">
<title>aphrodite::cli</title>
<polygon fill="lightblue" stroke="black" points="401.75,-1015 325.75,-1015 325.75,-979 401.75,-979 401.75,-1015"/>
<text text-anchor="middle" x="363.75" y="-994.62" font-family="Arial" font-size="10.00">aphrodite::cli</text>
</g>
<!-- aphrodite::all&#45;&gt;aphrodite::cli -->
<g id="edge8" class="edge">
<title>aphrodite::all&#45;&gt;aphrodite::cli</title>
<path fill="none" stroke="forestgreen" d="M44.49,-622.27C48.51,-693.21 64.75,-912.02 113.75,-959 166.94,-1010 258,-1010.32 314.02,-1004.59"/>
<polygon fill="forestgreen" stroke="forestgreen" points="314.38,-1008.07 323.91,-1003.46 313.58,-1001.11 314.38,-1008.07"/>
<text text-anchor="middle" x="128" y="-983.29" font-family="Arial" font-size="8.00">PUBLIC</text>
</g>
<!-- aphrodite::filesystem -->
<g id="node7" class="node">
<title>aphrodite::filesystem</title>
<polygon fill="lightblue" stroke="black" points="545,-852 430.75,-852 430.75,-816 545,-816 545,-852"/>
<text text-anchor="middle" x="487.88" y="-831.62" font-family="Arial" font-size="10.00">aphrodite::filesystem</text>
</g>
<!-- aphrodite::all&#45;&gt;aphrodite::filesystem -->
<g id="edge4" class="edge">
<title>aphrodite::all&#45;&gt;aphrodite::filesystem</title>
<path fill="none" stroke="forestgreen" d="M44.38,-622.38C47.52,-667.5 60.45,-770.46 113.75,-834 189.82,-924.7 347.41,-885.91 431.38,-856.28"/>
<polygon fill="forestgreen" stroke="forestgreen" points="432.35,-859.66 440.56,-852.97 429.97,-853.07 432.35,-859.66"/>
<text text-anchor="middle" x="234" y="-894.87" font-family="Arial" font-size="8.00">PUBLIC</text>
</g>
<!-- aphrodite::math -->
<g id="node8" class="node">
<title>aphrodite::math</title>
<polygon fill="lightblue" stroke="black" points="533.38,-365 442.38,-365 442.38,-329 533.38,-329 533.38,-365"/>
<text text-anchor="middle" x="487.88" y="-344.62" font-family="Arial" font-size="10.00">aphrodite::math</text>
</g>
<!-- aphrodite::all&#45;&gt;aphrodite::math -->
<g id="edge1" class="edge">
<title>aphrodite::all&#45;&gt;aphrodite::math</title>
<path fill="none" stroke="forestgreen" d="M49.77,-577.65C59.67,-545.79 81.05,-486.58 113.75,-445 133.81,-419.49 142.02,-414.1 171.25,-400 255.4,-359.4 365.18,-349.27 430.61,-347.1"/>
<polygon fill="forestgreen" stroke="forestgreen" points="430.49,-350.6 440.39,-346.83 430.3,-343.6 430.49,-350.6"/>
<text text-anchor="middle" x="234" y="-404.4" font-family="Arial" font-size="8.00">PUBLIC</text>
</g>
<!-- aphrodite::module -->
<g id="node9" class="node">
<title>aphrodite::module</title>
<polygon fill="lightblue" stroke="black" points="736,-956 633.75,-956 633.75,-920 736,-920 736,-956"/>
<text text-anchor="middle" x="684.88" y="-935.62" font-family="Arial" font-size="10.00">aphrodite::module</text>
</g>
<!-- aphrodite::all&#45;&gt;aphrodite::module -->
<g id="edge6" class="edge">
<title>aphrodite::all&#45;&gt;aphrodite::module</title>
<path fill="none" stroke="forestgreen" d="M43.25,-622.13C44.29,-685.42 57.4,-865.28 171.25,-907 325.66,-963.58 523.68,-954.72 622.31,-945.35"/>
<polygon fill="forestgreen" stroke="forestgreen" points="622.43,-948.85 632.04,-944.39 621.75,-941.89 622.43,-948.85"/>
<text text-anchor="middle" x="363.75" y="-954.23" font-family="Arial" font-size="8.00">PUBLIC</text>
</g>
<!-- aphrodite::rendergraph -->
<g id="node10" class="node">
<title>aphrodite::rendergraph</title>
<polygon fill="lightblue" stroke="black" points="296.75,-852 171.25,-852 171.25,-816 296.75,-816 296.75,-852"/>
<text text-anchor="middle" x="234" y="-831.62" font-family="Arial" font-size="10.00">aphrodite::rendergraph</text>
</g>
<!-- aphrodite::all&#45;&gt;aphrodite::rendergraph -->
<g id="edge14" class="edge">
<title>aphrodite::all&#45;&gt;aphrodite::rendergraph</title>
<path fill="none" stroke="forestgreen" d="M44.82,-622.34C48.69,-663.33 62.8,-750.75 113.75,-799 126.47,-811.05 143.12,-818.97 159.93,-824.18"/>
<polygon fill="forestgreen" stroke="forestgreen" points="158.93,-827.54 169.5,-826.82 160.79,-820.79 158.93,-827.54"/>
<text text-anchor="middle" x="128" y="-821.62" font-family="Arial" font-size="8.00">PUBLIC</text>
</g>
<!-- aphrodite::resource -->
<g id="node11" class="node">
<title>aphrodite::resource</title>
<polygon fill="lightblue" stroke="black" points="287.75,-618 180.25,-618 180.25,-582 287.75,-582 287.75,-618"/>
<text text-anchor="middle" x="234" y="-597.62" font-family="Arial" font-size="10.00">aphrodite::resource</text>
</g>
<!-- aphrodite::all&#45;&gt;aphrodite::resource -->
<g id="edge11" class="edge">
<title>aphrodite::all&#45;&gt;aphrodite::resource</title>
<path fill="none" stroke="forestgreen" d="M84.99,-600C109.52,-600 141.07,-600 168.74,-600"/>
<polygon fill="forestgreen" stroke="forestgreen" points="168.41,-603.5 178.41,-600 168.41,-596.5 168.41,-603.5"/>
<text text-anchor="middle" x="128" y="-604.4" font-family="Arial" font-size="8.00">PUBLIC</text>
</g>
<!-- aphrodite::scene -->
<g id="node12" class="node">
<title>aphrodite::scene</title>
<polygon fill="lightblue" stroke="black" points="281,-245 187,-245 187,-209 281,-209 281,-245"/>
<text text-anchor="middle" x="234" y="-224.62" font-family="Arial" font-size="10.00">aphrodite::scene</text>
</g>
<!-- aphrodite::all&#45;&gt;aphrodite::scene -->
<g id="edge15" class="edge">
<title>aphrodite::all&#45;&gt;aphrodite::scene</title>
<path fill="none" stroke="forestgreen" d="M45.72,-577.83C52.9,-513.48 76.41,-328.34 113.75,-282 129.36,-262.62 153.34,-249.77 175.71,-241.4"/>
<polygon fill="forestgreen" stroke="forestgreen" points="176.79,-244.73 185.09,-238.14 174.49,-238.12 176.79,-244.73"/>
<text text-anchor="middle" x="128" y="-286.4" font-family="Arial" font-size="8.00">PUBLIC</text>
</g>
<!-- aphrodite::threads -->
<g id="node13" class="node">
<title>aphrodite::threads</title>
<polygon fill="lightblue" stroke="black" points="736,-510 633.75,-510 633.75,-474 736,-474 736,-510"/>
<text text-anchor="middle" x="684.88" y="-489.62" font-family="Arial" font-size="10.00">aphrodite::threads</text>
</g>
<!-- aphrodite::all&#45;&gt;aphrodite::threads -->
<g id="edge3" class="edge">
<title>aphrodite::all&#45;&gt;aphrodite::threads</title>
<path fill="none" stroke="forestgreen" d="M84.99,-578.31C138.84,-551.58 236.38,-507.65 325.75,-491 428.44,-471.87 550.6,-478.28 622.43,-484.95"/>
<polygon fill="forestgreen" stroke="forestgreen" points="621.72,-488.39 632.01,-485.87 622.39,-481.43 621.72,-488.39"/>
<text text-anchor="middle" x="363.75" y="-495.4" font-family="Arial" font-size="8.00">PUBLIC</text>
</g>
<!-- aphrodite::ui -->
<g id="node14" class="node">
<title>aphrodite::ui</title>
<polygon fill="lightblue" stroke="black" points="271.62,-303 196.38,-303 196.38,-267 271.62,-267 271.62,-303"/>
<text text-anchor="middle" x="234" y="-282.62" font-family="Arial" font-size="10.00">aphrodite::ui</text>
</g>
<!-- aphrodite::all&#45;&gt;aphrodite::ui -->
<g id="edge7" class="edge">
<title>aphrodite::all&#45;&gt;aphrodite::ui</title>
<path fill="none" stroke="forestgreen" d="M46.06,-577.51C53.67,-517.47 77.2,-355.49 113.75,-318 132.2,-299.08 160.45,-290.72 184.83,-287.15"/>
<polygon fill="forestgreen" stroke="forestgreen" points="185.06,-290.64 194.56,-285.97 184.21,-283.69 185.06,-290.64"/>
<text text-anchor="middle" x="128" y="-322.4" font-family="Arial" font-size="8.00">PUBLIC</text>
</g>
<!-- aphrodite::wsi -->
<g id="node15" class="node">
<title>aphrodite::wsi</title>
<polygon fill="lightblue" stroke="black" points="725.5,-728 644.25,-728 644.25,-692 725.5,-692 725.5,-728"/>
<text text-anchor="middle" x="684.88" y="-707.62" font-family="Arial" font-size="10.00">aphrodite::wsi</text>
</g>
<!-- aphrodite::all&#45;&gt;aphrodite::wsi -->
<g id="edge10" class="edge">
<title>aphrodite::all&#45;&gt;aphrodite::wsi</title>
<path fill="none" stroke="forestgreen" d="M46.15,-622.33C51.83,-657.27 68.33,-723.9 113.75,-753 194.44,-804.7 450.24,-767.33 545,-753 574.92,-748.47 607.27,-738.76 633.21,-729.71"/>
<polygon fill="forestgreen" stroke="forestgreen" points="634.25,-733.05 642.49,-726.39 631.89,-726.46 634.25,-733.05"/>
<text text-anchor="middle" x="363.75" y="-781.94" font-family="Arial" font-size="8.00">PUBLIC</text>
</g>
<!-- aphrodite::app -->
<g id="node16" class="node">
<title>aphrodite::app</title>
<polygon fill="lightblue" stroke="black" points="276.12,-99 191.88,-99 191.88,-63 276.12,-63 276.12,-99"/>
<text text-anchor="middle" x="234" y="-78.62" font-family="Arial" font-size="10.00">aphrodite::app</text>
</g>
<!-- aphrodite::all&#45;&gt;aphrodite::app -->
<g id="edge9" class="edge">
<title>aphrodite::all&#45;&gt;aphrodite::app</title>
<path fill="none" stroke="forestgreen" d="M43.48,-577.75C44.36,-492.01 51.82,-184.28 113.75,-114 130.29,-95.23 156.45,-86.71 180.07,-83"/>
<polygon fill="forestgreen" stroke="forestgreen" points="180.43,-86.48 189.9,-81.73 179.53,-79.54 180.43,-86.48"/>
<text text-anchor="middle" x="128" y="-118.4" font-family="Arial" font-size="8.00">PUBLIC</text>
</g>
<!-- aphrodite::global -->
<g id="node17" class="node">
<title>aphrodite::global</title>
<polygon fill="lightblue" stroke="black" points="535.25,-140 440.5,-140 440.5,-104 535.25,-104 535.25,-140"/>
<text text-anchor="middle" x="487.88" y="-119.62" font-family="Arial" font-size="10.00">aphrodite::global</text>
</g>
<!-- aphrodite::all&#45;&gt;aphrodite::global -->
<g id="edge5" class="edge">
<title>aphrodite::all&#45;&gt;aphrodite::global</title>
<path fill="none" stroke="forestgreen" d="M44.12,-577.74C46.79,-520.93 58.94,-367.08 113.75,-254 131.01,-218.38 137.19,-206.16 171.25,-186 214.13,-160.62 350.29,-139.56 429.06,-129.1"/>
<polygon fill="forestgreen" stroke="forestgreen" points="429.29,-132.6 438.75,-127.83 428.38,-125.66 429.29,-132.6"/>
<text text-anchor="middle" x="234" y="-190.4" font-family="Arial" font-size="8.00">PUBLIC</text>
</g>
<!-- aphrodite::engine -->
<g id="node18" class="node">
<title>aphrodite::engine</title>
<polygon fill="lightblue" stroke="black" points="283.62,-459 184.38,-459 184.38,-423 283.62,-423 283.62,-459"/>
<text text-anchor="middle" x="234" y="-438.62" font-family="Arial" font-size="10.00">aphrodite::engine</text>
</g>
<!-- aphrodite::all&#45;&gt;aphrodite::engine -->
<g id="edge13" class="edge">
<title>aphrodite::all&#45;&gt;aphrodite::engine</title>
<path fill="none" stroke="forestgreen" d="M48.44,-577.71C56.63,-547.02 75.85,-492.33 113.75,-464 130.56,-451.44 152.32,-445.17 172.64,-442.19"/>
<polygon fill="forestgreen" stroke="forestgreen" points="173.05,-445.67 182.57,-441.01 172.22,-438.72 173.05,-445.67"/>
<text text-anchor="middle" x="128" y="-468.4" font-family="Arial" font-size="8.00">PUBLIC</text>
</g>
<!-- aphrodite::common -->
<g id="node5" class="node">
<title>aphrodite::common</title>
<polygon fill="lightblue" stroke="black" points="1127.75,-522 1020.25,-522 1020.25,-486 1127.75,-486 1127.75,-522"/>
<text text-anchor="middle" x="1074" y="-501.62" font-family="Arial" font-size="10.00">aphrodite::common</text>
</g>
<!-- aphrodite::allocator&#45;&gt;aphrodite::common -->
<g id="edge16" class="edge">
<title>aphrodite::allocator&#45;&gt;aphrodite::common</title>
<path fill="none" stroke="forestgreen" d="M931.84,-648.14C951.82,-642.92 973.91,-634.74 991.25,-622 1022.84,-598.78 1046.48,-559.54 1060.01,-532.73"/>
<polygon fill="forestgreen" stroke="forestgreen" points="1063.13,-534.32 1064.36,-523.8 1056.83,-531.26 1063.13,-534.32"/>
<text text-anchor="middle" x="975.88" y="-641.91" font-family="Arial" font-size="8.00">PUBLIC</text>
</g>
<!-- aphrodite::api&#45;&gt;aphrodite::allocator -->
<g id="edge19" class="edge">
<title>aphrodite::api&#45;&gt;aphrodite::allocator</title>
<path fill="none" stroke="darkblue" d="M528.6,-640.84C595.88,-643.96 732.8,-650.31 813.55,-654.05"/>
<polygon fill="darkblue" stroke="darkblue" points="812.89,-657.53 823.04,-654.49 813.22,-650.53 812.89,-657.53"/>
<text text-anchor="middle" x="684.88" y="-654.77" font-family="Arial" font-size="8.00">PRIVATE</text>
</g>
<!-- aphrodite::api&#45;&gt;aphrodite::common -->
<g id="edge17" class="edge">
<title>aphrodite::api&#45;&gt;aphrodite::common</title>
<path fill="none" stroke="darkblue" d="M528.54,-635.15C614.63,-626.02 824.26,-599.52 991.25,-544 1004.37,-539.64 1018.07,-533.59 1030.42,-527.51"/>
<polygon fill="darkblue" stroke="darkblue" points="1031.75,-530.76 1039.09,-523.11 1028.59,-524.51 1031.75,-530.76"/>
<text text-anchor="middle" x="780.38" y="-604.57" font-family="Arial" font-size="8.00">PRIVATE</text>
</g>
<!-- aphrodite::api&#45;&gt;aphrodite::module -->
<g id="edge21" class="edge">
<title>aphrodite::api&#45;&gt;aphrodite::module</title>
<path fill="none" stroke="darkblue" d="M505.7,-657.37C517.62,-670.97 533.47,-690.3 545,-709 594.76,-789.71 573.02,-830.18 633.75,-903 636.58,-906.39 639.8,-909.6 643.23,-912.6"/>
<polygon fill="darkblue" stroke="darkblue" points="640.85,-915.18 650.86,-918.67 645.21,-909.7 640.85,-915.18"/>
<text text-anchor="middle" x="589.38" y="-863.27" font-family="Arial" font-size="8.00">PRIVATE</text>
</g>
<!-- aphrodite::api&#45;&gt;aphrodite::threads -->
<g id="edge20" class="edge">
<title>aphrodite::api&#45;&gt;aphrodite::threads</title>
<path fill="none" stroke="darkblue" d="M511.45,-620.57C528.49,-606.75 552.54,-587.46 574,-571 600.17,-550.93 606.95,-546.22 633.75,-527 638.38,-523.68 643.26,-520.22 648.1,-516.82"/>
<polygon fill="darkblue" stroke="darkblue" points="649.83,-519.88 656.01,-511.27 645.82,-514.14 649.83,-519.88"/>
<text text-anchor="middle" x="589.38" y="-575.4" font-family="Arial" font-size="8.00">PRIVATE</text>
</g>
<!-- aphrodite::api&#45;&gt;aphrodite::wsi -->
<g id="edge18" class="edge">
<title>aphrodite::api&#45;&gt;aphrodite::wsi</title>
<path fill="none" stroke="darkblue" d="M528.49,-646.42C551.23,-651.29 580.07,-658.52 604.75,-668 617.79,-673.01 631.43,-679.67 643.63,-686.22"/>
<polygon fill="darkblue" stroke="darkblue" points="641.73,-689.16 652.18,-690.92 645.1,-683.03 641.73,-689.16"/>
<text text-anchor="middle" x="589.38" y="-672.4" font-family="Arial" font-size="8.00">PRIVATE</text>
</g>
<!-- aphrodite::cli&#45;&gt;aphrodite::common -->
<g id="edge22" class="edge">
<title>aphrodite::cli&#45;&gt;aphrodite::common</title>
<path fill="none" stroke="darkblue" d="M401.94,-997.8C446.32,-998.69 522.76,-1000 588.38,-1000 588.38,-1000 588.38,-1000 879.12,-1000 945.02,-1000 957.95,-959.86 991.25,-903 1063.39,-779.82 1072.59,-602.79 1073.26,-533.44"/>
<polygon fill="darkblue" stroke="darkblue" points="1076.76,-533.68 1073.29,-523.67 1069.76,-533.65 1076.76,-533.68"/>
<text text-anchor="middle" x="684.88" y="-1004.4" font-family="Arial" font-size="8.00">PRIVATE</text>
</g>
<!-- aphrodite::event -->
<g id="node6" class="node">
<title>aphrodite::event</title>
<polygon fill="lightblue" stroke="black" points="924.75,-36 831.5,-36 831.5,0 924.75,0 924.75,-36"/>
<text text-anchor="middle" x="878.12" y="-15.62" font-family="Arial" font-size="10.00">aphrodite::event</text>
</g>
<!-- aphrodite::event&#45;&gt;aphrodite::common -->
<g id="edge23" class="edge">
<title>aphrodite::event&#45;&gt;aphrodite::common</title>
<path fill="none" stroke="darkblue" d="M925.23,-16.02C948.09,-17.58 974.35,-23.62 991.25,-41 1051.85,-103.29 1068.2,-382.3 1071.98,-474.4"/>
<polygon fill="darkblue" stroke="darkblue" points="1068.48,-474.26 1072.36,-484.12 1075.47,-473.99 1068.48,-474.26"/>
<text text-anchor="middle" x="975.88" y="-45.4" font-family="Arial" font-size="8.00">PRIVATE</text>
</g>
<!-- aphrodite::filesystem&#45;&gt;aphrodite::common -->
<g id="edge24" class="edge">
<title>aphrodite::filesystem&#45;&gt;aphrodite::common</title>
<path fill="none" stroke="darkblue" d="M545.45,-830.38C632.77,-822.84 803.64,-800.18 931.5,-734 1010.85,-692.93 1050.48,-585.53 1065.55,-533.33"/>
<polygon fill="darkblue" stroke="darkblue" points="1068.85,-534.52 1068.15,-523.95 1062.11,-532.65 1068.85,-534.52"/>
<text text-anchor="middle" x="780.38" y="-798.6" font-family="Arial" font-size="8.00">PRIVATE</text>
</g>
<!-- aphrodite::rendergraph&#45;&gt;aphrodite::api -->
<g id="edge26" class="edge">
<title>aphrodite::rendergraph&#45;&gt;aphrodite::api</title>
<path fill="none" stroke="darkblue" d="M296.86,-835.53C331.6,-833.15 373.5,-824.43 401.75,-799 432.98,-770.88 410.83,-746.01 430.75,-709 439.07,-693.55 450.93,-678.14 461.61,-665.73"/>
<polygon fill="darkblue" stroke="darkblue" points="464.1,-668.2 468.11,-658.4 458.86,-663.56 464.1,-668.2"/>
<text text-anchor="middle" x="363.75" y="-836.16" font-family="Arial" font-size="8.00">PRIVATE</text>
</g>
<!-- aphrodite::rendergraph&#45;&gt;aphrodite::common -->
<g id="edge25" class="edge">
<title>aphrodite::rendergraph&#45;&gt;aphrodite::common</title>
<path fill="none" stroke="darkblue" d="M297.15,-848.76C367.41,-864.14 485.44,-886 588.38,-886 588.38,-886 588.38,-886 879.12,-886 1036.98,-886 1066.35,-623.42 1071.78,-533.66"/>
<polygon fill="darkblue" stroke="darkblue" points="1075.26,-534.11 1072.3,-523.94 1068.27,-533.73 1075.26,-534.11"/>
<text text-anchor="middle" x="684.88" y="-890.4" font-family="Arial" font-size="8.00">PRIVATE</text>
</g>
<!-- aphrodite::resource&#45;&gt;aphrodite::api -->
<g id="edge29" class="edge">
<title>aphrodite::resource&#45;&gt;aphrodite::api</title>
<path fill="none" stroke="darkblue" d="M288.11,-608.22C331.74,-614.98 393.13,-624.49 436.11,-631.14"/>
<polygon fill="darkblue" stroke="darkblue" points="435.52,-634.59 445.94,-632.66 436.6,-627.67 435.52,-634.59"/>
<text text-anchor="middle" x="363.75" y="-629.67" font-family="Arial" font-size="8.00">PRIVATE</text>
</g>
<!-- aphrodite::resource&#45;&gt;aphrodite::common -->
<g id="edge28" class="edge">
<title>aphrodite::resource&#45;&gt;aphrodite::common</title>
<path fill="none" stroke="darkblue" d="M287.98,-595.23C320.77,-592.2 363.73,-588.09 401.75,-584 625.01,-559.99 889.49,-527.18 1008.87,-512.14"/>
<polygon fill="darkblue" stroke="darkblue" points="1008.98,-515.65 1018.46,-510.93 1008.11,-508.71 1008.98,-515.65"/>
<text text-anchor="middle" x="684.88" y="-562.03" font-family="Arial" font-size="8.00">PRIVATE</text>
</g>
<!-- aphrodite::resource&#45;&gt;aphrodite::filesystem -->
<g id="edge27" class="edge">
<title>aphrodite::resource&#45;&gt;aphrodite::filesystem</title>
<path fill="none" stroke="darkblue" d="M258.08,-618.44C290.91,-644.97 352.59,-695.91 401.75,-743 423.37,-763.7 446.48,-788.61 463.16,-807.13"/>
<polygon fill="darkblue" stroke="darkblue" points="460.51,-809.41 469.79,-814.53 465.73,-804.75 460.51,-809.41"/>
<text text-anchor="middle" x="363.75" y="-747.4" font-family="Arial" font-size="8.00">PRIVATE</text>
</g>
<!-- aphrodite::resource&#45;&gt;aphrodite::math -->
<g id="edge30" class="edge">
<title>aphrodite::resource&#45;&gt;aphrodite::math</title>
<path fill="none" stroke="darkblue" d="M254.49,-581.66C271.98,-566.06 298.94,-544.01 325.75,-530 357.15,-513.6 374.49,-528.62 401.75,-506 443.17,-471.63 467.35,-411.73 478.76,-376.08"/>
<polygon fill="darkblue" stroke="darkblue" points="482,-377.45 481.58,-366.87 475.31,-375.4 482,-377.45"/>
<text text-anchor="middle" x="363.75" y="-534.4" font-family="Arial" font-size="8.00">PRIVATE</text>
</g>
<!-- aphrodite::resource&#45;&gt;aphrodite::global -->
<g id="edge31" class="edge">
<title>aphrodite::resource&#45;&gt;aphrodite::global</title>
<path fill="none" stroke="darkblue" d="M245.3,-581.59C258.76,-556.87 282.31,-511.27 296.75,-470 315.44,-416.58 294.2,-392.99 325.75,-346 348.85,-311.6 374.78,-323.46 401.75,-292 438.68,-248.92 464.39,-187.05 477.31,-151.04"/>
<polygon fill="darkblue" stroke="darkblue" points="480.56,-152.34 480.55,-141.75 473.95,-150.03 480.56,-152.34"/>
<text text-anchor="middle" x="363.75" y="-350.4" font-family="Arial" font-size="8.00">PRIVATE</text>
</g>
<!-- aphrodite::scene&#45;&gt;aphrodite::common -->
<g id="edge33" class="edge">
<title>aphrodite::scene&#45;&gt;aphrodite::common</title>
<path fill="none" stroke="darkblue" d="M281.26,-215.57C348.45,-199.98 477.18,-174 588.38,-174 588.38,-174 588.38,-174 879.12,-174 1017.86,-174 1059.25,-393.49 1069.81,-474.46"/>
<polygon fill="darkblue" stroke="darkblue" points="1066.32,-474.79 1071.01,-484.29 1073.27,-473.93 1066.32,-474.79"/>
<text text-anchor="middle" x="684.88" y="-178.4" font-family="Arial" font-size="8.00">PRIVATE</text>
</g>
<!-- aphrodite::scene&#45;&gt;aphrodite::math -->
<g id="edge32" class="edge">
<title>aphrodite::scene&#45;&gt;aphrodite::math</title>
<path fill="none" stroke="darkblue" d="M281.15,-225.67C316.19,-226.55 364.52,-231.93 401.75,-252 430.82,-267.68 454.92,-297.34 469.96,-319.36"/>
<polygon fill="darkblue" stroke="darkblue" points="466.97,-321.18 475.39,-327.6 472.81,-317.33 466.97,-321.18"/>
<text text-anchor="middle" x="363.75" y="-256.4" font-family="Arial" font-size="8.00">PRIVATE</text>
</g>
<!-- aphrodite::threads&#45;&gt;aphrodite::allocator -->
<g id="edge35" class="edge">
<title>aphrodite::threads&#45;&gt;aphrodite::allocator</title>
<path fill="none" stroke="darkblue" d="M717.67,-510.48C740.46,-524.41 771.31,-544.69 795.75,-566 818.13,-585.51 840.38,-610.91 855.95,-629.92"/>
<polygon fill="darkblue" stroke="darkblue" points="853.06,-631.92 862.07,-637.51 858.51,-627.53 853.06,-631.92"/>
<text text-anchor="middle" x="780.38" y="-570.4" font-family="Arial" font-size="8.00">PRIVATE</text>
</g>
<!-- aphrodite::threads&#45;&gt;aphrodite::common -->
<g id="edge34" class="edge">
<title>aphrodite::threads&#45;&gt;aphrodite::common</title>
<path fill="none" stroke="darkblue" d="M736.22,-492.97C785.87,-493.98 863.93,-495.74 931.5,-498 956.75,-498.84 984.52,-499.98 1008.72,-501.03"/>
<polygon fill="darkblue" stroke="darkblue" points="1008.27,-504.51 1018.41,-501.46 1008.58,-497.52 1008.27,-504.51"/>
<text text-anchor="middle" x="878.12" y="-502.4" font-family="Arial" font-size="8.00">PRIVATE</text>
</g>
<!-- aphrodite::ui&#45;&gt;aphrodite::api -->
<g id="edge38" class="edge">
<title>aphrodite::ui&#45;&gt;aphrodite::api</title>
<path fill="none" stroke="darkblue" d="M272.1,-300.48C281.1,-305.62 290.05,-312.11 296.75,-320 320.94,-348.52 303.17,-369.18 325.75,-399 350.92,-432.24 375.28,-421.78 401.75,-454 441.11,-501.9 466.49,-570.98 478.57,-609.75"/>
<polygon fill="darkblue" stroke="darkblue" points="475.22,-610.75 481.46,-619.31 481.92,-608.72 475.22,-610.75"/>
<text text-anchor="middle" x="363.75" y="-458.4" font-family="Arial" font-size="8.00">PRIVATE</text>
</g>
<!-- aphrodite::ui&#45;&gt;aphrodite::common -->
<g id="edge37" class="edge">
<title>aphrodite::ui&#45;&gt;aphrodite::common</title>
<path fill="none" stroke="darkblue" d="M271.95,-270.56C280.47,-266.46 289.23,-261.56 296.75,-256 312.18,-244.59 308.2,-231.78 325.75,-224 356.63,-210.31 368.63,-217.37 401.75,-224 653.72,-274.45 929.28,-421.64 1031.69,-479.88"/>
<polygon fill="darkblue" stroke="darkblue" points="1029.89,-482.88 1040.31,-484.8 1033.37,-476.8 1029.89,-482.88"/>
<text text-anchor="middle" x="684.88" y="-336.55" font-family="Arial" font-size="8.00">PRIVATE</text>
</g>
<!-- aphrodite::ui&#45;&gt;aphrodite::math -->
<g id="edge36" class="edge">
<title>aphrodite::ui&#45;&gt;aphrodite::math</title>
<path fill="none" stroke="darkblue" d="M271.93,-276.13C306.51,-269.55 359.1,-264.06 401.75,-279 425.4,-287.29 447.36,-305.2 463.06,-320.57"/>
<polygon fill="darkblue" stroke="darkblue" points="460.54,-323 470.04,-327.68 465.54,-318.09 460.54,-323"/>
<text text-anchor="middle" x="363.75" y="-283.4" font-family="Arial" font-size="8.00">PRIVATE</text>
</g>
<!-- aphrodite::wsi&#45;&gt;aphrodite::api -->
<g id="edge40" class="edge">
<title>aphrodite::wsi&#45;&gt;aphrodite::api</title>
<path fill="none" stroke="darkblue" d="M643.86,-701.48C622.77,-696.48 596.63,-689.47 574,-681 560.12,-675.8 545.48,-669.07 532.33,-662.53"/>
<polygon fill="darkblue" stroke="darkblue" points="534,-659.45 523.5,-658.04 530.83,-665.69 534,-659.45"/>
<text text-anchor="middle" x="589.38" y="-695.22" font-family="Arial" font-size="8.00">PRIVATE</text>
</g>
<!-- aphrodite::wsi&#45;&gt;aphrodite::common -->
<g id="edge39" class="edge">
<title>aphrodite::wsi&#45;&gt;aphrodite::common</title>
<path fill="none" stroke="darkblue" d="M725.85,-715.66C790.96,-722.44 919.78,-725.22 991.25,-655 1026.82,-620.05 1050.81,-566.3 1063.17,-533.25"/>
<polygon fill="darkblue" stroke="darkblue" points="1066.43,-534.5 1066.54,-523.9 1059.85,-532.12 1066.43,-534.5"/>
<text text-anchor="middle" x="878.12" y="-721.78" font-family="Arial" font-size="8.00">PRIVATE</text>
</g>
<!-- aphrodite::app&#45;&gt;aphrodite::common -->
<g id="edge41" class="edge">
<title>aphrodite::app&#45;&gt;aphrodite::common</title>
<path fill="none" stroke="darkblue" d="M276.43,-78.08C326.32,-74.82 412.68,-70 486.88,-70 486.88,-70 486.88,-70 879.12,-70 1056.59,-70 1072.71,-376.27 1073.33,-474.24"/>
<polygon fill="darkblue" stroke="darkblue" points="1069.83,-474.12 1073.33,-484.12 1076.83,-474.11 1069.83,-474.12"/>
<text text-anchor="middle" x="684.88" y="-74.4" font-family="Arial" font-size="8.00">PRIVATE</text>
</g>
<!-- aphrodite::app&#45;&gt;aphrodite::global -->
<g id="edge42" class="edge">
<title>aphrodite::app&#45;&gt;aphrodite::global</title>
<path fill="none" stroke="darkblue" d="M276.59,-87.77C318.16,-94.54 382.41,-104.99 428.95,-112.57"/>
<polygon fill="darkblue" stroke="darkblue" points="428.15,-115.99 438.59,-114.14 429.28,-109.08 428.15,-115.99"/>
<text text-anchor="middle" x="363.75" y="-111.97" font-family="Arial" font-size="8.00">PRIVATE</text>
</g>
<!-- aphrodite::global&#45;&gt;aphrodite::common -->
<g id="edge44" class="edge">
<title>aphrodite::global&#45;&gt;aphrodite::common</title>
<path fill="none" stroke="darkblue" d="M535.45,-118.52C646.68,-111.22 923.55,-99.46 991.25,-157 1039.93,-198.38 1063.26,-398.7 1070.47,-474.69"/>
<polygon fill="darkblue" stroke="darkblue" points="1066.95,-474.63 1071.35,-484.27 1073.92,-473.99 1066.95,-474.63"/>
<text text-anchor="middle" x="780.38" y="-118.41" font-family="Arial" font-size="8.00">PRIVATE</text>
</g>
<!-- aphrodite::global&#45;&gt;aphrodite::threads -->
<g id="edge43" class="edge">
<title>aphrodite::global&#45;&gt;aphrodite::threads</title>
<path fill="none" stroke="darkblue" d="M494.51,-140.17C510.78,-190.95 561.34,-337.48 633.75,-442 639.49,-450.28 646.68,-458.38 653.82,-465.57"/>
<polygon fill="darkblue" stroke="darkblue" points="651.37,-468.07 660.99,-472.49 656.23,-463.03 651.37,-468.07"/>
<text text-anchor="middle" x="589.38" y="-397.91" font-family="Arial" font-size="8.00">PRIVATE</text>
</g>
<!-- aphrodite::engine&#45;&gt;aphrodite::api -->
<g id="edge46" class="edge">
<title>aphrodite::engine&#45;&gt;aphrodite::api</title>
<path fill="none" stroke="darkblue" d="M247.92,-459.15C264.29,-481.26 294.17,-518.89 325.75,-545 360.14,-573.42 404.17,-598.47 437.51,-615.55"/>
<polygon fill="darkblue" stroke="darkblue" points="435.64,-618.53 446.14,-619.91 438.79,-612.28 435.64,-618.53"/>
<text text-anchor="middle" x="363.75" y="-600.54" font-family="Arial" font-size="8.00">PRIVATE</text>
</g>
<!-- aphrodite::engine&#45;&gt;aphrodite::common -->
<g id="edge45" class="edge">
<title>aphrodite::engine&#45;&gt;aphrodite::common</title>
<path fill="none" stroke="darkblue" d="M284.07,-439.81C354.9,-438.37 489.93,-436.63 604.75,-441 663.21,-443.22 677.89,-444.23 736,-451 831.23,-462.1 940.78,-480.35 1008.46,-492.28"/>
<polygon fill="darkblue" stroke="darkblue" points="1007.83,-495.72 1018.28,-494.02 1009.05,-488.83 1007.83,-495.72"/>
<text text-anchor="middle" x="684.88" y="-455.4" font-family="Arial" font-size="8.00">PRIVATE</text>
</g>
<!-- aphrodite::engine&#45;&gt;aphrodite::math -->
<g id="edge47" class="edge">
<title>aphrodite::engine&#45;&gt;aphrodite::math</title>
<path fill="none" stroke="darkblue" d="M260.47,-422.63C278.07,-410.7 302.42,-395.62 325.75,-386 359.4,-372.12 399.13,-362.44 430.71,-356.19"/>
<polygon fill="darkblue" stroke="darkblue" points="431.3,-359.64 440.47,-354.33 429.99,-352.77 431.3,-359.64"/>
<text text-anchor="middle" x="363.75" y="-390.4" font-family="Arial" font-size="8.00">PRIVATE</text>
</g>
</g>
</svg>
