<?xml version="1.0" encoding="UTF-8" standalone="no"?>
<!DOCTYPE svg PUBLIC "-//W3C//DTD SVG 1.1//EN"
 "http://www.w3.org/Graphics/SVG/1.1/DTD/svg11.dtd">
<!-- Generated by graphviz version 12.2.1 (20241206.2353)
 -->
<!-- Title: CMakeDependencyGraph Pages: 1 -->
<svg width="590pt" height="495pt"
 viewBox="7.20 7.20 583.20 487.40" xmlns="http://www.w3.org/2000/svg" xmlns:xlink="http://www.w3.org/1999/xlink">
<g id="graph0" class="graph" transform="scale(0.296144 0.296144) rotate(0) translate(60.31 1609.81)">
<title>CMakeDependencyGraph</title>
<g id="clust1" class="cluster">
<title>cluster_legend</title>
<polygon fill="none" stroke="none" stroke-width="0" points="10.75,-8 10.75,-130 358.75,-130 358.75,-8 10.75,-8"/>
</g>
<!-- legend_anchor -->
<!-- top_anchor -->
<!-- key -->
<g id="node3" class="node">
<title>key</title>
<polygon fill="lightgrey" stroke="none" stroke-width="1.5" points="143.25,-130.12 10.75,-130.12 10.75,-7.88 143.25,-7.88 143.25,-130.12"/>
<polygon fill="none" stroke="none" points="10.75,-7.88 10.75,-130.12 143.25,-130.12 143.25,-7.88 10.75,-7.88"/>
<polygon fill="none" stroke="black" points="10.75,-89.38 10.75,-130.12 39.5,-130.12 39.5,-89.38 10.75,-89.38"/>
<text text-anchor="start" x="15.75" y="-101.97" font-family="Helvetica,Arial,sans-serif" font-size="22.00" fill="#ff6500">➔</text>
<polygon fill="none" stroke="black" points="39.5,-89.38 39.5,-130.12 143.25,-130.12 143.25,-89.38 39.5,-89.38"/>
<text text-anchor="start" x="59.88" y="-104.22" font-family="Helvetica,Arial,sans-serif" font-size="22.00" fill="#222831">Public</text>
<polygon fill="none" stroke="black" points="10.75,-48.62 10.75,-89.38 39.5,-89.38 39.5,-48.62 10.75,-48.62"/>
<text text-anchor="start" x="15.75" y="-61.23" font-family="Helvetica,Arial,sans-serif" font-size="22.00" fill="#1e3e62">➔</text>
<polygon fill="none" stroke="black" points="39.5,-48.62 39.5,-89.38 143.25,-89.38 143.25,-48.62 39.5,-48.62"/>
<text text-anchor="start" x="55" y="-63.48" font-family="Helvetica,Arial,sans-serif" font-size="22.00" fill="#222831">Private</text>
<polygon fill="none" stroke="black" points="10.75,-7.88 10.75,-48.62 39.5,-48.62 39.5,-7.88 10.75,-7.88"/>
<text text-anchor="start" x="15.75" y="-20.48" font-family="Helvetica,Arial,sans-serif" font-size="22.00" fill="#1f7d53">➔</text>
<polygon fill="none" stroke="black" points="39.5,-7.88 39.5,-48.62 143.25,-48.62 143.25,-7.88 39.5,-7.88"/>
<text text-anchor="start" x="44.5" y="-22.73" font-family="Helvetica,Arial,sans-serif" font-size="22.00" fill="#222831">Interface</text>
</g>
<!-- key&#45;&gt;legend_anchor -->
<!-- aphrodite::all -->
<g id="node4" class="node">
<title>aphrodite::all</title>
<path fill="#f1efec" stroke="black" stroke-width="1.5" d="M12,-865C12,-865 142,-865 142,-865 148,-865 154,-871 154,-877 154,-877 154,-925 154,-925 154,-931 148,-937 142,-937 142,-937 12,-937 12,-937 6,-937 0,-931 0,-925 0,-925 0,-877 0,-877 0,-871 6,-865 12,-865"/>
<text text-anchor="middle" x="77" y="-895.6" font-family="Helvetica,Arial,sans-serif" font-size="22.00" fill="#222831">aphrodite::all</text>
</g>
<!-- aphrodite::allocator -->
<g id="node5" class="node">
<title>aphrodite::allocator</title>
<path fill="#d4c9be" stroke="black" stroke-width="1.5" d="M1384.75,-843C1384.75,-843 1581.5,-843 1581.5,-843 1587.5,-843 1593.5,-849 1593.5,-855 1593.5,-855 1593.5,-903 1593.5,-903 1593.5,-909 1587.5,-915 1581.5,-915 1581.5,-915 1384.75,-915 1384.75,-915 1378.75,-915 1372.75,-909 1372.75,-903 1372.75,-903 1372.75,-855 1372.75,-855 1372.75,-849 1378.75,-843 1384.75,-843"/>
<text text-anchor="middle" x="1483.12" y="-873.6" font-family="Helvetica,Arial,sans-serif" font-size="22.00" fill="#222831">aphrodite::allocator</text>
</g>
<!-- aphrodite::all&#45;&gt;aphrodite::allocator -->
<g id="edge5" class="edge">
<title>aphrodite::all&#45;&gt;aphrodite::allocator</title>
<path fill="none" stroke="#ff6500" stroke-width="2" d="M154.46,-919.81C173.16,-923.62 193.21,-927.06 212,-929 309.92,-939.12 335.06,-929.31 433.5,-929 575.72,-928.56 611.37,-932.29 753.5,-927 910.09,-921.17 948.89,-913.31 1105.25,-903 1190.46,-897.38 1286.52,-891.27 1360.33,-886.62"/>
<polygon fill="#ff6500" stroke="#ff6500" stroke-width="2" points="1370.02,-886.01 1360.32,-891.13 1367.49,-886.67 1360.07,-887.13 1360.04,-886.63 1360.01,-886.14 1367.43,-885.67 1359.75,-882.14 1370.02,-886.01"/>
</g>
<!-- aphrodite::api -->
<g id="node6" class="node">
<title>aphrodite::api</title>
<path fill="#d4c9be" stroke="black" stroke-width="1.5" d="M860.62,-1028C860.62,-1028 998.12,-1028 998.12,-1028 1004.12,-1028 1010.12,-1034 1010.12,-1040 1010.12,-1040 1010.12,-1088 1010.12,-1088 1010.12,-1094 1004.12,-1100 998.12,-1100 998.12,-1100 860.62,-1100 860.62,-1100 854.62,-1100 848.62,-1094 848.62,-1088 848.62,-1088 848.62,-1040 848.62,-1040 848.62,-1034 854.62,-1028 860.62,-1028"/>
<text text-anchor="middle" x="929.38" y="-1058.6" font-family="Helvetica,Arial,sans-serif" font-size="22.00" fill="#222831">aphrodite::api</text>
</g>
<!-- aphrodite::all&#45;&gt;aphrodite::api -->
<g id="edge11" class="edge">
<title>aphrodite::all&#45;&gt;aphrodite::api</title>
<path fill="none" stroke="#ff6500" stroke-width="2" d="M92.37,-937.1C112.5,-983.26 153.32,-1062.71 212,-1109 315.35,-1190.52 361.73,-1184.91 491.5,-1207 606.29,-1226.54 643.83,-1246.13 753.5,-1207 807.75,-1187.64 857.32,-1143.43 889.71,-1109.25"/>
<polygon fill="#ff6500" stroke="#ff6500" stroke-width="2" points="896.32,-1102.14 892.81,-1112.52 894.94,-1104.35 889.88,-1109.8 889.51,-1109.46 889.15,-1109.12 894.21,-1103.67 886.22,-1106.4 896.32,-1102.14"/>
</g>
<!-- aphrodite::cli -->
<g id="node7" class="node">
<title>aphrodite::cli</title>
<path fill="#d4c9be" stroke="black" stroke-width="1.5" d="M258.5,-1477C258.5,-1477 387,-1477 387,-1477 393,-1477 399,-1483 399,-1489 399,-1489 399,-1537 399,-1537 399,-1543 393,-1549 387,-1549 387,-1549 258.5,-1549 258.5,-1549 252.5,-1549 246.5,-1543 246.5,-1537 246.5,-1537 246.5,-1489 246.5,-1489 246.5,-1483 252.5,-1477 258.5,-1477"/>
<text text-anchor="middle" x="322.75" y="-1507.6" font-family="Helvetica,Arial,sans-serif" font-size="22.00" fill="#222831">aphrodite::cli</text>
</g>
<!-- aphrodite::all&#45;&gt;aphrodite::cli -->
<g id="edge7" class="edge">
<title>aphrodite::all&#45;&gt;aphrodite::cli</title>
<path fill="none" stroke="#ff6500" stroke-width="2" d="M82.32,-937.3C96.23,-1048.85 143.04,-1384.04 212,-1466 218.57,-1473.81 226.67,-1480.35 235.48,-1485.83"/>
<polygon fill="#ff6500" stroke="#ff6500" stroke-width="2" points="243.96,-1490.59 233.03,-1489.62 241.48,-1489.77 234.99,-1486.13 235.23,-1485.69 235.48,-1485.26 241.96,-1488.9 237.44,-1481.77 243.96,-1490.59"/>
</g>
<!-- aphrodite::common -->
<g id="node8" class="node">
<title>aphrodite::common</title>
<path fill="#d4c9be" stroke="black" stroke-width="1.5" d="M1663.5,-807C1663.5,-807 1861,-807 1861,-807 1867,-807 1873,-813 1873,-819 1873,-819 1873,-867 1873,-867 1873,-873 1867,-879 1861,-879 1861,-879 1663.5,-879 1663.5,-879 1657.5,-879 1651.5,-873 1651.5,-867 1651.5,-867 1651.5,-819 1651.5,-819 1651.5,-813 1657.5,-807 1663.5,-807"/>
<text text-anchor="middle" x="1762.25" y="-837.6" font-family="Helvetica,Arial,sans-serif" font-size="22.00" fill="#222831">aphrodite::common</text>
</g>
<!-- aphrodite::all&#45;&gt;aphrodite::common -->
<g id="edge2" class="edge">
<title>aphrodite::all&#45;&gt;aphrodite::common</title>
<path fill="none" stroke="#ff6500" stroke-width="2" d="M78.7,-937.5C82.31,-1016.42 102.63,-1203.44 212,-1298 303,-1376.67 908.74,-1372 928.38,-1372 928.38,-1372 928.38,-1372 1211,-1372 1389.71,-1372 1462.23,-1369.27 1593.5,-1248 1699.29,-1150.27 1740.34,-975.72 1754.56,-891.33"/>
<polygon fill="#ff6500" stroke="#ff6500" stroke-width="2" points="1756.11,-881.71 1758.96,-892.3 1756.2,-884.32 1755.01,-891.66 1754.52,-891.58 1754.02,-891.5 1755.21,-884.16 1750.07,-890.86 1756.11,-881.71"/>
</g>
<!-- aphrodite::event -->
<g id="node9" class="node">
<title>aphrodite::event</title>
<path fill="#d4c9be" stroke="black" stroke-width="1.5" d="M240.88,-1382C240.88,-1382 404.62,-1382 404.62,-1382 410.62,-1382 416.62,-1388 416.62,-1394 416.62,-1394 416.62,-1442 416.62,-1442 416.62,-1448 410.62,-1454 404.62,-1454 404.62,-1454 240.88,-1454 240.88,-1454 234.88,-1454 228.88,-1448 228.88,-1442 228.88,-1442 228.88,-1394 228.88,-1394 228.88,-1388 234.88,-1382 240.88,-1382"/>
<text text-anchor="middle" x="322.75" y="-1412.6" font-family="Helvetica,Arial,sans-serif" font-size="22.00" fill="#222831">aphrodite::event</text>
</g>
<!-- aphrodite::all&#45;&gt;aphrodite::event -->
<g id="edge3" class="edge">
<title>aphrodite::all&#45;&gt;aphrodite::event</title>
<path fill="none" stroke="#ff6500" stroke-width="2" d="M78.91,-937.45C82.86,-1022.13 103.68,-1234.78 212,-1364 214.94,-1367.5 218.15,-1370.8 221.58,-1373.89"/>
<polygon fill="#ff6500" stroke="#ff6500" stroke-width="2" points="229.23,-1380.1 218.63,-1377.29 226.92,-1378.87 221.15,-1374.18 221.46,-1373.8 221.78,-1373.41 227.55,-1378.1 224.3,-1370.3 229.23,-1380.1"/>
</g>
<!-- aphrodite::filesystem -->
<g id="node10" class="node">
<title>aphrodite::filesystem</title>
<path fill="#d4c9be" stroke="black" stroke-width="1.5" d="M823.5,-536C823.5,-536 1035.25,-536 1035.25,-536 1041.25,-536 1047.25,-542 1047.25,-548 1047.25,-548 1047.25,-596 1047.25,-596 1047.25,-602 1041.25,-608 1035.25,-608 1035.25,-608 823.5,-608 823.5,-608 817.5,-608 811.5,-602 811.5,-596 811.5,-596 811.5,-548 811.5,-548 811.5,-542 817.5,-536 823.5,-536"/>
<text text-anchor="middle" x="929.38" y="-566.6" font-family="Helvetica,Arial,sans-serif" font-size="22.00" fill="#222831">aphrodite::filesystem</text>
</g>
<!-- aphrodite::all&#45;&gt;aphrodite::filesystem -->
<g id="edge13" class="edge">
<title>aphrodite::all&#45;&gt;aphrodite::filesystem</title>
<path fill="none" stroke="#ff6500" stroke-width="2" d="M85.64,-864.81C108.67,-757.31 177.86,-445.37 212,-414 390.03,-250.42 534.57,-259.41 753.5,-362 772.38,-370.85 847.82,-466.61 893.22,-525.72"/>
<polygon fill="#ff6500" stroke="#ff6500" stroke-width="2" points="899.3,-533.65 889.64,-528.45 897.34,-531.92 892.82,-526.01 893.22,-525.71 893.61,-525.41 898.14,-531.31 896.79,-522.97 899.3,-533.65"/>
</g>
<!-- aphrodite::math -->
<g id="node11" class="node">
<title>aphrodite::math</title>
<path fill="#d4c9be" stroke="black" stroke-width="1.5" d="M849.38,-783C849.38,-783 1009.38,-783 1009.38,-783 1015.38,-783 1021.38,-789 1021.38,-795 1021.38,-795 1021.38,-843 1021.38,-843 1021.38,-849 1015.38,-855 1009.38,-855 1009.38,-855 849.38,-855 849.38,-855 843.38,-855 837.38,-849 837.38,-843 837.38,-843 837.38,-795 837.38,-795 837.38,-789 843.38,-783 849.38,-783"/>
<text text-anchor="middle" x="929.38" y="-813.6" font-family="Helvetica,Arial,sans-serif" font-size="22.00" fill="#222831">aphrodite::math</text>
</g>
<!-- aphrodite::all&#45;&gt;aphrodite::math -->
<g id="edge4" class="edge">
<title>aphrodite::all&#45;&gt;aphrodite::math</title>
<path fill="none" stroke="#ff6500" stroke-width="2" d="M154.48,-890.82C173.27,-888.45 193.35,-886.03 212,-884 429.68,-860.32 685.22,-838.59 824.65,-827.24"/>
<polygon fill="#ff6500" stroke="#ff6500" stroke-width="2" points="834.53,-826.44 824.92,-831.74 832.01,-827.15 824.6,-827.75 824.56,-827.25 824.52,-826.75 831.93,-826.15 824.2,-822.76 834.53,-826.44"/>
</g>
<!-- aphrodite::resource -->
<g id="node13" class="node">
<title>aphrodite::resource</title>
<path fill="#d4c9be" stroke="black" stroke-width="1.5" d="M224,-619C224,-619 421.5,-619 421.5,-619 427.5,-619 433.5,-625 433.5,-631 433.5,-631 433.5,-679 433.5,-679 433.5,-685 427.5,-691 421.5,-691 421.5,-691 224,-691 224,-691 218,-691 212,-685 212,-679 212,-679 212,-631 212,-631 212,-625 218,-619 224,-619"/>
<text text-anchor="middle" x="322.75" y="-649.6" font-family="Helvetica,Arial,sans-serif" font-size="22.00" fill="#222831">aphrodite::resource</text>
</g>
<!-- aphrodite::all&#45;&gt;aphrodite::resource -->
<g id="edge10" class="edge">
<title>aphrodite::all&#45;&gt;aphrodite::resource</title>
<path fill="none" stroke="#ff6500" stroke-width="2" d="M102.25,-864.53C127.23,-828.5 168.55,-772.98 212,-732 224.59,-720.13 239.12,-708.66 253.41,-698.36"/>
<polygon fill="#ff6500" stroke="#ff6500" stroke-width="2" points="261.24,-692.83 255.67,-702.27 259.44,-694.71 253.36,-699 253.07,-698.59 252.78,-698.19 258.86,-693.9 250.48,-694.92 261.24,-692.83"/>
</g>
<!-- aphrodite::scene -->
<g id="node14" class="node">
<title>aphrodite::scene</title>
<path fill="#d4c9be" stroke="black" stroke-width="1.5" d="M539.5,-468C539.5,-468 705.5,-468 705.5,-468 711.5,-468 717.5,-474 717.5,-480 717.5,-480 717.5,-528 717.5,-528 717.5,-534 711.5,-540 705.5,-540 705.5,-540 539.5,-540 539.5,-540 533.5,-540 527.5,-534 527.5,-528 527.5,-528 527.5,-480 527.5,-480 527.5,-474 533.5,-468 539.5,-468"/>
<text text-anchor="middle" x="622.5" y="-498.6" font-family="Helvetica,Arial,sans-serif" font-size="22.00" fill="#222831">aphrodite::scene</text>
</g>
<!-- aphrodite::all&#45;&gt;aphrodite::scene -->
<g id="edge14" class="edge">
<title>aphrodite::all&#45;&gt;aphrodite::scene</title>
<path fill="none" stroke="#ff6500" stroke-width="2" d="M84.15,-864.72C96.65,-802.48 131.04,-675.54 212,-608 297.35,-536.8 425.14,-513.45 515.22,-506.25"/>
<polygon fill="#ff6500" stroke="#ff6500" stroke-width="2" points="524.97,-505.53 515.32,-510.75 522.45,-506.22 515.03,-506.77 514.99,-506.27 514.96,-505.77 522.37,-505.22 514.66,-501.78 524.97,-505.53"/>
</g>
<!-- aphrodite::threads -->
<g id="node15" class="node">
<title>aphrodite::threads</title>
<path fill="#d4c9be" stroke="black" stroke-width="1.5" d="M1117.25,-772C1117.25,-772 1302.75,-772 1302.75,-772 1308.75,-772 1314.75,-778 1314.75,-784 1314.75,-784 1314.75,-832 1314.75,-832 1314.75,-838 1308.75,-844 1302.75,-844 1302.75,-844 1117.25,-844 1117.25,-844 1111.25,-844 1105.25,-838 1105.25,-832 1105.25,-832 1105.25,-784 1105.25,-784 1105.25,-778 1111.25,-772 1117.25,-772"/>
<text text-anchor="middle" x="1210" y="-802.6" font-family="Helvetica,Arial,sans-serif" font-size="22.00" fill="#222831">aphrodite::threads</text>
</g>
<!-- aphrodite::all&#45;&gt;aphrodite::threads -->
<g id="edge8" class="edge">
<title>aphrodite::all&#45;&gt;aphrodite::threads</title>
<path fill="none" stroke="#ff6500" stroke-width="2" d="M154.32,-906.37C319.16,-916.23 720.02,-930.75 1047.25,-867 1069.03,-862.76 1091.79,-856.01 1113.12,-848.57"/>
<polygon fill="#ff6500" stroke="#ff6500" stroke-width="2" points="1122.51,-845.2 1114.62,-852.81 1120.27,-846.54 1113.27,-849.05 1113.1,-848.58 1112.93,-848.11 1119.93,-845.6 1111.58,-844.34 1122.51,-845.2"/>
</g>
<!-- aphrodite::ui -->
<g id="node16" class="node">
<title>aphrodite::ui</title>
<path fill="#d4c9be" stroke="black" stroke-width="1.5" d="M559.75,-1123C559.75,-1123 685.25,-1123 685.25,-1123 691.25,-1123 697.25,-1129 697.25,-1135 697.25,-1135 697.25,-1183 697.25,-1183 697.25,-1189 691.25,-1195 685.25,-1195 685.25,-1195 559.75,-1195 559.75,-1195 553.75,-1195 547.75,-1189 547.75,-1183 547.75,-1183 547.75,-1135 547.75,-1135 547.75,-1129 553.75,-1123 559.75,-1123"/>
<text text-anchor="middle" x="622.5" y="-1153.6" font-family="Helvetica,Arial,sans-serif" font-size="22.00" fill="#222831">aphrodite::ui</text>
</g>
<!-- aphrodite::all&#45;&gt;aphrodite::ui -->
<g id="edge16" class="edge">
<title>aphrodite::all&#45;&gt;aphrodite::ui</title>
<path fill="none" stroke="#ff6500" stroke-width="2" d="M100.9,-937.38C124.56,-971.99 164.65,-1022.95 212,-1052 312.54,-1113.68 448.01,-1140.08 535.07,-1151.19"/>
<polygon fill="#ff6500" stroke="#ff6500" stroke-width="2" points="544.87,-1152.39 534.4,-1155.64 542.26,-1152.58 534.88,-1151.67 534.94,-1151.18 535,-1150.68 542.39,-1151.59 535.49,-1146.71 544.87,-1152.39"/>
</g>
<!-- aphrodite::wsi -->
<g id="node17" class="node">
<title>aphrodite::wsi</title>
<path fill="#d4c9be" stroke="black" stroke-width="1.5" d="M1140.12,-914C1140.12,-914 1279.88,-914 1279.88,-914 1285.88,-914 1291.88,-920 1291.88,-926 1291.88,-926 1291.88,-974 1291.88,-974 1291.88,-980 1285.88,-986 1279.88,-986 1279.88,-986 1140.12,-986 1140.12,-986 1134.12,-986 1128.12,-980 1128.12,-974 1128.12,-974 1128.12,-926 1128.12,-926 1128.12,-920 1134.12,-914 1140.12,-914"/>
<text text-anchor="middle" x="1210" y="-944.6" font-family="Helvetica,Arial,sans-serif" font-size="22.00" fill="#222831">aphrodite::wsi</text>
</g>
<!-- aphrodite::all&#45;&gt;aphrodite::wsi -->
<g id="edge9" class="edge">
<title>aphrodite::all&#45;&gt;aphrodite::wsi</title>
<path fill="none" stroke="#ff6500" stroke-width="2" d="M140.7,-937.43C162.53,-948.2 187.66,-958.56 212,-964 537.39,-1036.68 937.5,-992.07 1115.71,-965.52"/>
<polygon fill="#ff6500" stroke="#ff6500" stroke-width="2" points="1125.49,-964.05 1116.27,-969.99 1123.03,-964.92 1115.68,-966.03 1115.6,-965.54 1115.53,-965.04 1122.88,-963.94 1114.93,-961.09 1125.49,-964.05"/>
</g>
<!-- aphrodite::app -->
<g id="node18" class="node">
<title>aphrodite::app</title>
<path fill="#d4c9be" stroke="black" stroke-width="1.5" d="M550,-93C550,-93 695,-93 695,-93 701,-93 707,-99 707,-105 707,-105 707,-153 707,-153 707,-159 701,-165 695,-165 695,-165 550,-165 550,-165 544,-165 538,-159 538,-153 538,-153 538,-105 538,-105 538,-99 544,-93 550,-93"/>
<text text-anchor="middle" x="622.5" y="-123.6" font-family="Helvetica,Arial,sans-serif" font-size="22.00" fill="#222831">aphrodite::app</text>
</g>
<!-- aphrodite::all&#45;&gt;aphrodite::app -->
<g id="edge6" class="edge">
<title>aphrodite::all&#45;&gt;aphrodite::app</title>
<path fill="none" stroke="#ff6500" stroke-width="2" d="M86.62,-864.5C101.48,-800.87 132.41,-665.37 154,-550 169.19,-468.84 152.87,-240.63 212,-183 255.22,-140.87 418.66,-130.8 525.53,-128.84"/>
<polygon fill="#ff6500" stroke="#ff6500" stroke-width="2" points="535.51,-128.68 525.59,-133.34 532.96,-129.22 525.52,-129.34 525.51,-128.84 525.51,-128.34 532.94,-128.22 525.44,-124.34 535.51,-128.68"/>
</g>
<!-- aphrodite::global -->
<g id="node19" class="node">
<title>aphrodite::global</title>
<path fill="#d4c9be" stroke="black" stroke-width="1.5" d="M844.12,-331C844.12,-331 1014.62,-331 1014.62,-331 1020.62,-331 1026.62,-337 1026.62,-343 1026.62,-343 1026.62,-391 1026.62,-391 1026.62,-397 1020.62,-403 1014.62,-403 1014.62,-403 844.12,-403 844.12,-403 838.12,-403 832.12,-397 832.12,-391 832.12,-391 832.12,-343 832.12,-343 832.12,-337 838.12,-331 844.12,-331"/>
<text text-anchor="middle" x="929.38" y="-361.6" font-family="Helvetica,Arial,sans-serif" font-size="22.00" fill="#222831">aphrodite::global</text>
</g>
<!-- aphrodite::all&#45;&gt;aphrodite::global -->
<g id="edge17" class="edge">
<title>aphrodite::all&#45;&gt;aphrodite::global</title>
<path fill="none" stroke="#ff6500" stroke-width="2" d="M85.89,-864.57C114.4,-732.87 210.57,-289.18 212,-288 305.06,-211.7 636.17,-256.28 753.5,-283 790.07,-291.33 827.92,-308.31 859.01,-324.84"/>
<polygon fill="#ff6500" stroke="#ff6500" stroke-width="2" points="867.58,-329.48 856.64,-328.67 865.08,-328.7 858.55,-325.15 858.79,-324.71 859.03,-324.27 865.56,-327.82 860.94,-320.76 867.58,-329.48"/>
</g>
<!-- aphrodite::engine -->
<g id="node20" class="node">
<title>aphrodite::engine</title>
<path fill="#d4c9be" stroke="black" stroke-width="1.5" d="M533.5,-1028C533.5,-1028 711.5,-1028 711.5,-1028 717.5,-1028 723.5,-1034 723.5,-1040 723.5,-1040 723.5,-1088 723.5,-1088 723.5,-1094 717.5,-1100 711.5,-1100 711.5,-1100 533.5,-1100 533.5,-1100 527.5,-1100 521.5,-1094 521.5,-1088 521.5,-1088 521.5,-1040 521.5,-1040 521.5,-1034 527.5,-1028 533.5,-1028"/>
<text text-anchor="middle" x="622.5" y="-1058.6" font-family="Helvetica,Arial,sans-serif" font-size="22.00" fill="#222831">aphrodite::engine</text>
</g>
<!-- aphrodite::all&#45;&gt;aphrodite::engine -->
<g id="edge12" class="edge">
<title>aphrodite::all&#45;&gt;aphrodite::engine</title>
<path fill="none" stroke="#ff6500" stroke-width="2" d="M111.59,-937.36C136.72,-962.12 173.31,-993.32 212,-1010 306.62,-1050.79 424.02,-1062.8 508.83,-1065.49"/>
<polygon fill="#ff6500" stroke="#ff6500" stroke-width="2" points="518.67,-1065.76 508.55,-1069.98 516.09,-1066.19 508.66,-1065.99 508.67,-1065.49 508.68,-1064.99 516.12,-1065.19 508.79,-1060.99 518.67,-1065.76"/>
</g>
<!-- aphrodite::reflection -->
<g id="node21" class="node">
<title>aphrodite::reflection</title>
<path fill="#d4c9be" stroke="black" stroke-width="1.5" d="M519.62,-373C519.62,-373 725.38,-373 725.38,-373 731.38,-373 737.38,-379 737.38,-385 737.38,-385 737.38,-433 737.38,-433 737.38,-439 731.38,-445 725.38,-445 725.38,-445 519.62,-445 519.62,-445 513.62,-445 507.62,-439 507.62,-433 507.62,-433 507.62,-385 507.62,-385 507.62,-379 513.62,-373 519.62,-373"/>
<text text-anchor="middle" x="622.5" y="-403.6" font-family="Helvetica,Arial,sans-serif" font-size="22.00" fill="#222831">aphrodite::reflection</text>
</g>
<!-- aphrodite::all&#45;&gt;aphrodite::reflection -->
<g id="edge18" class="edge">
<title>aphrodite::all&#45;&gt;aphrodite::reflection</title>
<path fill="none" stroke="#ff6500" stroke-width="2" d="M79.49,-864.58C84.69,-787.59 107.95,-607.53 212,-512 288.54,-441.73 405.85,-417.7 495.32,-410.24"/>
<polygon fill="#ff6500" stroke="#ff6500" stroke-width="2" points="505.05,-409.5 495.42,-414.75 502.53,-410.2 495.12,-410.76 495.08,-410.26 495.04,-409.76 502.46,-409.2 494.74,-405.78 505.05,-409.5"/>
</g>
<!-- aphrodite::rendergraph -->
<g id="node22" class="node">
<title>aphrodite::rendergraph</title>
<path fill="#d4c9be" stroke="black" stroke-width="1.5" d="M503.5,-1265C503.5,-1265 741.5,-1265 741.5,-1265 747.5,-1265 753.5,-1271 753.5,-1277 753.5,-1277 753.5,-1325 753.5,-1325 753.5,-1331 747.5,-1337 741.5,-1337 741.5,-1337 503.5,-1337 503.5,-1337 497.5,-1337 491.5,-1331 491.5,-1325 491.5,-1325 491.5,-1277 491.5,-1277 491.5,-1271 497.5,-1265 503.5,-1265"/>
<text text-anchor="middle" x="622.5" y="-1295.6" font-family="Helvetica,Arial,sans-serif" font-size="22.00" fill="#222831">aphrodite::rendergraph</text>
</g>
<!-- aphrodite::all&#45;&gt;aphrodite::rendergraph -->
<g id="edge15" class="edge">
<title>aphrodite::all&#45;&gt;aphrodite::rendergraph</title>
<path fill="none" stroke="#ff6500" stroke-width="2" d="M80.38,-937.35C87.19,-1009.25 113.25,-1169.37 212,-1247 286.5,-1305.56 393.19,-1318.05 479,-1316.43"/>
<polygon fill="#ff6500" stroke="#ff6500" stroke-width="2" points="488.8,-1316.17 478.92,-1320.94 486.25,-1316.74 478.82,-1316.94 478.8,-1316.44 478.79,-1315.94 486.22,-1315.74 478.68,-1311.94 488.8,-1316.17"/>
</g>
<!-- aphrodite::geometry -->
<g id="node23" class="node">
<title>aphrodite::geometry</title>
<path fill="#d4c9be" stroke="black" stroke-width="1.5" d="M518.88,-702C518.88,-702 726.12,-702 726.12,-702 732.12,-702 738.12,-708 738.12,-714 738.12,-714 738.12,-762 738.12,-762 738.12,-768 732.12,-774 726.12,-774 726.12,-774 518.88,-774 518.88,-774 512.88,-774 506.88,-768 506.88,-762 506.88,-762 506.88,-714 506.88,-714 506.88,-708 512.88,-702 518.88,-702"/>
<text text-anchor="middle" x="622.5" y="-732.6" font-family="Helvetica,Arial,sans-serif" font-size="22.00" fill="#222831">aphrodite::geometry</text>
</g>
<!-- aphrodite::all&#45;&gt;aphrodite::geometry -->
<g id="edge19" class="edge">
<title>aphrodite::all&#45;&gt;aphrodite::geometry</title>
<path fill="none" stroke="#ff6500" stroke-width="2" d="M148.52,-864.62C168.68,-855.11 190.91,-845.45 212,-838 304.64,-805.28 412.74,-779.38 494.6,-762.14"/>
<polygon fill="#ff6500" stroke="#ff6500" stroke-width="2" points="504.35,-760.1 495.48,-766.55 501.95,-761.12 494.67,-762.64 494.56,-762.15 494.46,-761.66 501.74,-760.14 493.64,-757.74 504.35,-760.1"/>
</g>
<!-- aphrodite::exception -->
<g id="node24" class="node">
<title>aphrodite::exception</title>
<path fill="#d4c9be" stroke="black" stroke-width="1.5" d="M825.75,-213C825.75,-213 1033,-213 1033,-213 1039,-213 1045,-219 1045,-225 1045,-225 1045,-273 1045,-273 1045,-279 1039,-285 1033,-285 1033,-285 825.75,-285 825.75,-285 819.75,-285 813.75,-279 813.75,-273 813.75,-273 813.75,-225 813.75,-225 813.75,-219 819.75,-213 825.75,-213"/>
<text text-anchor="middle" x="929.38" y="-243.6" font-family="Helvetica,Arial,sans-serif" font-size="22.00" fill="#222831">aphrodite::exception</text>
</g>
<!-- aphrodite::all&#45;&gt;aphrodite::exception -->
<g id="edge20" class="edge">
<title>aphrodite::all&#45;&gt;aphrodite::exception</title>
<path fill="none" stroke="#ff6500" stroke-width="2" d="M86.21,-864.69C100.52,-801.06 130.72,-665.2 154,-550 167.84,-481.52 158.23,-285.61 212,-241 298.43,-169.28 619.45,-202.73 801.04,-228.66"/>
<polygon fill="#ff6500" stroke="#ff6500" stroke-width="2" points="810.92,-230.09 800.38,-233.11 808.32,-230.22 800.95,-229.15 801.03,-228.66 801.1,-228.16 808.46,-229.23 801.67,-224.21 810.92,-230.09"/>
</g>
<!-- aphrodite::allocator&#45;&gt;aphrodite::common -->
<g id="edge21" class="edge">
<title>aphrodite::allocator&#45;&gt;aphrodite::common</title>
<path fill="none" stroke="#1e3e62" stroke-width="2" d="M1593.65,-864.77C1608.57,-862.83 1623.97,-860.83 1639.1,-858.87"/>
<polygon fill="#1e3e62" stroke="#1e3e62" stroke-width="2" points="1648.74,-857.62 1639.4,-863.37 1646.26,-858.44 1638.89,-859.4 1638.82,-858.9 1638.76,-858.41 1646.13,-857.45 1638.24,-854.44 1648.74,-857.62"/>
</g>
<!-- aphrodite::api&#45;&gt;aphrodite::allocator -->
<g id="edge24" class="edge">
<title>aphrodite::api&#45;&gt;aphrodite::allocator</title>
<path fill="none" stroke="#1e3e62" stroke-width="2" d="M1010.42,-1054.51C1106.4,-1042.4 1261.06,-1020.32 1314.75,-998 1358.16,-979.95 1401.26,-948.92 1432.85,-923.08"/>
<polygon fill="#1e3e62" stroke="#1e3e62" stroke-width="2" points="1440.39,-916.8 1435.58,-926.65 1438.74,-918.82 1433.02,-923.58 1432.7,-923.19 1432.38,-922.81 1438.1,-918.05 1429.83,-919.73 1440.39,-916.8"/>
</g>
<!-- aphrodite::api&#45;&gt;aphrodite::common -->
<g id="edge22" class="edge">
<title>aphrodite::api&#45;&gt;aphrodite::common</title>
<path fill="none" stroke="#1e3e62" stroke-width="2" d="M1010.53,-1065.12C1139.49,-1063.94 1398.34,-1049.14 1593.5,-958 1634.24,-938.98 1675.95,-910.43 1707.59,-886.53"/>
<polygon fill="#1e3e62" stroke="#1e3e62" stroke-width="2" points="1715.14,-880.76 1709.92,-890.41 1713.4,-882.72 1707.5,-887.24 1707.19,-886.84 1706.89,-886.44 1712.8,-881.92 1704.46,-883.26 1715.14,-880.76"/>
</g>
<!-- aphrodite::module -->
<g id="node12" class="node">
<title>aphrodite::module</title>
<path fill="#d4c9be" stroke="black" stroke-width="1.5" d="M1117.25,-1102C1117.25,-1102 1302.75,-1102 1302.75,-1102 1308.75,-1102 1314.75,-1108 1314.75,-1114 1314.75,-1114 1314.75,-1162 1314.75,-1162 1314.75,-1168 1308.75,-1174 1302.75,-1174 1302.75,-1174 1117.25,-1174 1117.25,-1174 1111.25,-1174 1105.25,-1168 1105.25,-1162 1105.25,-1162 1105.25,-1114 1105.25,-1114 1105.25,-1108 1111.25,-1102 1117.25,-1102"/>
<text text-anchor="middle" x="1210" y="-1132.6" font-family="Helvetica,Arial,sans-serif" font-size="22.00" fill="#222831">aphrodite::module</text>
</g>
<!-- aphrodite::api&#45;&gt;aphrodite::module -->
<g id="edge26" class="edge">
<title>aphrodite::api&#45;&gt;aphrodite::module</title>
<path fill="none" stroke="#1e3e62" stroke-width="2" d="M1010.59,-1085.3C1036.33,-1092.14 1065.38,-1099.86 1093.15,-1107.23"/>
<polygon fill="#1e3e62" stroke="#1e3e62" stroke-width="2" points="1102.6,-1109.74 1091.78,-1111.52 1099.99,-1109.57 1092.81,-1107.66 1092.94,-1107.17 1093.06,-1106.69 1100.25,-1108.6 1094.09,-1102.83 1102.6,-1109.74"/>
</g>
<!-- aphrodite::api&#45;&gt;aphrodite::threads -->
<g id="edge25" class="edge">
<title>aphrodite::api&#45;&gt;aphrodite::threads</title>
<path fill="none" stroke="#1e3e62" stroke-width="2" d="M969.94,-1027.52C1005.36,-994.87 1058.74,-945.7 1105.25,-903 1123.33,-886.4 1143.2,-868.2 1160.67,-852.21"/>
<polygon fill="#1e3e62" stroke="#1e3e62" stroke-width="2" points="1167.77,-845.71 1163.43,-855.78 1166.21,-847.81 1160.73,-852.83 1160.39,-852.46 1160.05,-852.09 1165.54,-847.07 1157.35,-849.14 1167.77,-845.71"/>
</g>
<!-- aphrodite::api&#45;&gt;aphrodite::wsi -->
<g id="edge23" class="edge">
<title>aphrodite::api&#45;&gt;aphrodite::wsi</title>
<path fill="none" stroke="#1e3e62" stroke-width="2" d="M1001.4,-1027.64C1036.33,-1012.29 1078.85,-994.72 1116.3,-980.1"/>
<polygon fill="#1e3e62" stroke="#1e3e62" stroke-width="2" points="1125.47,-976.55 1117.77,-984.36 1123.26,-977.94 1116.33,-980.63 1116.15,-980.16 1115.97,-979.7 1122.9,-977.01 1114.52,-975.97 1125.47,-976.55"/>
</g>
<!-- aphrodite::cli&#45;&gt;aphrodite::common -->
<g id="edge27" class="edge">
<title>aphrodite::cli&#45;&gt;aphrodite::common</title>
<path fill="none" stroke="#1e3e62" stroke-width="2" d="M399.12,-1508.09C513.48,-1501.06 737.71,-1489 928.38,-1489 928.38,-1489 928.38,-1489 1211,-1489 1382.75,-1489 1464.21,-1547.06 1593.5,-1434 1676.64,-1361.3 1735.05,-1019.43 1754.33,-891.49"/>
<polygon fill="#1e3e62" stroke="#1e3e62" stroke-width="2" points="1755.76,-881.85 1758.74,-892.4 1755.88,-884.46 1754.79,-891.81 1754.29,-891.74 1753.8,-891.66 1754.89,-884.31 1749.84,-891.08 1755.76,-881.85"/>
</g>
<!-- aphrodite::event&#45;&gt;aphrodite::common -->
<g id="edge28" class="edge">
<title>aphrodite::event&#45;&gt;aphrodite::common</title>
<path fill="none" stroke="#1e3e62" stroke-width="2" d="M416.97,-1418C535.73,-1418 747.3,-1418 928.38,-1418 928.38,-1418 928.38,-1418 1211,-1418 1381.49,-1418 1460.31,-1495.43 1593.5,-1389 1673,-1325.47 1732.85,-1012.87 1753.46,-891.4"/>
<polygon fill="#1e3e62" stroke="#1e3e62" stroke-width="2" points="1755.09,-881.64 1757.88,-892.25 1755.16,-884.25 1753.93,-891.59 1753.44,-891.51 1752.94,-891.42 1754.17,-884.09 1749,-890.76 1755.09,-881.64"/>
</g>
<!-- aphrodite::filesystem&#45;&gt;aphrodite::common -->
<g id="edge29" class="edge">
<title>aphrodite::filesystem&#45;&gt;aphrodite::common</title>
<path fill="none" stroke="#1e3e62" stroke-width="2" d="M1047.7,-554.32C1186.84,-539.24 1421.53,-532.72 1593.5,-626 1663.11,-663.75 1713.07,-744.03 1739.53,-795.65"/>
<polygon fill="#1e3e62" stroke="#1e3e62" stroke-width="2" points="1743.89,-804.34 1735.39,-797.42 1742.29,-802.27 1738.96,-795.62 1739.41,-795.4 1739.86,-795.18 1743.19,-801.83 1743.43,-793.39 1743.89,-804.34"/>
</g>
<!-- aphrodite::resource&#45;&gt;aphrodite::api -->
<g id="edge32" class="edge">
<title>aphrodite::resource&#45;&gt;aphrodite::api</title>
<path fill="none" stroke="#1e3e62" stroke-width="2" d="M367.72,-691.22C401.05,-718.22 448.34,-755.52 491.5,-786 616.63,-874.36 768.73,-968.26 856.47,-1021.17"/>
<polygon fill="#1e3e62" stroke="#1e3e62" stroke-width="2" points="865.01,-1026.32 854.13,-1025.02 862.56,-1025.43 856.19,-1021.59 856.45,-1021.16 856.7,-1020.73 863.08,-1024.57 858.77,-1017.31 865.01,-1026.32"/>
</g>
<!-- aphrodite::resource&#45;&gt;aphrodite::common -->
<g id="edge31" class="edge">
<title>aphrodite::resource&#45;&gt;aphrodite::common</title>
<path fill="none" stroke="#1e3e62" stroke-width="2" d="M433.84,-645.91C520.74,-640.19 644.99,-635.23 753.5,-643 1129.72,-669.96 1232.24,-655.57 1593.5,-764 1624.39,-773.27 1656.8,-787.39 1684.81,-801.14"/>
<polygon fill="#1e3e62" stroke="#1e3e62" stroke-width="2" points="1693.53,-805.49 1682.58,-805.05 1691.02,-804.79 1684.36,-801.47 1684.59,-801.03 1684.81,-800.58 1691.46,-803.9 1686.59,-797 1693.53,-805.49"/>
</g>
<!-- aphrodite::resource&#45;&gt;aphrodite::filesystem -->
<g id="edge30" class="edge">
<title>aphrodite::resource&#45;&gt;aphrodite::filesystem</title>
<path fill="none" stroke="#1e3e62" stroke-width="2" d="M431.16,-618.5C451.03,-612.85 471.75,-607.68 491.5,-604 593.68,-584.97 711.28,-577.14 798.71,-573.97"/>
<polygon fill="#1e3e62" stroke="#1e3e62" stroke-width="2" points="808.68,-573.63 798.84,-578.47 806.13,-574.22 798.7,-574.47 798.69,-573.97 798.67,-573.47 806.1,-573.22 798.53,-569.48 808.68,-573.63"/>
</g>
<!-- aphrodite::resource&#45;&gt;aphrodite::math -->
<g id="edge33" class="edge">
<title>aphrodite::resource&#45;&gt;aphrodite::math</title>
<path fill="none" stroke="#1e3e62" stroke-width="2" d="M433.71,-648.09C522.72,-646.25 649.88,-652.27 753.5,-691 802.47,-709.3 849.79,-745.44 882.83,-774.66"/>
<polygon fill="#1e3e62" stroke="#1e3e62" stroke-width="2" points="889.95,-781.07 879.51,-777.73 887.71,-779.73 882.19,-774.75 882.52,-774.38 882.85,-774.01 888.38,-778.99 885.53,-771.04 889.95,-781.07"/>
</g>
<!-- aphrodite::resource&#45;&gt;aphrodite::global -->
<g id="edge34" class="edge">
<title>aphrodite::resource&#45;&gt;aphrodite::global</title>
<path fill="none" stroke="#1e3e62" stroke-width="2" d="M332.04,-618.53C349.06,-553.26 394.77,-418.08 491.5,-362 591.14,-304.23 726.28,-316.75 819.75,-336.5"/>
<polygon fill="#1e3e62" stroke="#1e3e62" stroke-width="2" points="829.41,-338.62 818.68,-340.88 826.8,-338.56 819.54,-336.97 819.64,-336.48 819.75,-335.99 827.02,-337.58 820.61,-332.08 829.41,-338.62"/>
</g>
<!-- aphrodite::resource&#45;&gt;aphrodite::reflection -->
<g id="edge36" class="edge">
<title>aphrodite::resource&#45;&gt;aphrodite::reflection</title>
<path fill="none" stroke="#1e3e62" stroke-width="2" d="M346.08,-618.62C374.74,-574.69 428.39,-501.19 491.5,-457 494.18,-455.12 496.94,-453.31 499.77,-451.56"/>
<polygon fill="#1e3e62" stroke="#1e3e62" stroke-width="2" points="508.15,-446.72 501.74,-455.62 506.18,-448.43 499.74,-452.15 499.49,-451.72 499.24,-451.29 505.68,-447.57 497.24,-447.83 508.15,-446.72"/>
</g>
<!-- aphrodite::resource&#45;&gt;aphrodite::geometry -->
<g id="edge35" class="edge">
<title>aphrodite::resource&#45;&gt;aphrodite::geometry</title>
<path fill="none" stroke="#1e3e62" stroke-width="2" d="M433.78,-685.67C453.58,-691.19 474.37,-696.99 494.6,-702.63"/>
<polygon fill="#1e3e62" stroke="#1e3e62" stroke-width="2" points="504.09,-705.27 493.25,-706.92 501.49,-705.07 494.33,-703.07 494.46,-702.59 494.59,-702.11 501.76,-704.1 495.67,-698.25 504.09,-705.27"/>
</g>
<!-- aphrodite::scene&#45;&gt;aphrodite::common -->
<g id="edge38" class="edge">
<title>aphrodite::scene&#45;&gt;aphrodite::common</title>
<path fill="none" stroke="#1e3e62" stroke-width="2" d="M717.76,-497.51C932.12,-484.49 1448.74,-463.51 1593.5,-552 1682.8,-606.58 1729.34,-727.66 1749.18,-795.17"/>
<polygon fill="#1e3e62" stroke="#1e3e62" stroke-width="2" points="1751.8,-804.38 1744.74,-795.99 1750.62,-802.05 1748.58,-794.9 1749.06,-794.76 1749.55,-794.62 1751.58,-801.78 1753.39,-793.53 1751.8,-804.38"/>
</g>
<!-- aphrodite::scene&#45;&gt;aphrodite::math -->
<g id="edge37" class="edge">
<title>aphrodite::scene&#45;&gt;aphrodite::math</title>
<path fill="none" stroke="#1e3e62" stroke-width="2" d="M658.77,-540.44C714.79,-598.33 823.98,-711.14 884.81,-773.99"/>
<polygon fill="#1e3e62" stroke="#1e3e62" stroke-width="2" points="891.73,-781.13 881.54,-777.08 889.58,-779.64 884.41,-774.3 884.77,-773.95 885.13,-773.6 890.3,-778.94 888.01,-770.82 891.73,-781.13"/>
</g>
<!-- aphrodite::threads&#45;&gt;aphrodite::allocator -->
<g id="edge40" class="edge">
<title>aphrodite::threads&#45;&gt;aphrodite::allocator</title>
<path fill="none" stroke="#1e3e62" stroke-width="2" d="M1315.05,-835.25C1330.04,-839.17 1345.58,-843.24 1360.87,-847.25"/>
<polygon fill="#1e3e62" stroke="#1e3e62" stroke-width="2" points="1370.15,-849.68 1359.34,-851.5 1367.54,-849.51 1360.35,-847.63 1360.48,-847.14 1360.6,-846.66 1367.8,-848.54 1361.62,-842.79 1370.15,-849.68"/>
</g>
<!-- aphrodite::threads&#45;&gt;aphrodite::common -->
<g id="edge39" class="edge">
<title>aphrodite::threads&#45;&gt;aphrodite::common</title>
<path fill="none" stroke="#1e3e62" stroke-width="2" d="M1314.91,-814.44C1391.84,-819.23 1499.21,-825.95 1593.5,-832 1608.21,-832.94 1623.64,-833.94 1638.94,-834.94"/>
<polygon fill="#1e3e62" stroke="#1e3e62" stroke-width="2" points="1648.74,-835.58 1638.46,-839.42 1646.14,-835.91 1638.72,-835.43 1638.76,-834.93 1638.79,-834.43 1646.21,-834.91 1639.05,-830.44 1648.74,-835.58"/>
</g>
<!-- aphrodite::ui&#45;&gt;aphrodite::api -->
<g id="edge43" class="edge">
<title>aphrodite::ui&#45;&gt;aphrodite::api</title>
<path fill="none" stroke="#1e3e62" stroke-width="2" d="M697.69,-1135.88C739.52,-1122.85 792.12,-1106.46 836.53,-1092.62"/>
<polygon fill="#1e3e62" stroke="#1e3e62" stroke-width="2" points="845.9,-1089.7 837.7,-1096.97 843.61,-1090.94 836.51,-1093.15 836.36,-1092.67 836.21,-1092.2 843.31,-1089.98 835.02,-1088.38 845.9,-1089.7"/>
</g>
<!-- aphrodite::ui&#45;&gt;aphrodite::common -->
<g id="edge42" class="edge">
<title>aphrodite::ui&#45;&gt;aphrodite::common</title>
<path fill="none" stroke="#1e3e62" stroke-width="2" d="M697.51,-1177.19C824.67,-1205.7 1092.4,-1253.77 1314.75,-1214 1444.76,-1190.75 1491.03,-1194.33 1593.5,-1111 1667.16,-1051.1 1717.86,-949.8 1743,-890.39"/>
<polygon fill="#1e3e62" stroke="#1e3e62" stroke-width="2" points="1746.76,-881.34 1747.08,-892.3 1746.24,-883.9 1743.39,-890.77 1742.93,-890.57 1742.46,-890.38 1745.31,-883.51 1738.77,-888.85 1746.76,-881.34"/>
</g>
<!-- aphrodite::ui&#45;&gt;aphrodite::math -->
<g id="edge41" class="edge">
<title>aphrodite::ui&#45;&gt;aphrodite::math</title>
<path fill="none" stroke="#1e3e62" stroke-width="2" d="M697.61,-1141.97C717.22,-1134.97 737.39,-1125.29 753.5,-1112 756.22,-1109.75 851.92,-948.29 900.57,-866.04"/>
<polygon fill="#1e3e62" stroke="#1e3e62" stroke-width="2" points="905.58,-857.56 904.37,-868.46 904.71,-860.02 900.92,-866.43 900.49,-866.17 900.06,-865.92 903.85,-859.51 896.62,-863.88 905.58,-857.56"/>
</g>
<!-- aphrodite::wsi&#45;&gt;aphrodite::api -->
<g id="edge45" class="edge">
<title>aphrodite::wsi&#45;&gt;aphrodite::api</title>
<path fill="none" stroke="#1e3e62" stroke-width="2" d="M1137.88,-986.4C1102.67,-1001.87 1059.75,-1019.6 1022.09,-1034.28"/>
<polygon fill="#1e3e62" stroke="#1e3e62" stroke-width="2" points="1012.86,-1037.85 1020.57,-1030.05 1015.07,-1036.46 1022.01,-1033.78 1022.19,-1034.24 1022.37,-1034.71 1015.43,-1037.39 1023.81,-1038.44 1012.86,-1037.85"/>
</g>
<!-- aphrodite::wsi&#45;&gt;aphrodite::common -->
<g id="edge44" class="edge">
<title>aphrodite::wsi&#45;&gt;aphrodite::common</title>
<path fill="none" stroke="#1e3e62" stroke-width="2" d="M1292.36,-954.47C1370.84,-956.6 1492.3,-954.15 1593.5,-927 1627.68,-917.83 1663.07,-901.31 1692.48,-885.33"/>
<polygon fill="#1e3e62" stroke="#1e3e62" stroke-width="2" points="1700.9,-880.67 1694.33,-889.45 1698.9,-882.35 1692.39,-885.95 1692.15,-885.51 1691.91,-885.08 1698.41,-881.47 1689.97,-881.58 1700.9,-880.67"/>
</g>
<!-- aphrodite::app&#45;&gt;aphrodite::common -->
<g id="edge46" class="edge">
<title>aphrodite::app&#45;&gt;aphrodite::common</title>
<path fill="none" stroke="#1e3e62" stroke-width="2" d="M707.49,-110.28C891.97,-74.48 1336.55,-18 1593.5,-237 1679.84,-310.58 1736.55,-664.09 1754.84,-794.52"/>
<polygon fill="#1e3e62" stroke="#1e3e62" stroke-width="2" points="1756.2,-804.38 1750.37,-795.09 1755.36,-801.91 1754.34,-794.54 1754.83,-794.47 1755.33,-794.4 1756.35,-801.77 1759.29,-793.85 1756.2,-804.38"/>
</g>
<!-- aphrodite::app&#45;&gt;aphrodite::global -->
<g id="edge47" class="edge">
<title>aphrodite::app&#45;&gt;aphrodite::global</title>
<path fill="none" stroke="#1e3e62" stroke-width="2" d="M675.82,-165.36C700.38,-183.38 729.46,-206.14 753.5,-229 782.29,-256.37 781.17,-271.35 811.5,-297 822.9,-306.64 835.78,-315.79 848.73,-324.09"/>
<polygon fill="#1e3e62" stroke="#1e3e62" stroke-width="2" points="857.02,-329.27 846.16,-327.79 854.59,-328.34 848.28,-324.4 848.54,-323.98 848.81,-323.55 855.12,-327.49 850.93,-320.16 857.02,-329.27"/>
</g>
<!-- aphrodite::app&#45;&gt;aphrodite::exception -->
<g id="edge48" class="edge">
<title>aphrodite::app&#45;&gt;aphrodite::exception</title>
<path fill="none" stroke="#1e3e62" stroke-width="2" d="M707.21,-161.95C743.47,-176.22 786.29,-193.08 824.55,-208.13"/>
<polygon fill="#1e3e62" stroke="#1e3e62" stroke-width="2" points="833.47,-211.64 822.52,-212.17 830.9,-211.17 823.98,-208.45 824.16,-207.98 824.35,-207.52 831.27,-210.24 825.81,-203.79 833.47,-211.64"/>
</g>
<!-- aphrodite::global&#45;&gt;aphrodite::common -->
<g id="edge50" class="edge">
<title>aphrodite::global&#45;&gt;aphrodite::common</title>
<path fill="none" stroke="#1e3e62" stroke-width="2" d="M1026.86,-347.88C1166.53,-325.98 1426.55,-307.57 1593.5,-432 1711.74,-520.12 1746.94,-706.12 1757.18,-794.45"/>
<polygon fill="#1e3e62" stroke="#1e3e62" stroke-width="2" points="1758.25,-804.33 1752.7,-794.87 1757.48,-801.83 1756.68,-794.44 1757.17,-794.39 1757.67,-794.33 1758.47,-801.73 1761.65,-793.9 1758.25,-804.33"/>
</g>
<!-- aphrodite::global&#45;&gt;aphrodite::threads -->
<g id="edge49" class="edge">
<title>aphrodite::global&#45;&gt;aphrodite::threads</title>
<path fill="none" stroke="#1e3e62" stroke-width="2" d="M959.27,-403.47C983.73,-434.95 1019.19,-481.99 1047.25,-525 1099.86,-605.65 1154,-704.11 1184.38,-761.08"/>
<polygon fill="#1e3e62" stroke="#1e3e62" stroke-width="2" points="1188.99,-769.75 1180.32,-763.03 1187.35,-767.72 1183.86,-761.16 1184.3,-760.92 1184.74,-760.69 1188.23,-767.25 1188.27,-758.81 1188.99,-769.75"/>
</g>
<!-- aphrodite::engine&#45;&gt;aphrodite::api -->
<g id="edge52" class="edge">
<title>aphrodite::engine&#45;&gt;aphrodite::api</title>
<path fill="none" stroke="#1e3e62" stroke-width="2" d="M723.75,-1064C759.92,-1064 800.55,-1064 836.02,-1064"/>
<polygon fill="#1e3e62" stroke="#1e3e62" stroke-width="2" points="845.9,-1064 835.9,-1068.5 843.33,-1064.5 835.9,-1064.5 835.9,-1064 835.9,-1063.5 843.33,-1063.5 835.9,-1059.5 845.9,-1064"/>
</g>
<!-- aphrodite::engine&#45;&gt;aphrodite::common -->
<g id="edge51" class="edge">
<title>aphrodite::engine&#45;&gt;aphrodite::common</title>
<path fill="none" stroke="#1e3e62" stroke-width="2" d="M723.98,-1089.72C752.28,-1096.94 783.09,-1104.8 811.5,-1112 1030.63,-1167.58 1097.66,-1249.1 1314.75,-1186 1493.57,-1134.02 1653.51,-969.46 1723.64,-888.66"/>
<polygon fill="#1e3e62" stroke="#1e3e62" stroke-width="2" points="1730.16,-881.08 1727.05,-891.6 1728.86,-883.35 1724.02,-888.99 1723.64,-888.66 1723.26,-888.34 1728.11,-882.7 1720.23,-885.73 1730.16,-881.08"/>
</g>
<!-- aphrodite::engine&#45;&gt;aphrodite::math -->
<g id="edge53" class="edge">
<title>aphrodite::engine&#45;&gt;aphrodite::math</title>
<path fill="none" stroke="#1e3e62" stroke-width="2" d="M668.81,-1027.59C723.49,-983.64 815.36,-909.82 873.86,-862.81"/>
<polygon fill="#1e3e62" stroke="#1e3e62" stroke-width="2" points="881.41,-856.74 876.43,-866.51 879.73,-858.74 873.93,-863.39 873.62,-863.01 873.3,-862.62 879.1,-857.96 870.8,-859.5 881.41,-856.74"/>
</g>
<!-- aphrodite::reflection&#45;&gt;aphrodite::api -->
<g id="edge56" class="edge">
<title>aphrodite::reflection&#45;&gt;aphrodite::api</title>
<path fill="none" stroke="#1e3e62" stroke-width="2" d="M737.68,-441.82C743.54,-446.26 748.89,-451.29 753.5,-457 869.05,-600.24 750.47,-693.38 811.5,-867 830.99,-922.45 866.93,-979.53 893.83,-1017.88"/>
<polygon fill="#1e3e62" stroke="#1e3e62" stroke-width="2" points="899.4,-1025.72 889.93,-1020.17 897.5,-1023.92 893.19,-1017.85 893.6,-1017.56 894.01,-1017.27 898.32,-1023.34 897.27,-1014.96 899.4,-1025.72"/>
</g>
<!-- aphrodite::reflection&#45;&gt;aphrodite::common -->
<g id="edge55" class="edge">
<title>aphrodite::reflection&#45;&gt;aphrodite::common</title>
<path fill="none" stroke="#1e3e62" stroke-width="2" d="M737.43,-412.7C978.63,-421.43 1524.46,-446.25 1593.5,-494 1696.24,-565.05 1738.21,-716.82 1753.5,-794.7"/>
<polygon fill="#1e3e62" stroke="#1e3e62" stroke-width="2" points="1755.28,-804.15 1749.01,-795.16 1754.32,-801.72 1752.94,-794.41 1753.43,-794.32 1753.92,-794.23 1755.3,-801.54 1757.85,-793.49 1755.28,-804.15"/>
</g>
<!-- aphrodite::reflection&#45;&gt;aphrodite::filesystem -->
<g id="edge54" class="edge">
<title>aphrodite::reflection&#45;&gt;aphrodite::filesystem</title>
<path fill="none" stroke="#1e3e62" stroke-width="2" d="M728.69,-445.47C737.19,-449.13 745.55,-452.99 753.5,-457 794.06,-477.49 836.73,-505.4 869.76,-528.6"/>
<polygon fill="#1e3e62" stroke="#1e3e62" stroke-width="2" points="877.7,-534.23 866.94,-532.12 875.32,-533.15 869.25,-528.85 869.54,-528.45 869.83,-528.04 875.9,-532.34 872.15,-524.77 877.7,-534.23"/>
</g>
<!-- aphrodite::reflection&#45;&gt;aphrodite::global -->
<g id="edge57" class="edge">
<title>aphrodite::reflection&#45;&gt;aphrodite::global</title>
<path fill="none" stroke="#1e3e62" stroke-width="2" d="M737.46,-393.3C764.44,-389.58 793.15,-385.63 819.89,-381.95"/>
<polygon fill="#1e3e62" stroke="#1e3e62" stroke-width="2" points="829.61,-380.61 820.32,-386.43 827.14,-381.45 819.77,-382.47 819.7,-381.97 819.63,-381.48 827,-380.46 819.09,-377.51 829.61,-380.61"/>
</g>
<!-- aphrodite::rendergraph&#45;&gt;aphrodite::api -->
<g id="edge59" class="edge">
<title>aphrodite::rendergraph&#45;&gt;aphrodite::api</title>
<path fill="none" stroke="#1e3e62" stroke-width="2" d="M723.36,-1264.61C733.87,-1259.3 744.13,-1253.43 753.5,-1247 809.25,-1208.78 861.14,-1150.42 893.68,-1109.93"/>
<polygon fill="#1e3e62" stroke="#1e3e62" stroke-width="2" points="899.81,-1102.2 897.12,-1112.83 898.61,-1104.52 893.99,-1110.35 893.59,-1110.04 893.2,-1109.72 897.83,-1103.9 890.07,-1107.24 899.81,-1102.2"/>
</g>
<!-- aphrodite::rendergraph&#45;&gt;aphrodite::common -->
<g id="edge58" class="edge">
<title>aphrodite::rendergraph&#45;&gt;aphrodite::common</title>
<path fill="none" stroke="#1e3e62" stroke-width="2" d="M753.79,-1322.63C956.15,-1348.55 1348.15,-1367.12 1593.5,-1175 1686.27,-1102.36 1732.01,-964.63 1750.64,-891.48"/>
<polygon fill="#1e3e62" stroke="#1e3e62" stroke-width="2" points="1753.02,-881.83 1754.99,-892.62 1752.89,-884.44 1751.11,-891.66 1750.62,-891.54 1750.14,-891.42 1751.92,-884.2 1746.25,-890.46 1753.02,-881.83"/>
</g>
<!-- aphrodite::geometry&#45;&gt;aphrodite::api -->
<g id="edge62" class="edge">
<title>aphrodite::geometry&#45;&gt;aphrodite::api</title>
<path fill="none" stroke="#1e3e62" stroke-width="2" d="M727.97,-774.5C737.05,-779.68 745.72,-785.49 753.5,-792 773.48,-808.71 856.43,-944.19 900.52,-1017.42"/>
<polygon fill="#1e3e62" stroke="#1e3e62" stroke-width="2" points="905.48,-1025.66 896.47,-1019.41 903.73,-1023.72 899.9,-1017.35 900.33,-1017.09 900.75,-1016.83 904.59,-1023.21 904.18,-1014.77 905.48,-1025.66"/>
</g>
<!-- aphrodite::geometry&#45;&gt;aphrodite::common -->
<g id="edge61" class="edge">
<title>aphrodite::geometry&#45;&gt;aphrodite::common</title>
<path fill="none" stroke="#1e3e62" stroke-width="2" d="M738.53,-736.62C876.02,-736.18 1112.84,-739.22 1314.75,-761 1425.44,-772.94 1549.92,-796.67 1639.27,-815.54"/>
<polygon fill="#1e3e62" stroke="#1e3e62" stroke-width="2" points="1648.98,-817.61 1638.26,-819.93 1646.37,-817.56 1639.09,-816.02 1639.2,-815.53 1639.3,-815.04 1646.58,-816.58 1640.13,-811.13 1648.98,-817.61"/>
</g>
<!-- aphrodite::geometry&#45;&gt;aphrodite::filesystem -->
<g id="edge60" class="edge">
<title>aphrodite::geometry&#45;&gt;aphrodite::filesystem</title>
<path fill="none" stroke="#1e3e62" stroke-width="2" d="M690.41,-701.57C737.68,-675.83 801.18,-641.25 850.7,-614.29"/>
<polygon fill="#1e3e62" stroke="#1e3e62" stroke-width="2" points="859.22,-609.65 852.59,-618.39 857.21,-611.32 850.68,-614.87 850.44,-614.43 850.2,-614 856.73,-610.44 848.29,-610.48 859.22,-609.65"/>
</g>
<!-- aphrodite::geometry&#45;&gt;aphrodite::math -->
<g id="edge63" class="edge">
<title>aphrodite::geometry&#45;&gt;aphrodite::math</title>
<path fill="none" stroke="#1e3e62" stroke-width="2" d="M738.33,-768.51C766.83,-776.08 797.21,-784.15 825.12,-791.57"/>
<polygon fill="#1e3e62" stroke="#1e3e62" stroke-width="2" points="834.56,-794.08 823.74,-795.86 831.96,-793.9 824.77,-791.99 824.9,-791.51 825.03,-791.03 832.22,-792.93 826.06,-787.16 834.56,-794.08"/>
</g>
<!-- aphrodite::exception&#45;&gt;aphrodite::allocator -->
<g id="edge65" class="edge">
<title>aphrodite::exception&#45;&gt;aphrodite::allocator</title>
<path fill="none" stroke="#1e3e62" stroke-width="2" d="M999.73,-285.43C1016.13,-295.55 1032.98,-307.29 1047.25,-320 1229.72,-482.57 1390.99,-729.66 1453.99,-832.04"/>
<polygon fill="#1e3e62" stroke="#1e3e62" stroke-width="2" points="1459.21,-840.56 1450.15,-834.38 1457.44,-838.64 1453.56,-832.29 1453.99,-832.03 1454.41,-831.77 1458.3,-838.11 1457.83,-829.68 1459.21,-840.56"/>
</g>
<!-- aphrodite::exception&#45;&gt;aphrodite::common -->
<g id="edge64" class="edge">
<title>aphrodite::exception&#45;&gt;aphrodite::common</title>
<path fill="none" stroke="#1e3e62" stroke-width="2" d="M1045.2,-231.26C1190,-215.69 1438.7,-212.44 1593.5,-341 1732.98,-456.84 1757.1,-692.33 1760.83,-794.21"/>
<polygon fill="#1e3e62" stroke="#1e3e62" stroke-width="2" points="1761.13,-804.09 1756.33,-794.24 1760.56,-801.55 1760.33,-794.11 1760.83,-794.1 1761.33,-794.08 1761.56,-801.52 1765.33,-793.96 1761.13,-804.09"/>
</g>
</g>
</svg>
